<svg width="48" height="48" viewBox="0 0 48 48" fill="none" xmlns="http://www.w3.org/2000/svg">
<path d="M11.6844 24.2272C15.6348 16.5634 21.7579 16.6885 24.3256 17.7091L32.6214 24.8198C33.1482 27.1571 33.1547 32.6218 28.9673 35.7821C24.7799 38.9424 17.3137 39.3374 13.067 37.3622C9.66972 32.7798 10.7297 26.6962 11.6844 24.2272Z" fill="#EA6C25"/>
<path fill-rule="evenodd" clip-rule="evenodd" d="M24.695 16.7795C24.7975 16.8203 24.8926 16.8777 24.9764 16.9496L33.2722 24.0603C33.4357 24.2004 33.5496 24.3896 33.597 24.5997C33.89 25.9001 34.0288 28.0001 33.5384 30.2088C33.0449 32.4314 31.899 34.8221 29.5697 36.58C27.2801 38.3081 24.1663 39.237 21.1236 39.4942C18.0821 39.7513 14.9686 39.3493 12.6453 38.2687C12.4942 38.1984 12.363 38.0915 12.2637 37.9576C10.4058 35.4515 9.78656 32.5622 9.74387 30.0187C9.70128 27.4815 10.2301 25.2154 10.7517 23.8663C10.7646 23.833 10.7792 23.8005 10.7956 23.7688C12.8758 19.7331 15.5842 17.6563 18.201 16.7647C20.786 15.884 23.2041 16.187 24.695 16.7795ZM13.067 37.362C9.66972 32.7796 10.7297 26.696 11.6844 24.227C15.6348 16.5632 21.7579 16.6883 24.3256 17.7088L32.6214 24.8195C33.1482 27.1568 33.1547 32.6215 28.9673 35.7819C24.7799 38.9422 17.3137 39.3372 13.067 37.362Z" fill="#923805"/>
<path d="M21.4243 27.315C20.3647 30.4547 17.5438 32.3378 15.1236 31.521C12.7033 30.7042 11.6004 27.4968 12.66 24.3571C13.7196 21.2174 16.5406 19.3343 18.9608 20.1511C21.381 20.9678 22.484 24.1752 21.4243 27.315Z" fill="#FD8542"/>
<path fill-rule="evenodd" clip-rule="evenodd" d="M17.1199 38.4404C21.1357 38.9174 25.9199 38.0821 28.9674 35.7821C33.1548 32.6218 33.1482 27.1571 32.6215 24.8198L24.3257 17.7091C23.1693 17.2495 21.2918 16.9715 19.2165 17.5047C19.4366 17.5664 19.6404 17.6354 19.8257 17.7091L28.1215 24.8198C28.6482 27.1571 28.6548 32.6218 24.4674 35.7821C22.5124 37.2575 19.8429 38.1302 17.1199 38.4404Z" fill="#CB5817"/>
<path fill-rule="evenodd" clip-rule="evenodd" d="M17.6614 20.653C17.8184 20.8801 17.7616 21.1915 17.5345 21.3486C15.9911 22.4156 12.7969 26.2942 13.1868 32.9707C13.2029 33.2463 12.9924 33.4829 12.7168 33.499C12.4411 33.5151 12.2046 33.3046 12.1885 33.029C11.7783 26.0054 15.1341 21.7924 16.9658 20.526C17.1929 20.369 17.5044 20.4258 17.6614 20.653Z" fill="#FFC09D"/>
<path d="M34.6954 10.302C30.429 11.5661 28.704 15.5692 28.3748 17.4127L29.6586 18.4991C30.9228 15.3387 33.0411 14.6228 34.6954 14.3511C36.1965 14.2721 36.1971 15.0517 37.2631 15.3387C39.3173 15.8918 40.0942 14.6474 40.2259 13.9561C40.2259 12.0304 38.9618 9.03787 34.6954 10.302Z" fill="#85360A"/>
<path fill-rule="evenodd" clip-rule="evenodd" d="M27.7288 18.1759C27.4566 17.9456 27.3277 17.5878 27.3904 17.2367C27.7553 15.1928 29.6404 10.7566 34.4113 9.34304C36.7984 8.63576 38.588 9.07156 39.7599 10.2179C40.8617 11.2957 41.2259 12.822 41.2259 13.9559C41.2259 14.0187 41.22 14.0814 41.2083 14.1431C41.1027 14.6974 40.7564 15.4291 40.0403 15.9322C39.2852 16.4626 38.259 16.6423 37.0032 16.3042C36.3736 16.1347 35.9314 15.7991 35.6915 15.6171C35.6453 15.5821 35.6066 15.5527 35.5756 15.5313C35.4695 15.4583 35.3928 15.4187 35.2999 15.3916C35.208 15.3648 35.0567 15.338 34.8007 15.3473C34.0607 15.4731 33.2995 15.6884 32.5929 16.1687C31.88 16.6533 31.1531 17.4554 30.5871 18.8703C30.4677 19.1687 30.2122 19.3916 29.9003 19.4693C29.5883 19.5469 29.2581 19.4699 29.0127 19.2623L27.7288 18.1759ZM34.6954 14.351C35.6047 14.3031 35.9634 14.5703 36.3419 14.8522C36.5882 15.0357 36.8429 15.2254 37.2631 15.3386C39.3173 15.8916 40.0943 14.6473 40.2259 13.9559C40.2259 12.0302 38.9618 9.03771 34.6954 10.3018C30.429 11.566 28.704 15.569 28.3748 17.4125L29.6587 18.4989C29.795 18.158 29.9413 17.8455 30.0959 17.5589C31.3744 15.1893 33.2196 14.5933 34.6954 14.351Z" fill="#4D1F05"/>
<path fill-rule="evenodd" clip-rule="evenodd" d="M35.9062 13.3347C35.9112 13.6108 35.6915 13.8386 35.4154 13.8437C34.397 13.8622 31.7683 14.5119 29.9009 17.0175C29.7359 17.239 29.4227 17.2847 29.2012 17.1197C28.9798 16.9546 28.9341 16.6414 29.0991 16.42C31.1817 13.6256 34.1239 12.867 35.3972 12.8438C35.6733 12.8388 35.9012 13.0586 35.9062 13.3347Z" fill="#4D1F05"/>
<path fill-rule="evenodd" clip-rule="evenodd" d="M34.1876 11.5524C35.8068 10.7968 37.2812 11.041 37.8807 11.2994C38.1343 11.4088 38.2513 11.7029 38.142 11.9565C38.0327 12.2101 37.7385 12.3271 37.4849 12.2178C37.1297 12.0647 35.954 11.8316 34.6105 12.4586C34.3603 12.5754 34.0627 12.4672 33.946 12.217C33.8292 11.9667 33.9374 11.6692 34.1876 11.5524Z" fill="#BE5B23"/>
<path d="M16.5002 13.1249C15.4336 15.8507 16.4308 17.0422 16.8752 17.7499C18.3072 17.7499 20.5296 19.1417 24.875 22.4008C28.3806 25.0299 32.0031 29.5806 32.5627 31.6874C33.3692 32.0989 35.7502 32.0624 36.8752 30.5624C38.2888 28.6776 38.1418 27.2235 37.8619 26.203C36.9534 23.0427 34.5567 18.7829 32.1339 16.6233C27.464 12.4609 24.4308 11.5598 22.1634 10.8863L22.1252 10.8749C20.8084 10.4964 17.3806 10.8749 16.5002 13.1249Z" fill="#863203"/>
<path fill-rule="evenodd" clip-rule="evenodd" d="M16.875 18.75C16.531 18.75 16.2111 18.5731 16.0281 18.2817C16.0047 18.2444 15.9762 18.2011 15.9439 18.152C15.7272 17.8228 15.3383 17.2319 15.1476 16.4238C14.9212 15.464 14.9758 14.276 15.5688 12.7606C16.1713 11.2209 17.5994 10.4228 18.87 10.0539C20.1377 9.68582 21.5211 9.6608 22.4013 9.91388L22.4098 9.91636L22.448 9.92771C22.448 9.92771 22.448 9.92771 22.448 9.92771C24.8048 10.6278 27.9854 11.5862 32.7991 15.8769C34.116 17.0507 35.3824 18.7507 36.4279 20.5317C37.4765 22.3178 38.3408 24.25 38.8228 25.9267L38.8262 25.9386C38.9875 26.5271 39.1245 27.2923 38.9932 28.2016C38.8614 29.114 38.4696 30.103 37.675 31.1625C36.909 32.1838 35.7604 32.6552 34.7703 32.827C33.8153 32.9928 32.7751 32.9186 32.108 32.5782C31.8551 32.4492 31.6689 32.2186 31.596 31.9442C31.4938 31.5593 31.2229 30.9785 30.768 30.2438C30.3226 29.5245 29.7348 28.7117 29.0491 27.8728C27.6742 26.1907 25.9491 24.4565 24.2749 23.2008C22.1037 21.5724 20.4999 20.439 19.2735 19.7141C18.0157 18.9705 17.3027 18.75 16.875 18.75ZM22.1632 10.8863L22.125 10.875C20.8082 10.4964 17.3804 10.875 16.5 13.125C15.5101 15.6547 16.2979 16.8629 16.7716 17.5894C16.8083 17.6457 16.8431 17.6991 16.875 17.75C18.307 17.75 20.5294 19.1417 24.8749 22.4008C28.3804 25.0299 32.0029 29.5806 32.5625 31.6875C33.369 32.099 35.75 32.0625 36.875 30.5625C38.2886 28.6776 38.1416 27.2236 37.8618 26.203C36.9532 23.0427 34.5565 18.7829 32.1337 16.6234C27.4638 12.4609 24.4306 11.5598 22.1632 10.8863Z" fill="#491C03"/>
<path fill-rule="evenodd" clip-rule="evenodd" d="M18.7971 13.0417C19.0503 11.8251 20.2417 11.044 21.4583 11.2971C23.1988 11.6593 25.3131 12.3594 27.254 13.4958C29.1852 14.6265 31.1028 16.2845 32.1721 18.6287C32.6878 19.7593 32.1893 21.0939 31.0587 21.6096C29.9281 22.1253 28.5936 21.6268 28.0779 20.4962C27.5221 19.2779 26.4293 18.2276 24.9803 17.3791C23.5409 16.5364 21.9053 15.9865 20.5417 15.7028C19.3251 15.4497 18.544 14.2582 18.7971 13.0417Z" fill="#A84610"/>
<path fill-rule="evenodd" clip-rule="evenodd" d="M20.5371 12.8611C20.5989 12.4515 20.981 12.1696 21.3906 12.2314C23.0123 12.4762 26.6356 13.4912 29.5872 16.7063C29.8673 17.0115 29.847 17.4859 29.5419 17.766C29.2368 18.0462 28.7623 18.0259 28.4822 17.7207C25.8338 14.8358 22.5718 13.9267 21.1667 13.7146C20.7572 13.6528 20.4752 13.2706 20.5371 12.8611Z" fill="#D87138"/>
<path fill-rule="evenodd" clip-rule="evenodd" d="M18.8476 23.3788C18.9489 23.122 19.2394 22.9959 19.4962 23.0973C20.7626 23.5972 22.7209 24.891 24.5736 26.6012C26.4294 28.3142 28.239 30.4995 29.1528 32.8165C29.2541 33.0733 29.128 33.3637 28.8711 33.465C28.6142 33.5663 28.3238 33.4402 28.2225 33.1833C27.3862 31.0628 25.6959 28.998 23.8954 27.336C22.0919 25.6713 20.2377 24.4651 19.1291 24.0275C18.8722 23.9261 18.7462 23.6357 18.8476 23.3788Z" fill="#DD621D"/>
<path fill-rule="evenodd" clip-rule="evenodd" d="M16.6667 25.6246C16.7834 25.3744 17.081 25.2662 17.3312 25.383C18.3258 25.8471 20.063 26.9692 21.7488 28.6062C23.4362 30.2446 25.107 32.4327 25.9151 35.0394C25.9969 35.3032 25.8494 35.5833 25.5856 35.6651C25.3218 35.7468 25.0417 35.5993 24.96 35.3355C24.2181 32.9423 22.6675 30.8922 21.0522 29.3236C19.4354 27.7536 17.7887 26.7 16.9083 26.2891C16.6581 26.1724 16.5499 25.8748 16.6667 25.6246Z" fill="#DD621D"/>
<path fill-rule="evenodd" clip-rule="evenodd" d="M15.2345 29.3509C15.3513 29.1007 15.6488 28.9925 15.8991 29.1093C17.8776 30.0326 20.4053 31.9308 22.2692 36.1087C22.3817 36.3608 22.2685 36.6565 22.0163 36.769C21.7642 36.8815 21.4685 36.7683 21.356 36.5161C19.595 32.569 17.2476 30.8421 15.4762 30.0155C15.2259 29.8987 15.1178 29.6012 15.2345 29.3509Z" fill="#DD621D"/>
<path d="M34.8752 25.8125C34.8752 26.2957 34.5115 26.6875 34.0627 26.6875C33.614 26.6875 33.2502 26.2957 33.2502 25.8125C33.2502 25.3293 33.614 24.9375 34.0627 24.9375C34.5115 24.9375 34.8752 25.3293 34.8752 25.8125Z" fill="#AD460C"/>
<path d="M30.969 25.2052C30.969 25.5537 30.7067 25.8362 30.3831 25.8362C30.0595 25.8362 29.7971 25.5537 29.7971 25.2052C29.7971 24.8567 30.0595 24.5742 30.3831 24.5742C30.7067 24.5742 30.969 24.8567 30.969 25.2052Z" fill="#AD460C"/>
<path d="M33.5471 23.7677C33.5471 24.1162 33.2848 24.3987 32.9612 24.3987C32.6376 24.3987 32.3752 24.1162 32.3752 23.7677C32.3752 23.4192 32.6376 23.1367 32.9612 23.1367C33.2848 23.1367 33.5471 23.4192 33.5471 23.7677Z" fill="#AD460C"/>
<path d="M35.719 23.3905C35.719 23.739 35.4567 24.0215 35.1331 24.0215C34.8095 24.0215 34.5471 23.739 34.5471 23.3905C34.5471 23.042 34.8095 22.7595 35.1331 22.7595C35.4567 22.7595 35.719 23.042 35.719 23.3905Z" fill="#AD460C"/>
<path d="M37.666 27.4062C37.666 27.8895 37.3022 28.2812 36.8535 28.2812C36.4048 28.2812 36.041 27.8895 36.041 27.4062C36.041 26.923 36.4048 26.5312 36.8535 26.5312C37.3022 26.5312 37.666 26.923 37.666 27.4062Z" fill="#AD460C"/>
<path d="M34.6973 30.4375C34.6973 30.9207 34.3335 31.3125 33.8848 31.3125C33.436 31.3125 33.0723 30.9207 33.0723 30.4375C33.0723 29.9543 33.436 29.5625 33.8848 29.5625C34.3335 29.5625 34.6973 29.9543 34.6973 30.4375Z" fill="#AD460C"/>
<path d="M36.7502 25.3146C36.7502 25.6027 36.5334 25.8362 36.2659 25.8362C35.9984 25.8362 35.7815 25.6027 35.7815 25.3146C35.7815 25.0265 35.9984 24.793 36.2659 24.793C36.5334 24.793 36.7502 25.0265 36.7502 25.3146Z" fill="#AD460C"/>
<path d="M36.5254 29.5627C36.5254 29.8507 36.3085 30.0843 36.041 30.0843C35.7735 30.0843 35.5566 29.8507 35.5566 29.5627C35.5566 29.2746 35.7735 29.041 36.041 29.041C36.3085 29.041 36.5254 29.2746 36.5254 29.5627Z" fill="#AD460C"/>
<path d="M35.0315 28.1252C35.0315 28.4132 34.8146 28.6468 34.5471 28.6468C34.2796 28.6468 34.0627 28.4132 34.0627 28.1252C34.0627 27.8371 34.2796 27.6035 34.5471 27.6035C34.8146 27.6035 35.0315 27.8371 35.0315 28.1252Z" fill="#AD460C"/>
<path d="M34.3005 21.984C34.3005 22.1988 34.1388 22.3728 33.9394 22.3728C33.74 22.3728 33.5784 22.1988 33.5784 21.984C33.5784 21.7693 33.74 21.5952 33.9394 21.5952C34.1388 21.5952 34.3005 21.7693 34.3005 21.984Z" fill="#AD460C"/>
<path d="M31.3752 23.1737C31.3752 23.3885 31.2135 23.5625 31.0141 23.5625C30.8147 23.5625 30.6531 23.3885 30.6531 23.1737C30.6531 22.959 30.8147 22.7849 31.0141 22.7849C31.2135 22.7849 31.3752 22.959 31.3752 23.1737Z" fill="#AD460C"/>
<path d="M28.7358 23.3788C28.7358 23.5935 28.5741 23.7676 28.3747 23.7676C28.1753 23.7676 28.0137 23.5935 28.0137 23.3788C28.0137 23.1641 28.1753 22.99 28.3747 22.99C28.5741 22.99 28.7358 23.1641 28.7358 23.3788Z" fill="#AD460C"/>
<path d="M32.3752 27.3698C32.3752 27.6579 32.1584 27.8914 31.8909 27.8914C31.6234 27.8914 31.4065 27.6579 31.4065 27.3698C31.4065 27.0817 31.6234 26.8481 31.8909 26.8481C32.1584 26.8481 32.3752 27.0817 32.3752 27.3698Z" fill="#AD460C"/>
</svg>
