<svg width="48" height="48" viewBox="0 0 48 48" fill="none" xmlns="http://www.w3.org/2000/svg">
<path d="M20.0469 35.3833C23.1646 35.3833 25.692 34.4807 25.692 33.3672C25.7285 33.1609 25.9751 32.6406 26.1875 32.5H13.8125C14.1125 32.65 14.2679 33.2031 14.4018 33.3672C14.4018 34.4807 16.9292 35.3833 20.0469 35.3833Z" fill="#77BCD1"/>
<path fill-rule="evenodd" clip-rule="evenodd" d="M26.1876 32.5C26.0084 32.6186 25.8049 33.0074 25.7237 33.25C25.7086 33.295 25.6978 33.3349 25.692 33.3672C25.692 34.4807 23.1646 35.3833 20.0469 35.3833C16.9292 35.3833 14.4019 34.4807 14.4019 33.3672C14.3785 33.3386 14.3545 33.2981 14.3291 33.25C14.3067 33.2074 14.2832 33.1588 14.2583 33.1071C14.15 32.8828 14.0139 32.6006 13.8126 32.5H26.1876ZM13.6716 33.6109C13.6536 33.5771 13.6371 33.5443 13.6227 33.5151C13.6048 33.4787 13.5898 33.4477 13.576 33.4191C13.552 33.3691 13.5315 33.3267 13.5052 33.2766C13.4701 33.2095 13.4437 33.1672 13.4248 33.142C13.148 32.975 13.0073 32.6467 13.0826 32.3277C13.1626 31.9892 13.4647 31.75 13.8126 31.75H26.1876C26.5185 31.75 26.8104 31.9669 26.9057 32.2838C26.9968 32.5863 26.8883 32.9116 26.6384 33.0994C26.6352 33.1033 26.6313 33.1083 26.6268 33.1143C26.6013 33.1485 26.569 33.1995 26.5352 33.2627C26.502 33.3248 26.4733 33.3874 26.4526 33.4398C26.4463 33.456 26.4415 33.4691 26.4379 33.4793C26.3986 34.0104 26.0838 34.4282 25.7323 34.725C25.353 35.0453 24.8486 35.2999 24.2909 35.4991C23.169 35.8998 21.6685 36.1333 20.0469 36.1333C18.4254 36.1333 16.9249 35.8998 15.803 35.4991C15.2453 35.2999 14.7409 35.0453 14.3616 34.725C14.0397 34.4532 13.7486 34.0799 13.6716 33.6109Z" fill="#65A6BA"/>
<path d="M26.3483 12.2676H13.6519V32.1625C13.6519 33.0065 16.4941 34.0657 20.0001 34.0657C23.5061 34.0657 26.3483 33.0065 26.3483 32.1625V12.2676Z" fill="#E3283F"/>
<path fill-rule="evenodd" clip-rule="evenodd" d="M12.9019 12.2676C12.9019 11.8534 13.2376 11.5176 13.6519 11.5176H26.3483C26.7625 11.5176 27.0983 11.8534 27.0983 12.2676V32.1625C27.0983 32.4848 26.9625 32.7508 26.8134 32.9444C26.6643 33.1379 26.4713 33.3002 26.2706 33.4365C25.8686 33.7093 25.3306 33.9473 24.719 34.1444C23.4876 34.5414 21.822 34.8157 20.0001 34.8157C18.1782 34.8157 16.5126 34.5414 15.2811 34.1444C14.6696 33.9473 14.1315 33.7093 13.7296 33.4365C13.5288 33.3002 13.3359 33.1379 13.1868 32.9444C13.0376 32.7508 12.9019 32.4848 12.9019 32.1625V12.2676ZM26.3483 12.2676V32.1625C26.3483 33.0065 23.5061 34.0657 20.0001 34.0657C16.4941 34.0657 13.6519 33.0065 13.6519 32.1625V12.2676H26.3483Z" fill="#65A6BA"/>
<path d="M26.3482 32.1625V12.4465H22.625V33.5544C24.8212 33.314 26.3482 32.7812 26.3482 32.1625Z" fill="#C61A2F"/>
<path d="M24.2786 32.0576C24.2786 32.4373 23.9708 32.7451 23.5911 32.7451C23.2114 32.7451 22.9036 32.4373 22.9036 32.0576C22.9036 31.6779 23.2114 31.3701 23.5911 31.3701C23.9708 31.3701 24.2786 31.6779 24.2786 32.0576Z" fill="#AA0E21"/>
<path d="M25.625 31.1697C25.625 31.4544 25.3941 31.6853 25.1094 31.6853C24.8246 31.6853 24.5938 31.4544 24.5938 31.1697C24.5938 30.8849 24.8246 30.6541 25.1094 30.6541C25.3941 30.6541 25.625 30.8849 25.625 31.1697Z" fill="#AA0E21"/>
<path d="M23.5339 30.167C23.5339 30.4518 23.3031 30.6826 23.0183 30.6826C22.7335 30.6826 22.5027 30.4518 22.5027 30.167C22.5027 29.8822 22.7335 29.6514 23.0183 29.6514C23.3031 29.6514 23.5339 29.8822 23.5339 30.167Z" fill="#AA0E21"/>
<path d="M25.5964 27.7607C25.5964 28.0455 25.3656 28.2764 25.0808 28.2764C24.796 28.2764 24.5652 28.0455 24.5652 27.7607C24.5652 27.476 24.796 27.2451 25.0808 27.2451C25.3656 27.2451 25.5964 27.476 25.5964 27.7607Z" fill="#AA0E21"/>
<path d="M24.2214 28.2764C24.2214 28.4662 24.0675 28.6201 23.8777 28.6201C23.6878 28.6201 23.5339 28.4662 23.5339 28.2764C23.5339 28.0865 23.6878 27.9326 23.8777 27.9326C24.0675 27.9326 24.2214 28.0865 24.2214 28.2764Z" fill="#AA0E21"/>
<path d="M25.5964 26.2139C25.5964 26.4037 25.4425 26.5576 25.2527 26.5576C25.0628 26.5576 24.9089 26.4037 24.9089 26.2139C24.9089 26.024 25.0628 25.8701 25.2527 25.8701C25.4425 25.8701 25.5964 26.024 25.5964 26.2139Z" fill="#AA0E21"/>
<path d="M25.2239 29.4509C25.2239 29.7357 24.993 29.9666 24.7083 29.9666C24.4235 29.9666 24.1926 29.7357 24.1926 29.4509C24.1926 29.1662 24.4235 28.9353 24.7083 28.9353C24.993 28.9353 25.2239 29.1662 25.2239 29.4509Z" fill="#AA0E21"/>
<path d="M24.5652 26.3857C24.5652 26.6705 24.3343 26.9014 24.0496 26.9014C23.7648 26.9014 23.5339 26.6705 23.5339 26.3857C23.5339 26.101 23.7648 25.8701 24.0496 25.8701C24.3343 25.8701 24.5652 26.101 24.5652 26.3857Z" fill="#AA0E21"/>
<path d="M25.2527 24.8389C25.2527 25.0287 25.0988 25.1826 24.9089 25.1826C24.7191 25.1826 24.5652 25.0287 24.5652 24.8389C24.5652 24.649 24.7191 24.4951 24.9089 24.4951C25.0988 24.4951 25.2527 24.649 25.2527 24.8389Z" fill="#AA0E21"/>
<path d="M22.1875 32.3728C22.1875 32.5627 22.0336 32.7166 21.8437 32.7166C21.6539 32.7166 21.5 32.5627 21.5 32.3728C21.5 32.183 21.6539 32.0291 21.8437 32.0291C22.0336 32.0291 22.1875 32.183 22.1875 32.3728Z" fill="#AA0E21"/>
<path d="M20.0525 14.7762C23.5296 14.7762 26.3484 13.8379 26.3484 12.6806V12.1625C26.085 11.9676 25.4744 11.3891 25.1397 10.6353H14.8424C14.6193 11.1292 14.0256 11.8592 13.7566 12.1625V12.6806C13.7566 13.8379 16.5754 14.7762 20.0525 14.7762Z" fill="#BAF7FF"/>
<path fill-rule="evenodd" clip-rule="evenodd" d="M13.0066 12.1625C13.0066 11.9791 13.0738 11.8021 13.1955 11.6649C13.317 11.5278 13.519 11.2861 13.715 11.0227C13.9188 10.7487 14.0823 10.4962 14.159 10.3265C14.2803 10.0579 14.5477 9.88525 14.8424 9.88525H25.1397C25.4362 9.88525 25.7048 10.0599 25.8252 10.3309C26.0929 10.9339 26.6026 11.4176 26.7946 11.5597C26.9857 11.7011 27.0984 11.9248 27.0984 12.1625V12.6806C27.0984 13.2987 26.7214 13.7678 26.3174 14.0857C25.9049 14.4103 25.3545 14.6699 24.7412 14.874C23.5068 15.2849 21.8491 15.5262 20.0525 15.5262C18.2558 15.5262 16.5982 15.2849 15.3638 14.874C14.7505 14.6699 14.2001 14.4103 13.7875 14.0857C13.3836 13.7678 13.0066 13.2987 13.0066 12.6806V12.1625ZM14.8424 10.6353H25.1397C25.4744 11.3891 26.085 11.9676 26.3484 12.1625V12.6806C26.3484 13.8379 23.5296 14.7762 20.0525 14.7762C16.5754 14.7762 13.7566 13.8379 13.7566 12.6806V12.1625C14.0256 11.8592 14.6193 11.1292 14.8424 10.6353Z" fill="#65A6BA"/>
<path d="M26.3485 12.1625V12.6806C26.3485 13.5384 24.8 14.2758 22.5827 14.6001C22.0908 14.209 21.5002 13.2108 21.219 12.1625C21.219 12.1625 22.85 12.1359 23.7502 11.6874C24.3595 11.3839 25.1398 10.6353 25.1398 10.6353C25.4745 11.3891 26.085 11.9676 26.3485 12.1625Z" fill="#8EDFEA"/>
<path d="M25.1999 10.8488C25.1999 11.8744 22.8718 12.7058 20.0001 12.7058C17.1283 12.7058 14.8003 11.8744 14.8003 10.8488C14.8003 9.82314 17.1283 8.9917 20.0001 8.9917C22.8718 8.9917 25.1999 9.82314 25.1999 10.8488Z" fill="#9CD7DF"/>
<path fill-rule="evenodd" clip-rule="evenodd" d="M23.9291 12.8682C22.8879 13.2401 21.4987 13.4558 20.0001 13.4558C18.5015 13.4558 17.1123 13.2401 16.071 12.8682C15.5536 12.6834 15.0818 12.4459 14.7251 12.1447C14.3717 11.8463 14.0503 11.4116 14.0503 10.8488C14.0503 10.286 14.3717 9.8512 14.7251 9.55287C15.0818 9.25161 15.5536 9.01409 16.071 8.82931C17.1123 8.45743 18.5015 8.2417 20.0001 8.2417C21.4987 8.2417 22.8879 8.45743 23.9291 8.82931C24.4465 9.01409 24.9183 9.25161 25.2751 9.55287C25.6284 9.8512 25.9499 10.286 25.9499 10.8488C25.9499 11.4116 25.6284 11.8463 25.2751 12.1447C24.9183 12.4459 24.4465 12.6834 23.9291 12.8682ZM20.0001 12.7058C22.8718 12.7058 25.1999 11.8744 25.1999 10.8488C25.1999 9.82314 22.8718 8.9917 20.0001 8.9917C17.1283 8.9917 14.8003 9.82314 14.8003 10.8488C14.8003 11.8744 17.1283 12.7058 20.0001 12.7058Z" fill="#428EA6"/>
<path d="M19.661 10.7498C19.661 10.9963 19.1015 11.1961 18.4113 11.1961C17.7211 11.1961 17.1616 10.9963 17.1616 10.7498C17.1616 10.5033 17.7211 10.3035 18.4113 10.3035C19.1015 10.3035 19.661 10.5033 19.661 10.7498Z" fill="#BAF7FF"/>
<path fill-rule="evenodd" clip-rule="evenodd" d="M19.0599 11.1314C19.051 11.1333 19.042 11.1352 19.0329 11.1371C18.8499 11.1746 18.6376 11.1961 18.4113 11.1961C18.185 11.1961 17.9728 11.1746 17.7897 11.1371C17.7807 11.1352 17.7717 11.1333 17.7628 11.1314C17.4023 11.0531 17.1616 10.9115 17.1616 10.7498C17.1616 10.5881 17.4023 10.4465 17.7628 10.3682C17.7717 10.3663 17.7807 10.3644 17.7897 10.3625C17.9728 10.3249 18.185 10.3035 18.4113 10.3035C18.6376 10.3035 18.8499 10.3249 19.0329 10.3625C19.042 10.3644 19.051 10.3663 19.0599 10.3682C19.4203 10.4465 19.661 10.5881 19.661 10.7498C19.661 10.9115 19.4203 11.0531 19.0599 11.1314ZM19.5473 11.7717C19.2208 11.8883 18.8191 11.9461 18.4113 11.9461C18.0035 11.9461 17.6019 11.8883 17.2754 11.7717C17.1154 11.7146 16.9329 11.629 16.776 11.4966C16.6225 11.367 16.4116 11.1178 16.4116 10.7498C16.4116 10.3818 16.6225 10.1326 16.776 10.003C16.9329 9.87053 17.1154 9.78501 17.2754 9.72789C17.6019 9.61129 18.0035 9.55347 18.4113 9.55347C18.8191 9.55347 19.2208 9.61129 19.5473 9.72789C19.7072 9.78501 19.8898 9.87053 20.0467 10.003C20.2001 10.1326 20.411 10.3818 20.411 10.7498C20.411 11.1178 20.2001 11.367 20.0467 11.4966C19.8898 11.629 19.7072 11.7146 19.5473 11.7717Z" fill="#65A6BA"/>
<path fill-rule="evenodd" clip-rule="evenodd" d="M14.4848 12.7348C14.6313 12.5884 14.8687 12.5884 15.0152 12.7348C15.0509 12.7706 15.1364 12.8315 15.2879 12.9085C15.4326 12.982 15.6145 13.0587 15.8214 13.1339C16.2354 13.2843 16.7278 13.4209 17.179 13.5112C17.3821 13.5518 17.5138 13.7494 17.4732 13.9525C17.4326 14.1555 17.235 14.2872 17.0319 14.2466C16.5456 14.1494 16.0166 14.0028 15.5653 13.8388C15.3396 13.7568 15.128 13.6684 14.9482 13.5771C14.7753 13.4893 14.6053 13.3856 14.4848 13.2652C14.3384 13.1187 14.3384 12.8813 14.4848 12.7348Z" fill="#EBFDFF"/>
<path d="M17.1095 16.2473C16.2613 16.0776 15.4184 15.782 14.8289 15.5397C14.5727 15.4344 14.2812 15.6195 14.2812 15.8966V23.6846C14.2812 23.8244 14.3177 23.9633 14.4038 24.0735C14.9548 24.7788 16.0344 25.2512 16.9054 25.5145C17.352 25.6496 17.7734 25.2987 17.7734 24.8322V17.0239C17.7734 16.6413 17.4847 16.3223 17.1095 16.2473Z" fill="#FF495F"/>
<path fill-rule="evenodd" clip-rule="evenodd" d="M15.3125 16.5625C15.5196 16.5625 15.6875 16.7304 15.6875 16.9375V22.375C15.6875 22.5821 15.5196 22.75 15.3125 22.75C15.1054 22.75 14.9375 22.5821 14.9375 22.375V16.9375C14.9375 16.7304 15.1054 16.5625 15.3125 16.5625Z" fill="#FFB5BE"/>
<path d="M19.9625 27.9579C19.9625 28.3683 19.6298 28.701 19.2194 28.701C18.809 28.701 18.4763 28.3683 18.4763 27.9579C18.4763 27.5475 18.809 27.2148 19.2194 27.2148C19.6298 27.2148 19.9625 27.5475 19.9625 27.9579Z" fill="white"/>
<path d="M20.969 29.9181C20.969 30.1961 20.7437 30.4214 20.4657 30.4214C20.1877 30.4214 19.9624 30.1961 19.9624 29.9181C19.9624 29.6401 20.1877 29.4148 20.4657 29.4148C20.7437 29.4148 20.969 29.6401 20.969 29.9181Z" fill="white"/>
<path d="M21.622 25.4967C21.622 26.0644 21.1618 26.5246 20.5941 26.5246C20.0264 26.5246 19.5662 26.0644 19.5662 25.4967C19.5662 24.929 20.0264 24.4688 20.5941 24.4688C21.1618 24.4688 21.622 24.929 21.622 25.4967Z" fill="white"/>
<path d="M19.5202 22.8802C19.5202 23.5505 18.9768 24.0939 18.3065 24.0939C17.6362 24.0939 17.0928 23.5505 17.0928 22.8802C17.0928 22.2099 17.6362 21.6665 18.3065 21.6665C18.9768 21.6665 19.5202 22.2099 19.5202 22.8802Z" fill="white"/>
<path d="M22.6251 20.1749C22.6251 21.0709 21.8988 21.7973 21.0028 21.7973C20.1067 21.7973 19.3804 21.0709 19.3804 20.1749C19.3804 19.2789 20.1067 18.5525 21.0028 18.5525C21.8988 18.5525 22.6251 19.2789 22.6251 20.1749Z" fill="white"/>
<path d="M23.8438 18.5513C23.8438 17.4467 24.7392 16.5513 25.8438 16.5513H36.1338C37.2383 16.5513 38.1338 17.4467 38.1338 18.5513V36.1152C38.1338 37.2198 37.2383 38.1152 36.1338 38.1152H25.8438C24.7392 38.1152 23.8438 37.2198 23.8438 36.1152V18.5513Z" fill="#74421F"/>
<path fill-rule="evenodd" clip-rule="evenodd" d="M25.8437 15.8848H36.1337C37.6064 15.8848 38.8003 17.0787 38.8003 18.5514V36.1154C38.8003 37.5882 37.6064 38.7821 36.1337 38.7821H25.8437C24.3709 38.7821 23.177 37.5882 23.177 36.1154V18.5514C23.177 17.0787 24.3709 15.8848 25.8437 15.8848ZM25.8437 16.5514C24.7391 16.5514 23.8437 17.4469 23.8437 18.5514V36.1154C23.8437 37.22 24.7391 38.1154 25.8437 38.1154H36.1337C37.2382 38.1154 38.1337 37.22 38.1337 36.1154V18.5514C38.1337 17.4469 37.2382 16.5514 36.1337 16.5514H25.8437Z" fill="#3F1E07"/>
<path d="M24.8333 18.3334C24.8333 17.9652 25.1317 17.6667 25.4999 17.6667H27.7916C28.1598 17.6667 28.4583 17.9652 28.4583 18.3334V19.6667C28.4583 20.0349 28.1598 20.3334 27.7916 20.3334H25.4999C25.1317 20.3334 24.8333 20.0349 24.8333 19.6667V18.3334Z" fill="#A66335"/>
<path d="M24.8333 21.8334C24.8333 21.4652 25.1317 21.1667 25.4999 21.1667H27.7916C28.1598 21.1667 28.4583 21.4652 28.4583 21.8334V23.1667C28.4583 23.5349 28.1598 23.8334 27.7916 23.8334H25.4999C25.1317 23.8334 24.8333 23.5349 24.8333 23.1667V21.8334Z" fill="#A66335"/>
<path d="M24.8333 25.3334C24.8333 24.9652 25.1317 24.6667 25.4999 24.6667H27.7916C28.1598 24.6667 28.4583 24.9652 28.4583 25.3334V26.6667C28.4583 27.0349 28.1598 27.3334 27.7916 27.3334H25.4999C25.1317 27.3334 24.8333 27.0349 24.8333 26.6667V25.3334Z" fill="#A66335"/>
<path d="M24.8333 28.8334C24.8333 28.4652 25.1317 28.1667 25.4999 28.1667H27.7916C28.1598 28.1667 28.4583 28.4652 28.4583 28.8334V30.1667C28.4583 30.5349 28.1598 30.8334 27.7916 30.8334H25.4999C25.1317 30.8334 24.8333 30.5349 24.8333 30.1667V28.8334Z" fill="#A66335"/>
<path d="M29.1875 18.3334C29.1875 17.9652 29.486 17.6667 29.8542 17.6667H32.1458C32.514 17.6667 32.8125 17.9652 32.8125 18.3334V19.6667C32.8125 20.0349 32.514 20.3334 32.1458 20.3334H29.8542C29.486 20.3334 29.1875 20.0349 29.1875 19.6667V18.3334Z" fill="#A66335"/>
<path d="M29.1875 21.8334C29.1875 21.4652 29.486 21.1667 29.8542 21.1667H32.1458C32.514 21.1667 32.8125 21.4652 32.8125 21.8334V23.1667C32.8125 23.5349 32.514 23.8334 32.1458 23.8334H29.8542C29.486 23.8334 29.1875 23.5349 29.1875 23.1667V21.8334Z" fill="#A66335"/>
<path d="M29.1875 25.3334C29.1875 24.9652 29.486 24.6667 29.8542 24.6667H32.1458C32.514 24.6667 32.8125 24.9652 32.8125 25.3334V26.6667C32.8125 27.0349 32.514 27.3334 32.1458 27.3334H29.8542C29.486 27.3334 29.1875 27.0349 29.1875 26.6667V25.3334Z" fill="#A66335"/>
<path d="M29.1875 28.8334C29.1875 28.4652 29.486 28.1667 29.8542 28.1667H32.1458C32.514 28.1667 32.8125 28.4652 32.8125 28.8334V30.1667C32.8125 30.5349 32.514 30.8334 32.1458 30.8334H29.8542C29.486 30.8334 29.1875 30.5349 29.1875 30.1667V28.8334Z" fill="#A66335"/>
<path d="M33.5417 18.3334C33.5417 17.9652 33.8402 17.6667 34.2084 17.6667H36.5001C36.8683 17.6667 37.1667 17.9652 37.1667 18.3334V19.6667C37.1667 20.0349 36.8683 20.3334 36.5001 20.3334H34.2084C33.8402 20.3334 33.5417 20.0349 33.5417 19.6667V18.3334Z" fill="#A66335"/>
<path d="M33.5417 21.8334C33.5417 21.4652 33.8402 21.1667 34.2084 21.1667H36.5001C36.8683 21.1667 37.1667 21.4652 37.1667 21.8334V23.1667C37.1667 23.5349 36.8683 23.8334 36.5001 23.8334H34.2084C33.8402 23.8334 33.5417 23.5349 33.5417 23.1667V21.8334Z" fill="#A66335"/>
<path d="M33.5417 25.3334C33.5417 24.9652 33.8402 24.6667 34.2084 24.6667H36.5001C36.8683 24.6667 37.1667 24.9652 37.1667 25.3334V26.6667C37.1667 27.0349 36.8683 27.3334 36.5001 27.3334H34.2084C33.8402 27.3334 33.5417 27.0349 33.5417 26.6667V25.3334Z" fill="#A66335"/>
<path d="M33.5417 28.8334C33.5417 28.4652 33.8402 28.1667 34.2084 28.1667H36.5001C36.8683 28.1667 37.1667 28.4652 37.1667 28.8334V30.1667C37.1667 30.5349 36.8683 30.8334 36.5001 30.8334H34.2084C33.8402 30.8334 33.5417 30.5349 33.5417 30.1667V28.8334Z" fill="#A66335"/>
<path fill-rule="evenodd" clip-rule="evenodd" d="M25.2083 21.9583C25.2083 21.7742 25.3575 21.625 25.5416 21.625H26.8541C27.0382 21.625 27.1874 21.7742 27.1874 21.9583C27.1874 22.1424 27.0382 22.2917 26.8541 22.2917H25.5416C25.3575 22.2917 25.2083 22.1424 25.2083 21.9583Z" fill="#CF814B"/>
<path fill-rule="evenodd" clip-rule="evenodd" d="M29.6458 18.3228C29.6458 18.1387 29.795 17.9895 29.9791 17.9895H31.2916C31.4757 17.9895 31.6249 18.1387 31.6249 18.3228C31.6249 18.5069 31.4757 18.6562 31.2916 18.6562H29.9791C29.795 18.6562 29.6458 18.5069 29.6458 18.3228Z" fill="#CF814B"/>
<path fill-rule="evenodd" clip-rule="evenodd" d="M33.8958 18.3228C33.8958 18.1387 34.045 17.9895 34.2291 17.9895H35.5416C35.7257 17.9895 35.8749 18.1387 35.8749 18.3228C35.8749 18.5069 35.7257 18.6562 35.5416 18.6562H34.2291C34.045 18.6562 33.8958 18.5069 33.8958 18.3228Z" fill="#CF814B"/>
<path fill-rule="evenodd" clip-rule="evenodd" d="M25.2083 18.3228C25.2083 18.1387 25.3575 17.9895 25.5416 17.9895H26.8541C27.0382 17.9895 27.1874 18.1387 27.1874 18.3228C27.1874 18.5069 27.0382 18.6562 26.8541 18.6562H25.5416C25.3575 18.6562 25.2083 18.5069 25.2083 18.3228Z" fill="#CF814B"/>
<path fill-rule="evenodd" clip-rule="evenodd" d="M27.9166 25.8594C28.1007 25.8594 28.2499 26.0086 28.2499 26.1927V26.4896C28.2499 26.8578 27.9514 27.1563 27.5833 27.1563H26.9791C26.795 27.1563 26.6458 27.007 26.6458 26.8229C26.6458 26.6388 26.795 26.4896 26.9791 26.4896H27.5833V26.1927C27.5833 26.0086 27.7325 25.8594 27.9166 25.8594Z" fill="#965224"/>
<path fill-rule="evenodd" clip-rule="evenodd" d="M27.9166 29.3516C28.1007 29.3516 28.2499 29.5008 28.2499 29.6849V29.9818C28.2499 30.35 27.9514 30.6484 27.5833 30.6484H26.9791C26.795 30.6484 26.6458 30.4992 26.6458 30.3151C26.6458 30.131 26.795 29.9818 26.9791 29.9818H27.5833V29.6849C27.5833 29.5008 27.7325 29.3516 27.9166 29.3516Z" fill="#965224"/>
<path fill-rule="evenodd" clip-rule="evenodd" d="M32.2396 29.4141C32.4237 29.4141 32.5729 29.5633 32.5729 29.7474V30.0443C32.5729 30.4125 32.2744 30.7109 31.9062 30.7109H31.3021C31.118 30.7109 30.9688 30.5617 30.9688 30.3776C30.9688 30.1935 31.118 30.0443 31.3021 30.0443H31.9062V29.7474C31.9062 29.5633 32.0555 29.4141 32.2396 29.4141Z" fill="#965224"/>
<path fill-rule="evenodd" clip-rule="evenodd" d="M32.2396 25.8594C32.4237 25.8594 32.5729 26.0086 32.5729 26.1927V26.4896C32.5729 26.8578 32.2744 27.1563 31.9062 27.1563H31.3021C31.118 27.1563 30.9688 27.007 30.9688 26.8229C30.9688 26.6388 31.118 26.4896 31.3021 26.4896H31.9062V26.1927C31.9062 26.0086 32.0555 25.8594 32.2396 25.8594Z" fill="#965224"/>
<path fill-rule="evenodd" clip-rule="evenodd" d="M36.6563 25.8594C36.8404 25.8594 36.9897 26.0086 36.9897 26.1927V26.4896C36.9897 26.8578 36.6912 27.1563 36.323 27.1563H35.7188C35.5347 27.1563 35.3855 27.007 35.3855 26.8229C35.3855 26.6388 35.5347 26.4896 35.7188 26.4896H36.323V26.1927C36.323 26.0086 36.4722 25.8594 36.6563 25.8594Z" fill="#965224"/>
<path fill-rule="evenodd" clip-rule="evenodd" d="M36.6563 22.3672C36.8404 22.3672 36.9897 22.5164 36.9897 22.7005V22.9974C36.9897 23.3656 36.6912 23.6641 36.323 23.6641H35.7188C35.5347 23.6641 35.3855 23.5148 35.3855 23.3307C35.3855 23.1466 35.5347 22.9974 35.7188 22.9974H36.323V22.7005C36.323 22.5164 36.4722 22.3672 36.6563 22.3672Z" fill="#965224"/>
<path fill-rule="evenodd" clip-rule="evenodd" d="M32.2396 22.3049C32.4237 22.3049 32.5729 22.4542 32.5729 22.6383V22.9351C32.5729 23.3033 32.2744 23.6018 31.9062 23.6018H31.3021C31.118 23.6018 30.9688 23.4526 30.9688 23.2685C30.9688 23.0844 31.118 22.9351 31.3021 22.9351H31.9062V22.6383C31.9062 22.4542 32.0555 22.3049 32.2396 22.3049Z" fill="#965224"/>
<path fill-rule="evenodd" clip-rule="evenodd" d="M36.5521 29.3516C36.7362 29.3516 36.8854 29.5008 36.8854 29.6849V29.9818C36.8854 30.35 36.5869 30.6484 36.2187 30.6484H35.6146C35.4305 30.6484 35.2812 30.4992 35.2812 30.3151C35.2812 30.131 35.4305 29.9818 35.6146 29.9818H36.2187V29.6849C36.2187 29.5008 36.368 29.3516 36.5521 29.3516Z" fill="#965224"/>
<path d="M22.7605 32.7181C22.7605 31.9817 23.3575 31.3848 24.0938 31.3848H38.0938C38.8302 31.3848 39.4272 31.9817 39.4272 32.7181V39.4487C39.4272 40.1851 38.8302 40.7821 38.0938 40.7821H24.0938C23.3575 40.7821 22.7605 40.1851 22.7605 39.4487V32.7181Z" fill="#EE4129"/>
<path fill-rule="evenodd" clip-rule="evenodd" d="M24.0938 30.718H38.0938C39.1983 30.718 40.0938 31.6134 40.0938 32.718V39.4487C40.0938 40.5532 39.1983 41.4487 38.0938 41.4487H24.0937C22.9892 41.4487 22.0938 40.5532 22.0938 39.4487V32.718C22.0938 31.6134 22.9892 30.718 24.0938 30.718ZM24.0938 31.3847C23.3574 31.3847 22.7604 31.9816 22.7604 32.718V39.4487C22.7604 40.185 23.3574 40.782 24.0937 40.782H38.0938C38.8301 40.782 39.4271 40.185 39.4271 39.4487V32.718C39.4271 31.9816 38.8301 31.3847 38.0938 31.3847H24.0938Z" fill="#8D1C0D"/>
<path fill-rule="evenodd" clip-rule="evenodd" d="M23.6666 35.7083C23.8507 35.7083 23.9999 35.8575 23.9999 36.0416V39.0208C23.9999 39.2048 24.1492 39.3541 24.3333 39.3541H27.1666C27.3507 39.3541 27.4999 39.5033 27.4999 39.6874C27.4999 39.8715 27.3507 40.0208 27.1666 40.0208H24.3333C23.781 40.0208 23.3333 39.573 23.3333 39.0208V36.0416C23.3333 35.8575 23.4825 35.7083 23.6666 35.7083Z" fill="#FE6955"/>
<path d="M37.198 39.0417C37.198 39.3524 36.9601 39.6042 36.6667 39.6042C36.3733 39.6042 36.1355 39.3524 36.1355 39.0417C36.1355 38.7311 36.3733 38.4792 36.6667 38.4792C36.9601 38.4792 37.198 38.7311 37.198 39.0417Z" fill="#D2220A"/>
<path d="M38.9775 38.5949C38.9775 38.8416 38.7887 39.0416 38.5557 39.0416C38.3227 39.0416 38.1338 38.8416 38.1338 38.5949C38.1338 38.3482 38.3227 38.1482 38.5557 38.1482C38.7887 38.1482 38.9775 38.3482 38.9775 38.5949Z" fill="#D2220A"/>
<path d="M37.4255 37.3337C37.4255 37.5804 37.2367 37.7803 37.0037 37.7803C36.7707 37.7803 36.5818 37.5804 36.5818 37.3337C36.5818 37.087 36.7707 36.887 37.0037 36.887C37.2367 36.887 37.4255 37.087 37.4255 37.3337Z" fill="#D2220A"/>
<path d="M35.3943 38.7297C35.3943 38.9764 35.2054 39.1763 34.9724 39.1763C34.7394 39.1763 34.5505 38.9764 34.5505 38.7297C34.5505 38.4829 34.7394 38.283 34.9724 38.283C35.2054 38.283 35.3943 38.4829 35.3943 38.7297Z" fill="#D2220A"/>
<path d="M32.738 39.7709C32.738 40.0176 32.5492 40.2176 32.3162 40.2176C32.0832 40.2176 31.8943 40.0176 31.8943 39.7709C31.8943 39.5242 32.0832 39.3242 32.3162 39.3242C32.5492 39.3242 32.738 39.5242 32.738 39.7709Z" fill="#D2220A"/>
<path d="M38.3318 39.9895C38.3318 40.1448 38.2129 40.2708 38.0662 40.2708C37.9195 40.2708 37.8005 40.1448 37.8005 39.9895C37.8005 39.8342 37.9195 39.7083 38.0662 39.7083C38.2129 39.7083 38.3318 39.8342 38.3318 39.9895Z" fill="#D2220A"/>
<path d="M33.8213 38.6611C33.8213 38.7799 33.7303 38.8762 33.6182 38.8762C33.506 38.8762 33.415 38.7799 33.415 38.6611C33.415 38.5423 33.506 38.446 33.6182 38.446C33.7303 38.446 33.8213 38.5423 33.8213 38.6611Z" fill="#D2220A"/>
<path d="M36.1355 37.5654C36.1355 37.6842 36.0446 37.7805 35.9324 37.7805C35.8202 37.7805 35.7292 37.6842 35.7292 37.5654C35.7292 37.4466 35.8202 37.3503 35.9324 37.3503C36.0446 37.3503 36.1355 37.4466 36.1355 37.5654Z" fill="#D2220A"/>
<path d="M37.4255 36.0832C37.4255 36.202 37.3346 36.2983 37.2224 36.2983C37.1102 36.2983 37.0193 36.202 37.0193 36.0832C37.0193 35.9645 37.1102 35.8682 37.2224 35.8682C37.3346 35.8682 37.4255 35.9645 37.4255 36.0832Z" fill="#D2220A"/>
<path d="M39.1807 35.9792C39.1807 36.098 39.0897 36.1943 38.9775 36.1943C38.8654 36.1943 38.7744 36.098 38.7744 35.9792C38.7744 35.8605 38.8654 35.7642 38.9775 35.7642C39.0897 35.7642 39.1807 35.8605 39.1807 35.9792Z" fill="#D2220A"/>
<path d="M39.2432 34.8645C39.2432 34.9833 39.1522 35.0796 39.04 35.0796C38.9279 35.0796 38.8369 34.9833 38.8369 34.8645C38.8369 34.7457 38.9279 34.6494 39.04 34.6494C39.1522 34.6494 39.2432 34.7457 39.2432 34.8645Z" fill="#D2220A"/>
<path d="M38.2693 35.9792C38.2693 36.098 38.1783 36.1943 38.0662 36.1943C37.954 36.1943 37.863 36.098 37.863 35.9792C37.863 35.8605 37.954 35.7642 38.0662 35.7642C38.1783 35.7642 38.2693 35.8605 38.2693 35.9792Z" fill="#D2220A"/>
<path d="M37.8005 38.2309C37.8005 38.3497 37.7096 38.446 37.5974 38.446C37.4852 38.446 37.3943 38.3497 37.3943 38.2309C37.3943 38.1122 37.4852 38.0159 37.5974 38.0159C37.7096 38.0159 37.8005 38.1122 37.8005 38.2309Z" fill="#D2220A"/>
<path d="M35.0662 37.6789C35.0662 37.7977 34.9752 37.894 34.863 37.894C34.7509 37.894 34.6599 37.7977 34.6599 37.6789C34.6599 37.5602 34.7509 37.4639 34.863 37.4639C34.9752 37.4639 35.0662 37.5602 35.0662 37.6789Z" fill="#D2220A"/>
<path d="M31.1919 40.052C31.1919 40.1708 31.101 40.2671 30.9888 40.2671C30.8766 40.2671 30.7856 40.1708 30.7856 40.052C30.7856 39.9332 30.8766 39.8369 30.9888 39.8369C31.101 39.8369 31.1919 39.9332 31.1919 40.052Z" fill="#D2220A"/>
<path d="M35.3943 40.052C35.3943 40.2073 35.2754 40.3333 35.1287 40.3333C34.982 40.3333 34.863 40.2073 34.863 40.052C34.863 39.8967 34.982 39.7708 35.1287 39.7708C35.2754 39.7708 35.3943 39.8967 35.3943 40.052Z" fill="#D2220A"/>
<path d="M33.8213 39.7708C33.8213 39.9261 33.7024 40.052 33.5557 40.052C33.409 40.052 33.29 39.9261 33.29 39.7708C33.29 39.6154 33.409 39.4895 33.5557 39.4895C33.7024 39.4895 33.8213 39.6154 33.8213 39.7708Z" fill="#D2220A"/>
<path d="M38.5835 36.8869C38.5835 37.0702 38.4432 37.2187 38.2701 37.2187C38.0971 37.2187 37.9568 37.0702 37.9568 36.8869C37.9568 36.7037 38.0971 36.5552 38.2701 36.5552C38.4432 36.5552 38.5835 36.7037 38.5835 36.8869Z" fill="#D2220A"/>
<path d="M38.0938 31.3848H24.0938C23.3575 31.3848 22.7605 31.9817 22.7605 32.7181V35.4168L25.9376 34.5417L30.4792 35.7292L34.9376 34.6667L39.4272 36.0834V32.7181C39.4272 31.9817 38.8302 31.3848 38.0938 31.3848Z" fill="#B61C2E"/>
<path d="M23.7812 29.0929L22.052 29.6971L21.2395 32.3221L22.552 33.8429L25.927 32.7179L30.4478 33.8429L34.7187 32.7179L39.5728 33.6346L40.7603 31.6138L40.3228 29.2596L38.302 29.3638L36.1978 28.5513L32.4478 29.6971L29.8437 28.7804L25.7395 29.5304L23.7812 29.0929Z" fill="#FFF5C1"/>
<path fill-rule="evenodd" clip-rule="evenodd" d="M21.4153 29.5001C21.4779 29.2981 21.6326 29.1377 21.8323 29.0679L23.5614 28.4637C23.6788 28.4227 23.8053 28.4154 23.9267 28.4425L25.753 28.8505L29.724 28.1248C29.8381 28.1039 29.9557 28.1132 30.0652 28.1518L32.4627 28.9957L36.0032 27.9139C36.1458 27.8703 36.299 27.8758 36.4382 27.9295L38.4098 28.6908L40.2887 28.594C40.6225 28.5768 40.9174 28.8094 40.9785 29.138L41.416 31.4921C41.4453 31.65 41.4167 31.8132 41.3353 31.9517L40.1478 33.9725C40.0052 34.2151 39.7258 34.3421 39.4493 34.2899L34.7431 33.4011L30.6178 34.4878C30.5095 34.5163 30.3957 34.5171 30.287 34.49L25.9542 33.4118L22.763 34.4756C22.5066 34.561 22.224 34.4832 22.0475 34.2787L20.735 32.7578C20.5848 32.5838 20.5349 32.3447 20.6028 32.1251L21.4153 29.5001ZM25.9272 32.7181L30.448 33.8431L34.7188 32.7181L39.573 33.6348L40.7605 31.6139L40.323 29.2598L38.3022 29.3639L36.198 28.5514L32.448 29.6973L29.8438 28.7806L25.7397 29.5306L23.7813 29.0931L22.0522 29.6973L21.2397 32.3223L22.5522 33.8431L25.9272 32.7181Z" fill="#CE9266"/>
<path fill-rule="evenodd" clip-rule="evenodd" d="M29.4013 29.525C29.4564 29.7007 29.3588 29.8878 29.1831 29.9429L25.9331 30.9638C25.874 30.9824 25.8109 30.9841 25.7508 30.9687L23.9085 30.4984L22.9543 30.9474C22.7878 31.0258 22.5892 30.9543 22.5108 30.7877C22.4324 30.6211 22.5039 30.4225 22.6705 30.3442L23.733 29.8442C23.803 29.8112 23.8824 29.8036 23.9574 29.8228L25.8238 30.2993L28.9834 29.3069C29.159 29.2517 29.3461 29.3494 29.4013 29.525Z" fill="white"/>
<path d="M24.3333 31.6139L22.8124 32.3222H21.2395L22.552 33.843L25.927 32.718L30.4478 33.843L34.7187 32.718L39.5728 33.6347L40.7603 31.6139L40.5416 30.4368L39.2916 31.6139H38.0208L35.8749 30.6458L33.4374 31.2292L31.1041 31.8958L28.6666 31.2292L27.3958 32.1875L24.3333 31.6139Z" fill="#EAD076"/>
</svg>
