<svg width="48" height="48" viewBox="0 0 48 48" fill="none" xmlns="http://www.w3.org/2000/svg">
<path d="M24.0625 41.8444C28.2194 41.8444 31.5893 40.6409 31.5893 39.1562C31.6381 38.8813 31.9668 38.1875 32.25 38H15.75C16.15 38.2 16.3571 38.9375 16.5357 39.1562C16.5357 40.6409 19.9056 41.8444 24.0625 41.8444Z" fill="#77BCD1"/>
<path fill-rule="evenodd" clip-rule="evenodd" d="M32.2499 38C32.0109 38.1582 31.7396 38.6766 31.6313 39C31.6113 39.06 31.5968 39.1132 31.5891 39.1562C31.5891 40.6409 28.2193 41.8444 24.0624 41.8444C19.9054 41.8444 16.5356 40.6409 16.5356 39.1562C16.5044 39.1181 16.4724 39.0641 16.4386 39C16.4087 38.9432 16.3774 38.8784 16.3442 38.8094C16.1998 38.5104 16.0182 38.1342 15.7499 38H32.2499ZM15.5619 39.4813C15.5379 39.4362 15.5159 39.3924 15.4967 39.3535C15.4728 39.305 15.4529 39.2636 15.4345 39.2254C15.4024 39.1589 15.3751 39.1023 15.3401 39.0354C15.2932 38.9461 15.258 38.8896 15.2329 38.856C14.8638 38.6334 14.6762 38.1956 14.7766 37.7702C14.8832 37.3189 15.2861 37 15.7499 37H32.2499C32.6911 37 33.0802 37.2892 33.2074 37.7118C33.3288 38.1151 33.1842 38.5488 32.8509 38.7992C32.8467 38.8044 32.8415 38.811 32.8355 38.8191C32.8015 38.8646 32.7585 38.9326 32.7134 39.0169C32.6691 39.0997 32.6309 39.1833 32.6033 39.2531C32.5948 39.2747 32.5884 39.2921 32.5836 39.3057C32.5312 40.0139 32.1114 40.5709 31.6428 40.9666C31.137 41.3937 30.4645 41.7332 29.7209 41.9988C28.2251 42.533 26.2244 42.8444 24.0624 42.8444C21.9003 42.8444 19.8996 42.533 18.4038 41.9988C17.6602 41.7332 16.9877 41.3937 16.4819 40.9666C16.0527 40.6042 15.6645 40.1065 15.5619 39.4813Z" fill="#65A6BA"/>
<path d="M32.4642 11.0234H15.5356V37.5499C15.5356 38.6753 19.3252 40.0876 23.9999 40.0876C28.6746 40.0876 32.4642 38.6753 32.4642 37.5499V11.0234Z" fill="#E3283F"/>
<path fill-rule="evenodd" clip-rule="evenodd" d="M14.5356 11.0234C14.5356 10.4712 14.9834 10.0234 15.5356 10.0234H32.4642C33.0165 10.0234 33.4642 10.4712 33.4642 11.0234V37.5499C33.4642 37.9798 33.2832 38.3344 33.0844 38.5925C32.8855 38.8505 32.6283 39.067 32.3606 39.2487C31.8247 39.6123 31.1072 39.9297 30.2919 40.1925C28.65 40.7218 26.4291 41.0876 23.9999 41.0876C21.5707 41.0876 19.3499 40.7218 17.708 40.1925C16.8926 39.9297 16.1752 39.6123 15.6393 39.2487C15.3716 39.067 15.1143 38.8505 14.9155 38.5925C14.7167 38.3344 14.5356 37.9798 14.5356 37.5499V11.0234ZM32.4642 11.0234V37.5499C32.4642 38.6753 28.6746 40.0876 23.9999 40.0876C19.3252 40.0876 15.5356 38.6753 15.5356 37.5499V11.0234H32.4642Z" fill="#65A6BA"/>
<path d="M32.4643 37.5499V11.262H27.5V39.4058C30.4283 39.0852 32.4643 38.3748 32.4643 37.5499Z" fill="#C61A2F"/>
<path d="M29.7049 37.4103C29.7049 37.9166 29.2945 38.327 28.7882 38.327C28.282 38.327 27.8716 37.9166 27.8716 37.4103C27.8716 36.9041 28.282 36.4937 28.7882 36.4937C29.2945 36.4937 29.7049 36.9041 29.7049 37.4103Z" fill="#AA0E21"/>
<path d="M31.5 36.2263C31.5 36.606 31.1922 36.9138 30.8125 36.9138C30.4328 36.9138 30.125 36.606 30.125 36.2263C30.125 35.8466 30.4328 35.5388 30.8125 35.5388C31.1922 35.5388 31.5 35.8466 31.5 36.2263Z" fill="#AA0E21"/>
<path d="M28.7119 34.8894C28.7119 35.2691 28.4041 35.5769 28.0244 35.5769C27.6447 35.5769 27.3369 35.2691 27.3369 34.8894C27.3369 34.5097 27.6447 34.2019 28.0244 34.2019C28.4041 34.2019 28.7119 34.5097 28.7119 34.8894Z" fill="#AA0E21"/>
<path d="M31.4619 31.6812C31.4619 32.0608 31.1541 32.3687 30.7744 32.3687C30.3947 32.3687 30.0869 32.0608 30.0869 31.6812C30.0869 31.3015 30.3947 30.9937 30.7744 30.9937C31.1541 30.9937 31.4619 31.3015 31.4619 31.6812Z" fill="#AA0E21"/>
<path d="M29.6286 32.3685C29.6286 32.6216 29.4234 32.8268 29.1702 32.8268C28.9171 32.8268 28.7119 32.6216 28.7119 32.3685C28.7119 32.1154 28.9171 31.9102 29.1702 31.9102C29.4234 31.9102 29.6286 32.1154 29.6286 32.3685Z" fill="#AA0E21"/>
<path d="M31.4618 29.6185C31.4618 29.8716 31.2566 30.0768 31.0035 30.0768C30.7504 30.0768 30.5452 29.8716 30.5452 29.6185C30.5452 29.3654 30.7504 29.1602 31.0035 29.1602C31.2566 29.1602 31.4618 29.3654 31.4618 29.6185Z" fill="#AA0E21"/>
<path d="M30.9653 33.9346C30.9653 34.3143 30.6575 34.6221 30.2778 34.6221C29.8981 34.6221 29.5903 34.3143 29.5903 33.9346C29.5903 33.5549 29.8981 33.2471 30.2778 33.2471C30.6575 33.2471 30.9653 33.5549 30.9653 33.9346Z" fill="#AA0E21"/>
<path d="M30.0869 29.8477C30.0869 30.2274 29.7791 30.5352 29.3994 30.5352C29.0197 30.5352 28.7119 30.2274 28.7119 29.8477C28.7119 29.468 29.0197 29.1602 29.3994 29.1602C29.7791 29.1602 30.0869 29.468 30.0869 29.8477Z" fill="#AA0E21"/>
<path d="M31.0036 27.7852C31.0036 28.0384 30.7984 28.2436 30.5452 28.2436C30.2921 28.2436 30.0869 28.0384 30.0869 27.7852C30.0869 27.5321 30.2921 27.3269 30.5452 27.3269C30.7984 27.3269 31.0036 27.5321 31.0036 27.7852Z" fill="#AA0E21"/>
<path d="M26.9167 37.8304C26.9167 38.0835 26.7115 38.2887 26.4583 38.2887C26.2052 38.2887 26 38.0835 26 37.8304C26 37.5773 26.2052 37.3721 26.4583 37.3721C26.7115 37.3721 26.9167 37.5773 26.9167 37.8304Z" fill="#AA0E21"/>
<path d="M24.0696 14.3684C28.7058 14.3684 32.4641 13.1174 32.4641 11.5742V10.8835C32.1129 10.6236 31.2988 9.85236 30.8525 8.84717H17.1229C16.8253 9.50574 16.0337 10.4792 15.675 10.8835V11.5742C15.675 13.1174 19.4334 14.3684 24.0696 14.3684Z" fill="#BAF7FF"/>
<path fill-rule="evenodd" clip-rule="evenodd" d="M14.675 10.8835C14.675 10.639 14.7646 10.403 14.9269 10.22C15.089 10.0373 15.3582 9.71497 15.6196 9.36374C15.8914 8.99843 16.1093 8.66173 16.2115 8.43546C16.3733 8.07733 16.7299 7.84717 17.1229 7.84717H30.8525C31.2478 7.84717 31.6061 8.08006 31.7665 8.44138C32.1235 9.24542 32.8031 9.89036 33.059 10.0798C33.3138 10.2683 33.4641 10.5666 33.4641 10.8835V11.5742C33.4641 12.3984 32.9615 13.0239 32.4229 13.4477C31.8728 13.8806 31.1389 14.2267 30.3212 14.4988C28.6753 15.0467 26.4651 15.3684 24.0696 15.3684C21.674 15.3684 19.4638 15.0467 17.8179 14.4988C17.0002 14.2267 16.2663 13.8806 15.7163 13.4477C15.1777 13.0239 14.675 12.3984 14.675 11.5742V10.8835ZM17.1229 8.84717H30.8525C31.2988 9.85236 32.1129 10.6236 32.4641 10.8835V11.5742C32.4641 13.1174 28.7058 14.3684 24.0696 14.3684C19.4334 14.3684 15.675 13.1174 15.675 11.5742V10.8835C16.0337 10.4792 16.8253 9.50574 17.1229 8.84717Z" fill="#65A6BA"/>
<path d="M32.4643 10.8835V11.5742C32.4643 12.718 30.3997 13.7013 27.4433 14.1336C26.7875 13.6122 26 12.2812 25.625 10.8835C25.625 10.8835 27.7997 10.848 29 10.25C29.8123 9.84532 30.8527 8.84717 30.8527 8.84717C31.299 9.85236 32.113 10.6236 32.4643 10.8835Z" fill="#8EDFEA"/>
<path d="M30.933 9.13185C30.933 10.4994 27.829 11.6079 23.9999 11.6079C20.1709 11.6079 17.0669 10.4994 17.0669 9.13185C17.0669 7.76434 20.1709 6.65576 23.9999 6.65576C27.829 6.65576 30.933 7.76434 30.933 9.13185Z" fill="#9CD7DF"/>
<path fill-rule="evenodd" clip-rule="evenodd" d="M29.2387 11.8244C27.8503 12.3203 25.998 12.6079 23.9999 12.6079C22.0018 12.6079 20.1496 12.3203 18.7612 11.8244C18.0714 11.5781 17.4423 11.2614 16.9666 10.8597C16.4955 10.4619 16.0669 9.88223 16.0669 9.13185C16.0669 8.38146 16.4955 7.80176 16.9666 7.40399C17.4423 7.0023 18.0714 6.68562 18.7612 6.43925C20.1496 5.9434 22.0018 5.65576 23.9999 5.65576C25.998 5.65576 27.8503 5.9434 29.2387 6.43925C29.9285 6.68562 30.5576 7.0023 31.0333 7.40399C31.5044 7.80176 31.933 8.38146 31.933 9.13185C31.933 9.88223 31.5044 10.4619 31.0333 10.8597C30.5576 11.2614 29.9285 11.5781 29.2387 11.8244ZM23.9999 11.6079C27.829 11.6079 30.933 10.4994 30.933 9.13185C30.933 7.76434 27.829 6.65576 23.9999 6.65576C20.1709 6.65576 17.0669 7.76434 17.0669 9.13185C17.0669 10.4994 20.1709 11.6079 23.9999 11.6079Z" fill="#428EA6"/>
<path d="M23.5479 8.99964C23.5479 9.3283 22.8019 9.59474 21.8816 9.59474C20.9613 9.59474 20.2153 9.3283 20.2153 8.99964C20.2153 8.67098 20.9613 8.40454 21.8816 8.40454C22.8019 8.40454 23.5479 8.67098 23.5479 8.99964Z" fill="#BAF7FF"/>
<path fill-rule="evenodd" clip-rule="evenodd" d="M22.7464 9.50842C22.7345 9.511 22.7225 9.51353 22.7104 9.51601C22.4663 9.5661 22.1833 9.59474 21.8816 9.59474C21.5799 9.59474 21.2969 9.5661 21.0528 9.51601C21.0407 9.51353 21.0287 9.51101 21.0169 9.50842C20.5363 9.40402 20.2153 9.21522 20.2153 8.99964C20.2153 8.78406 20.5363 8.59526 21.0169 8.49085C21.0287 8.48827 21.0407 8.48574 21.0528 8.48327C21.2969 8.43318 21.5799 8.40454 21.8816 8.40454C22.1833 8.40454 22.4663 8.43318 22.7104 8.48327C22.7225 8.48574 22.7345 8.48827 22.7464 8.49085C23.2269 8.59526 23.5479 8.78406 23.5479 8.99964C23.5479 9.21522 23.2269 9.40402 22.7464 9.50842ZM23.3962 10.3622C22.9609 10.5176 22.4253 10.5947 21.8816 10.5947C21.3379 10.5947 20.8023 10.5176 20.367 10.3622C20.1538 10.286 19.9103 10.172 19.7011 9.99533C19.4966 9.8226 19.2153 9.49031 19.2153 8.99964C19.2153 8.50896 19.4966 8.17668 19.7011 8.00395C19.9103 7.8273 20.1538 7.71327 20.367 7.6371C20.8023 7.48164 21.3379 7.40454 21.8816 7.40454C22.4253 7.40454 22.9609 7.48164 23.3962 7.6371C23.6095 7.71327 23.8529 7.8273 24.0621 8.00395C24.2667 8.17668 24.5479 8.50896 24.5479 8.99964C24.5479 9.49031 24.2667 9.8226 24.0621 9.99533C23.8529 10.172 23.6095 10.286 23.3962 10.3622Z" fill="#65A6BA"/>
<path fill-rule="evenodd" clip-rule="evenodd" d="M16.6464 11.6464C16.8417 11.4512 17.1583 11.4512 17.3536 11.6464C17.4013 11.6942 17.5151 11.7753 17.7171 11.8779C17.9101 11.9759 18.1526 12.0782 18.4286 12.1785C18.9805 12.3791 19.6371 12.5613 20.2387 12.6816C20.5095 12.7357 20.6851 12.9992 20.6309 13.2699C20.5768 13.5407 20.3133 13.7163 20.0426 13.6622C19.3942 13.5325 18.6888 13.3371 18.087 13.1184C17.7862 13.009 17.504 12.8912 17.2643 12.7695C17.0337 12.6524 16.8071 12.5142 16.6464 12.3536C16.4512 12.1583 16.4512 11.8417 16.6464 11.6464Z" fill="#EBFDFF"/>
<path d="M20.146 16.3295C19.0151 16.1033 17.8912 15.7092 17.1052 15.3861C16.7636 15.2457 16.375 15.4925 16.375 15.8619V26.246C16.375 26.4324 16.4236 26.6176 16.5383 26.7645C17.2731 27.7049 18.7125 28.3347 19.8739 28.6859C20.4693 28.8659 21.0312 28.3981 21.0312 27.7761V17.365C21.0312 16.8549 20.6462 16.4296 20.146 16.3295Z" fill="#FF495F"/>
<path fill-rule="evenodd" clip-rule="evenodd" d="M17.75 16.75C18.0261 16.75 18.25 16.9739 18.25 17.25V24.5C18.25 24.7761 18.0261 25 17.75 25C17.4739 25 17.25 24.7761 17.25 24.5V17.25C17.25 16.9739 17.4739 16.75 17.75 16.75Z" fill="#FFB5BE"/>
<path d="M23.9496 31.9439C23.9496 32.4911 23.506 32.9347 22.9588 32.9347C22.4116 32.9347 21.968 32.4911 21.968 31.9439C21.968 31.3967 22.4116 30.9531 22.9588 30.9531C23.506 30.9531 23.9496 31.3967 23.9496 31.9439Z" fill="white"/>
<path d="M25.2916 34.5576C25.2916 34.9282 24.9912 35.2287 24.6206 35.2287C24.2499 35.2287 23.9495 34.9282 23.9495 34.5576C23.9495 34.1869 24.2499 33.8865 24.6206 33.8865C24.9912 33.8865 25.2916 34.1869 25.2916 34.5576Z" fill="white"/>
<path d="M26.1623 28.6623C26.1623 29.4192 25.5486 30.0329 24.7917 30.0329C24.0348 30.0329 23.4211 29.4192 23.4211 28.6623C23.4211 27.9054 24.0348 27.2917 24.7917 27.2917C25.5486 27.2917 26.1623 27.9054 26.1623 28.6623Z" fill="white"/>
<path d="M23.3596 25.1734C23.3596 26.0672 22.635 26.7917 21.7413 26.7917C20.8476 26.7917 20.123 26.0672 20.123 25.1734C20.123 24.2797 20.8476 23.5552 21.7413 23.5552C22.635 23.5552 23.3596 24.2797 23.3596 25.1734Z" fill="white"/>
<path d="M27.4997 21.5665C27.4997 22.7612 26.5312 23.7297 25.3365 23.7297C24.1418 23.7297 23.1733 22.7612 23.1733 21.5665C23.1733 20.3718 24.1418 19.4033 25.3365 19.4033C26.5312 19.4033 27.4997 20.3718 27.4997 21.5665Z" fill="white"/>
</svg>
