<svg width="48" height="48" viewBox="0 0 48 48" fill="none" xmlns="http://www.w3.org/2000/svg">
<path d="M23.7623 21.5436C21.6305 24.5346 19.9003 24.5829 19.3509 29.3727C18.689 35.1443 22.834 39.9336 28.5495 40.5891C34.265 41.2446 39.3351 37.968 39.997 32.1964C40.5463 27.4066 38.713 26.7405 37.1622 23.2359C35.4433 19.3513 37.4752 14.2607 31.4384 13.5684C24.8842 12.8167 26.2713 18.0235 23.7623 21.5436Z" fill="#A4D31F"/>
<path fill-rule="evenodd" clip-rule="evenodd" d="M21.4926 22.6413C21.9495 22.1558 22.4209 21.6312 22.9143 20.939C23.4487 20.1892 23.7934 19.3245 24.1109 18.376C24.1796 18.1707 24.2485 17.9561 24.319 17.7365C24.5564 16.9968 24.8122 16.1998 25.1434 15.5055C25.5939 14.5614 26.2443 13.6584 27.3417 13.0806C28.4232 12.5113 29.7985 12.3318 31.5573 12.5335C33.2158 12.7237 34.4527 13.2325 35.3462 14.0608C36.2363 14.886 36.6733 15.9251 36.9302 16.9522C37.1205 17.7129 37.2289 18.5525 37.3302 19.3374C37.3612 19.5776 37.3915 19.8126 37.4233 20.0387C37.5661 21.0535 37.7463 21.9811 38.115 22.8144C38.4761 23.6304 38.8549 24.2852 39.228 24.9015C39.2868 24.9987 39.3464 25.0963 39.4063 25.1945C39.7171 25.7038 40.0372 26.2282 40.3046 26.7797C40.9863 28.1855 41.3259 29.7527 41.0321 32.3151C40.2924 38.7647 34.6055 42.3321 28.431 41.624C22.1908 40.9083 17.5835 35.6429 18.3162 29.254C18.6078 26.7115 19.2326 25.3094 20.1419 24.1432C20.489 23.6979 20.8776 23.2891 21.2513 22.8959C21.3326 22.8104 21.4132 22.7255 21.4926 22.6413ZM21.9936 23.6271C22.5344 23.0577 23.1308 22.4298 23.7625 21.5436C24.5415 20.4507 24.9449 19.1951 25.3271 18.0058C26.1757 15.3646 26.9193 13.0501 31.4386 13.5684C35.5953 14.0451 35.9265 16.6071 36.2908 19.4248C36.4555 20.6993 36.6271 22.0261 37.1624 23.2359C37.6142 24.257 38.0901 25.0371 38.524 25.7485C39.5792 27.4787 40.3864 28.8022 39.9972 32.1964C39.3352 37.968 34.2652 41.2446 28.5497 40.5891C22.8342 39.9336 18.6892 35.1443 19.3511 29.3727C19.7377 26.0021 20.709 24.9795 21.9936 23.6271Z" fill="#5B7C14"/>
<path fill-rule="evenodd" clip-rule="evenodd" d="M21.545 36.8829C22.3736 37.3908 23.2886 37.798 24.275 38.0836C29.8009 39.6839 35.3467 37.2995 36.9627 31.7194C37.9131 28.4377 37.3381 26.9981 36.5864 25.116C36.2773 24.3422 35.9384 23.4936 35.6633 22.4114C35.3374 21.1292 35.3897 19.7924 35.44 18.5083C35.4769 17.5659 35.5127 16.652 35.3971 15.8088C35.9553 16.8307 36.1194 18.0995 36.2907 19.4248C36.4555 20.6993 36.627 22.0261 37.1624 23.2359C37.6142 24.2571 38.09 25.0372 38.5239 25.7486C39.5792 27.4788 40.3864 28.8023 39.9971 32.1965C39.3352 37.9681 34.2651 41.2447 28.5496 40.5892C25.684 40.2605 23.2131 38.8927 21.545 36.8829Z" fill="#92BC1B"/>
<path d="M26.5183 22.9244C27.5687 23.6988 27.3838 25.7321 26.1055 27.4658C24.8271 29.1994 22.9394 29.977 21.8891 29.2026C20.8388 28.4281 21.0236 26.3949 22.3019 24.6612C23.5803 22.9275 25.468 22.1499 26.5183 22.9244Z" fill="#BBEB35"/>
<path d="M29.9237 14.5171C30.2867 14.9268 30.0327 15.7447 29.3564 16.3438C28.6801 16.9429 27.8376 17.0964 27.4746 16.6867C27.1116 16.277 27.3656 15.4591 28.0419 14.86C28.7183 14.2609 29.5608 14.1074 29.9237 14.5171Z" fill="#BBEB35"/>
<path fill-rule="evenodd" clip-rule="evenodd" d="M24.129 25.3787C24.5459 25.7753 24.5623 26.4346 24.1658 26.8514C23.9707 27.0564 23.8593 27.2323 23.7989 27.3752C23.5748 27.9051 22.9636 28.1529 22.4337 27.9288C21.9039 27.7047 21.656 27.0935 21.8801 26.5637C22.0585 26.1419 22.3281 25.7605 22.6564 25.4155C23.0529 24.9986 23.7122 24.9822 24.129 25.3787Z" fill="white"/>
<path d="M39.5729 8.32902C39.5729 8.32902 37.5181 11.1446 35.5834 11.8971C33.6488 12.6496 31.3992 11.5081 31.3992 11.5081C31.3992 11.5081 32.2864 9.1466 34.221 8.39414C36.1556 7.64167 39.5729 8.32902 39.5729 8.32902Z" fill="#87D623"/>
<path fill-rule="evenodd" clip-rule="evenodd" d="M40.4143 8.94303L39.5729 8.32898L39.7783 7.30777C40.1265 7.3778 40.415 7.6204 40.5437 7.95139C40.6724 8.28238 40.6237 8.65616 40.4143 8.94303ZM38.3909 8.15132C39.0929 8.23244 39.5729 8.32898 39.5729 8.32898C39.5729 8.32898 39.2843 8.72447 38.8215 9.25861C38.0496 10.1497 36.7931 11.4266 35.5835 11.8971C33.6488 12.6495 31.3993 11.508 31.3993 11.508C31.3993 11.508 32.2864 9.14657 34.221 8.3941C35.4306 7.92365 37.2197 8.01601 38.3909 8.15132ZM31.3993 11.508C30.4241 11.1417 30.4243 11.1414 30.4244 11.1411L30.4246 11.1405L30.4252 11.139L30.4266 11.1353L30.4304 11.1254C30.4334 11.1177 30.4373 11.1077 30.4421 11.0955C30.4518 11.0713 30.4652 11.0385 30.4823 10.9981C30.5166 10.9174 30.5661 10.8059 30.6314 10.6717C30.7612 10.4047 30.9567 10.0411 31.2222 9.64906C31.7398 8.88497 32.5936 7.9094 33.8434 7.42328C35.0417 6.95723 36.5807 6.96116 37.6962 7.04031C38.2778 7.08158 38.7933 7.14761 39.1635 7.20324C39.3491 7.23113 39.4995 7.25661 39.605 7.27541C39.6578 7.28481 39.6994 7.29256 39.7287 7.29813L39.7632 7.30478L39.7732 7.30675L39.7775 7.30761L39.7783 7.30777C39.7785 7.30781 39.7783 7.30777 39.5729 8.32898C40.4143 8.94303 40.4144 8.94288 40.4143 8.94303L40.4138 8.94369L40.4113 8.94721L40.4052 8.95545L40.3843 8.98366C40.3664 9.00754 40.341 9.04137 40.3084 9.08396C40.2434 9.1691 40.1497 9.28951 40.0317 9.43549C39.7964 9.72665 39.461 10.1236 39.0601 10.547C38.2912 11.3591 37.1593 12.4018 35.9611 12.8679C34.7112 13.354 33.4226 13.2117 32.5248 12.9981C32.0642 12.8885 31.6744 12.7526 31.3983 12.6435C31.2595 12.5886 31.1477 12.5399 31.0679 12.5036C31.0279 12.4854 30.9959 12.4702 30.9724 12.4589C30.9606 12.4532 30.951 12.4485 30.9435 12.4448L30.9341 12.4401L30.9306 12.4383L30.9285 12.4373C30.9282 12.4371 30.9279 12.437 31.3993 11.508ZM30.4241 11.1417L31.3993 11.508L30.9279 12.437C30.4544 12.1967 30.2374 11.6388 30.4241 11.1417Z" fill="#156319"/>
<path d="M35.4575 11.6016C37.1023 10.9619 38.8864 8.66324 38.8864 8.66324C35.2563 9.15749 32.7409 10.6711 31.937 11.3661C31.937 11.3661 33.8126 12.2414 35.4575 11.6016Z" fill="#79C01E"/>
<path d="M28.9125 8.33785C29.5478 8.68958 30.8731 11.4728 31.1732 12.8438C31.1983 12.9582 31.5138 12.8778 31.4933 12.778C31.4492 11.5393 31.0458 8.53248 30.3459 7.46551C29.3879 7.41291 28.9454 8.07114 28.9125 8.33785Z" fill="#8C5936"/>
<path fill-rule="evenodd" clip-rule="evenodd" d="M28.3553 9.21804C28.0165 9.00371 27.8291 8.61193 27.8786 8.21044C27.9366 7.73972 28.2441 7.28462 28.6237 6.97487C29.0538 6.62398 29.6576 6.38452 30.403 6.42545C30.7333 6.44359 31.0354 6.61757 31.2169 6.89421C31.4737 7.28577 31.6645 7.78637 31.811 8.26914C31.9625 8.76842 32.0881 9.32271 32.1895 9.86654C32.3864 10.9231 32.5043 12.0091 32.5323 12.6915C32.5888 13.2657 32.1813 13.6062 32.0697 13.6877C31.8981 13.813 31.7184 13.8754 31.5838 13.9064C31.4521 13.9367 31.2486 13.9635 31.0195 13.9146C30.8003 13.8679 30.288 13.6713 30.1556 13.0666C30.0314 12.4995 29.666 11.5471 29.2338 10.6685C29.0215 10.237 28.8081 9.85411 28.6212 9.56999C28.5274 9.42739 28.4503 9.32513 28.3931 9.25914C28.3761 9.23961 28.3635 9.22633 28.3553 9.21804ZM31.4932 12.778C31.4932 12.7766 31.4931 12.7752 31.4931 12.7738C31.4843 12.5311 31.4618 12.2212 31.4261 11.8716C31.3617 11.2415 31.2544 10.4825 31.1068 9.75634C30.9175 8.8248 30.6619 7.94738 30.3459 7.46555C30.0665 7.45021 29.831 7.49531 29.6367 7.57351C29.4302 7.65661 29.2703 7.77708 29.1537 7.90214C29.0038 8.06305 28.9256 8.23157 28.9125 8.33789C29.2168 8.50643 29.6797 9.23331 30.1123 10.0956C30.4149 10.6988 30.7027 11.3683 30.9111 11.9592C31.0184 12.2635 31.1046 12.547 31.161 12.7899C31.1652 12.8081 31.1693 12.8261 31.1731 12.8438C31.1982 12.9582 31.5137 12.8778 31.4932 12.778ZM30.4507 12.7754C30.4507 12.842 30.4575 12.9129 30.4729 12.9878C30.4612 12.9309 30.4543 12.8732 30.4522 12.8151C30.4517 12.8021 30.4512 12.7889 30.4507 12.7754Z" fill="#583A24"/>
<path d="M30.5492 7.60318C30.6953 7.86468 30.4442 8.28302 29.9884 8.53757C29.5326 8.79212 29.0448 8.78649 28.8987 8.52499C28.7527 8.2635 29.0038 7.84516 29.4595 7.59061C29.9153 7.33606 30.4032 7.34169 30.5492 7.60318Z" fill="#C27A49"/>
<path d="M36.2421 29.1631C36.1851 29.6601 35.736 30.0168 35.239 29.9598C34.742 29.9028 34.3853 29.4537 34.4423 28.9567C34.4993 28.4597 34.9484 28.103 35.4454 28.16C35.9424 28.217 36.2991 28.6661 36.2421 29.1631Z" fill="#83A918"/>
<path d="M38.7353 31.2725C38.6783 31.7695 38.2292 32.1262 37.7322 32.0692C37.2352 32.0122 36.8785 31.5631 36.9355 31.0661C36.9925 30.5691 37.4416 30.2124 37.9386 30.2694C38.4356 30.3264 38.7923 30.7755 38.7353 31.2725Z" fill="#83A918"/>
<path d="M38.6208 28.2962C38.5781 28.669 38.2412 28.9365 37.8685 28.8937C37.4957 28.851 37.2282 28.5141 37.271 28.1414C37.3137 27.7686 37.6505 27.5011 38.0233 27.5439C38.396 27.5866 38.6636 27.9235 38.6208 28.2962Z" fill="#83A918"/>
<path d="M38.3741 34.4221C38.3171 34.9191 37.868 35.2758 37.371 35.2188C36.874 35.1618 36.5173 34.7127 36.5743 34.2157C36.6313 33.7187 37.0804 33.362 37.5774 33.419C38.0744 33.476 38.4311 33.9251 38.3741 34.4221Z" fill="#83A918"/>
<path d="M35.8808 32.3127C35.8238 32.8097 35.3747 33.1664 34.8777 33.1094C34.3807 33.0524 34.024 32.6033 34.081 32.1063C34.138 31.6093 34.5871 31.2526 35.0841 31.3096C35.5811 31.3666 35.9378 31.8157 35.8808 32.3127Z" fill="#83A918"/>
<path d="M36.2647 36.9154C36.2077 37.4124 35.7586 37.7691 35.2616 37.7121C34.7646 37.6551 34.4079 37.206 34.4649 36.709C34.5219 36.212 34.971 35.8553 35.468 35.9123C35.965 35.9693 36.3217 36.4184 36.2647 36.9154Z" fill="#83A918"/>
<path d="M33.7198 35.2559C33.6628 35.7529 33.2137 36.1096 32.7167 36.0526C32.2197 35.9956 31.863 35.5465 31.92 35.0495C31.977 34.5525 32.4261 34.1958 32.9231 34.2528C33.4201 34.3098 33.7768 34.7589 33.7198 35.2559Z" fill="#83A918"/>
<path d="M33.7828 38.6822C33.74 39.0549 33.4032 39.3224 33.0304 39.2797C32.6577 39.237 32.3902 38.9001 32.4329 38.5274C32.4757 38.1546 32.8125 37.8871 33.1852 37.9299C33.558 37.9726 33.8255 38.3094 33.7828 38.6822Z" fill="#83A918"/>
<path d="M19.8046 19.9807C19.8046 19.9807 19.6998 23.3428 18.4219 24.8366C16.8816 26.637 13.9165 25.9597 13.9165 25.9597C13.9165 25.9597 13.6963 23.2978 15.4479 21.5191C16.7954 20.1509 19.8046 19.9807 19.8046 19.9807Z" fill="#10BC17"/>
<path fill-rule="evenodd" clip-rule="evenodd" d="M20.5796 20.0048L19.8047 19.9806L19.761 19.2067C19.978 19.1944 20.1902 19.2738 20.3459 19.4256C20.5015 19.5774 20.5863 19.7875 20.5796 20.0048ZM19.0246 20.0679C19.4927 19.9983 19.8047 19.9806 19.8047 19.9806C19.8047 19.9806 19.7951 20.2899 19.746 20.7624C19.6332 21.848 19.3124 23.7957 18.422 24.8365C16.8817 26.6369 13.9166 25.9596 13.9166 25.9596C13.9166 25.9596 13.6964 23.2977 15.448 21.519C16.3616 20.5913 18.0391 20.2144 19.0246 20.0679ZM13.9166 25.9596C13.144 26.0236 13.144 26.0233 13.144 26.023L13.1439 26.0224L13.1438 26.0209L13.1435 26.0173L13.1428 26.0071C13.1422 25.999 13.1415 25.9884 13.1407 25.9753C13.1391 25.9492 13.1373 25.9132 13.1358 25.8682C13.1327 25.7784 13.1308 25.6523 13.1346 25.4971C13.1421 25.1878 13.1723 24.7577 13.2631 24.2656C13.4432 23.2903 13.8726 22.0139 14.8957 20.9751C15.7322 20.1256 17.0076 19.7017 17.9565 19.4816C18.4498 19.3672 18.8959 19.2989 19.2187 19.2592C19.3807 19.2393 19.5129 19.2263 19.6062 19.2183C19.6528 19.2143 19.6898 19.2114 19.716 19.2096C19.729 19.2087 19.7394 19.208 19.747 19.2075L19.7561 19.2069L19.7602 19.2067L19.761 19.2067C19.7611 19.2066 19.761 19.2067 19.8047 19.9806C20.5796 20.0048 20.5796 20.0046 20.5796 20.0048L20.5795 20.0065L20.5794 20.0095L20.5791 20.019C20.5788 20.027 20.5783 20.0381 20.5777 20.0522C20.5765 20.0805 20.5746 20.1207 20.5717 20.1718C20.5659 20.2738 20.5563 20.4191 20.5406 20.5973C20.5093 20.9527 20.4536 21.4439 20.3554 21.9865C20.1668 23.0285 19.7947 24.4245 19.0111 25.3404C18.0425 26.4726 16.6634 26.7858 15.6379 26.8471C15.1143 26.8783 14.6485 26.8465 14.3138 26.8073C14.1457 26.7876 14.0084 26.7658 13.9108 26.7484C13.862 26.7397 13.823 26.732 13.7949 26.7263C13.7808 26.7234 13.7694 26.721 13.7609 26.7191L13.7503 26.7168L13.7466 26.716L13.7445 26.7155C13.7442 26.7155 13.744 26.7154 13.9166 25.9596ZM13.144 26.0236L13.9166 25.9596L13.744 26.7154C13.4146 26.6402 13.1719 26.3603 13.144 26.0236Z" fill="#156319"/>
<path d="M17.9007 24.7054C18.9802 23.6093 19.2817 20.8576 19.2817 20.8576C16.5197 22.4959 15.2959 24.825 14.9265 25.686C14.9265 25.686 16.8212 25.8016 17.9007 24.7054Z" fill="#07A00E"/>
<path d="M8.07305 24.0178C8.07305 24.0178 10.3975 22.8864 11.8707 23.2214C13.6463 23.6251 14.2463 25.8843 14.2463 25.8843C14.2463 25.8843 12.5143 26.9863 10.6778 26.431C9.26515 26.0038 8.07305 24.0178 8.07305 24.0178Z" fill="#13CA1B"/>
<path fill-rule="evenodd" clip-rule="evenodd" d="M7.73369 23.3209L8.07294 24.0179L7.40826 24.4169C7.29638 24.2305 7.26791 24.0057 7.32979 23.7972C7.39167 23.5888 7.53821 23.416 7.73369 23.3209ZM8.52127 24.6644C8.23926 24.295 8.07294 24.0179 8.07294 24.0179C8.07294 24.0179 8.35997 23.8782 8.79622 23.7115C9.60145 23.4039 10.9151 23.0043 11.8706 23.2215C13.6462 23.6252 14.2462 25.8845 14.2462 25.8845C14.2462 25.8845 12.5142 26.9864 10.6777 26.4311C9.79272 26.1635 8.99427 25.2841 8.52127 24.6644ZM14.2462 25.8845C14.6623 26.5385 14.6621 26.5387 14.6618 26.5388L14.6613 26.5391L14.6602 26.5399L14.6574 26.5416L14.6499 26.5463C14.644 26.55 14.6364 26.5546 14.6272 26.5602C14.6087 26.5714 14.5835 26.5863 14.5521 26.6042C14.4894 26.64 14.4012 26.688 14.2909 26.7426C14.0711 26.8515 13.7589 26.9887 13.3809 27.1063C12.6334 27.3388 11.5725 27.5116 10.4534 27.1732C9.52495 26.8925 8.75225 26.1427 8.25871 25.5708C7.99934 25.2703 7.78952 24.986 7.64438 24.7769C7.57152 24.6719 7.5142 24.5847 7.47433 24.5225C7.45438 24.4914 7.43874 24.4665 7.42767 24.4486L7.41448 24.4271L7.41049 24.4206L7.40915 24.4183L7.40826 24.4169C7.40817 24.4167 7.40826 24.4169 8.07294 24.0179C7.73369 23.3209 7.73355 23.3209 7.73369 23.3209L7.73511 23.3202L7.7374 23.3191L7.74449 23.3156L7.76855 23.3042C7.78888 23.2946 7.81769 23.2812 7.85419 23.2645C7.92714 23.2313 8.03115 23.1851 8.15989 23.1312C8.41649 23.0239 8.77583 22.884 9.18649 22.7547C9.96604 22.5092 11.0889 22.2488 12.0425 22.4656C13.2279 22.7351 13.9682 23.6095 14.3876 24.3033C14.603 24.6595 14.7523 24.9978 14.8481 25.2466C14.8963 25.3717 14.9317 25.4763 14.9558 25.5519C14.9678 25.5897 14.977 25.6205 14.9835 25.6431C14.9868 25.6543 14.9894 25.6636 14.9914 25.6707L14.9939 25.6798L14.9948 25.683L14.9953 25.685C14.9953 25.6852 14.9954 25.6855 14.2462 25.8845ZM14.6623 26.5385L14.2462 25.8845L14.9954 25.6855C15.0821 26.012 14.9474 26.3571 14.6623 26.5385Z" fill="#156319"/>
<path fill-rule="evenodd" clip-rule="evenodd" d="M8.42817 23.8592C8.20584 23.9531 8.07297 24.0177 8.07297 24.0177C8.07297 24.0177 9.26508 26.0038 10.6778 26.431C12.5143 26.9863 14.2462 25.8843 14.2462 25.8843C14.2462 25.8843 14.1031 25.3456 13.7499 24.7472C13.1746 25.0741 11.9244 25.6372 10.5593 25.3225C9.73529 25.1325 8.94925 24.4271 8.42817 23.8592Z" fill="#33ED3B"/>
<path d="M23.8646 32.123C24.7952 36.7601 21.7905 41.2736 17.1534 42.2042C12.5164 43.1348 8.00286 40.1302 7.07224 35.4931C6.14162 30.856 9.1463 26.3425 13.7834 25.4119C18.4204 24.4813 22.9339 27.4859 23.8646 32.123Z" fill="#FE9F81"/>
<path fill-rule="evenodd" clip-rule="evenodd" d="M24.6246 31.9706C25.6395 37.0274 22.3628 41.9495 17.306 42.9644C12.2491 43.9793 7.32705 40.7026 6.31218 35.6457C5.29732 30.5889 8.57399 25.6668 13.6308 24.6519C18.6877 23.6371 23.6098 26.9137 24.6246 31.9706ZM17.1534 42.2043C21.7905 41.2737 24.7952 36.7602 23.8646 32.1231C22.934 27.486 18.4204 24.4814 13.7834 25.412C9.1463 26.3426 6.14163 30.8561 7.07225 35.4932C8.00287 40.1303 12.5164 43.1349 17.1534 42.2043Z" fill="#AB442D"/>
<path fill-rule="evenodd" clip-rule="evenodd" d="M20.585 40.6776C18.0066 40.7965 15.0108 38.8377 13.1877 35.5805C10.9407 31.566 11.3064 27.0643 13.972 25.3762C13.9091 25.3874 13.8463 25.3993 13.7834 25.4119C9.14631 26.3425 6.14163 30.8561 7.07225 35.4931C8.00287 40.1302 12.5164 43.1349 17.1534 42.2043C18.4391 41.9462 19.5993 41.4128 20.585 40.6776Z" fill="#FF7E6C"/>
<path d="M16.0468 26.268C17.1783 26.611 17.6785 28.265 17.164 29.9623C16.6495 31.6597 15.3151 32.7575 14.1836 32.4145C13.0521 32.0715 12.5519 30.4175 13.0664 28.7202C13.5809 27.0229 14.9153 25.925 16.0468 26.268Z" fill="#FEC0AC"/>
<path fill-rule="evenodd" clip-rule="evenodd" d="M14.4797 28.8934C14.8936 29.0029 15.1404 29.4272 15.0309 29.8411C14.9561 30.1236 14.9452 30.3906 14.9907 30.6499C15.0647 31.0716 14.7828 31.4734 14.3611 31.5474C13.9394 31.6214 13.5376 31.3396 13.4636 30.9179C13.3774 30.4271 13.4027 29.9333 13.532 29.4445C13.6415 29.0306 14.0658 28.7839 14.4797 28.8934Z" fill="white"/>
<path fill-rule="evenodd" clip-rule="evenodd" d="M13.6869 25.2113C14.6905 24.5913 15.8478 24.4738 16.8431 24.606C17.0553 24.6341 17.2045 24.829 17.1763 25.0412C17.1482 25.2534 16.9533 25.4026 16.7411 25.3745C15.8716 25.259 14.9068 25.3689 14.0943 25.8708C13.2926 26.3661 12.5908 27.2727 12.2871 28.8494C11.6705 32.0514 12.9365 34.6617 13.6165 35.5348C13.7481 35.7036 13.7178 35.9472 13.5489 36.0787C13.38 36.2103 13.1365 36.18 13.0049 36.0111C12.2141 34.9958 10.8594 32.1635 11.5259 28.7028C11.8638 26.9482 12.6723 25.8381 13.6869 25.2113Z" fill="#AB442D"/>
<path d="M16.3045 40.4297C16.6078 40.7542 16.5905 41.2631 16.266 41.5663C15.9415 41.8696 15.4326 41.8523 15.1294 41.5278C14.8261 41.2033 14.8434 40.6944 15.1679 40.3911C15.4924 40.0879 16.0013 40.1052 16.3045 40.4297Z" fill="#EC6B59"/>
<path d="M18.7274 39.667C19.0306 39.9915 19.0134 40.5004 18.6888 40.8036C18.3643 41.1069 17.8554 41.0896 17.5522 40.7651C17.249 40.4406 17.2662 39.9317 17.5908 39.6285C17.9153 39.3252 18.4242 39.3425 18.7274 39.667Z" fill="#EC6B59"/>
<path d="M17.1765 37.8062C17.4118 38.0581 17.3984 38.453 17.1465 38.6883C16.8947 38.9236 16.4998 38.9102 16.2645 38.6584C16.0291 38.4066 16.0425 38.0116 16.2944 37.7763C16.5462 37.541 16.9411 37.5544 17.1765 37.8062Z" fill="#EC6B59"/>
<path d="M20.2795 38.9674C20.5148 39.2192 20.5014 39.6141 20.2496 39.8494C19.9977 40.0848 19.6028 40.0714 19.3675 39.8195C19.1322 39.5677 19.1456 39.1728 19.3974 38.9374C19.6493 38.7021 20.0442 38.7155 20.2795 38.9674Z" fill="#EC6B59"/>
<path d="M14.8164 38.3826C15.0517 38.6345 15.0383 39.0294 14.7864 39.2647C14.5346 39.5 14.1397 39.4867 13.9044 39.2348C13.669 38.983 13.6824 38.588 13.9343 38.3527C14.1861 38.1174 14.581 38.1308 14.8164 38.3826Z" fill="#EC6B59"/>
<path d="M11.5351 37.6129C11.7704 37.8647 11.757 38.2596 11.5052 38.495C11.2533 38.7303 10.8584 38.7169 10.6231 38.465C10.3878 38.2132 10.4012 37.8183 10.653 37.583C10.9049 37.3476 11.2998 37.361 11.5351 37.6129Z" fill="#EC6B59"/>
<path d="M20.8847 36.9227C21.12 37.1745 21.1066 37.5695 20.8548 37.8048C20.603 38.0401 20.208 38.0267 19.9727 37.7748C19.7374 37.523 19.7508 37.1281 20.0026 36.8928C20.2545 36.6574 20.6494 36.6708 20.8847 36.9227Z" fill="#EC6B59"/>
<path d="M13.8479 40.4266C14.0832 40.6784 14.0698 41.0734 13.8179 41.3087C13.5661 41.544 13.1712 41.5306 12.9358 41.2788C12.7005 41.0269 12.7139 40.632 12.9658 40.3967C13.2176 40.1614 13.6125 40.1747 13.8479 40.4266Z" fill="#EC6B59"/>
<path d="M13.0176 38.6941C13.1365 38.8213 13.1298 39.0209 13.0025 39.1399C12.8752 39.2588 12.6756 39.252 12.5567 39.1248C12.4377 38.9975 12.4445 38.7979 12.5718 38.6789C12.6991 38.56 12.8987 38.5668 13.0176 38.6941Z" fill="#EC6B59"/>
<path d="M9.66945 37.7195C9.78838 37.8467 9.78161 38.0463 9.65433 38.1653C9.52704 38.2842 9.32744 38.2774 9.20851 38.1501C9.08958 38.0229 9.09635 37.8233 9.22363 37.7043C9.35092 37.5854 9.55052 37.5922 9.66945 37.7195Z" fill="#EC6B59"/>
<path d="M21.9844 38.0154C22.1033 38.1426 22.0966 38.3422 21.9693 38.4612C21.842 38.5801 21.6424 38.5733 21.5235 38.446C21.4045 38.3188 21.4113 38.1192 21.5386 38.0002C21.6659 37.8813 21.8655 37.8881 21.9844 38.0154Z" fill="#EC6B59"/>
<path d="M19.0952 37.4092C19.2142 37.5364 19.2074 37.736 19.0801 37.855C18.9528 37.9739 18.7532 37.9671 18.6343 37.8398C18.5154 37.7126 18.5221 37.513 18.6494 37.394C18.7767 37.2751 18.9763 37.2819 19.0952 37.4092Z" fill="#EC6B59"/>
<path d="M22.4392 36.3427C22.5582 36.47 22.5514 36.6696 22.4241 36.7886C22.2968 36.9075 22.0972 36.9007 21.9783 36.7734C21.8594 36.6462 21.8661 36.4466 21.9934 36.3276C22.1207 36.2087 22.3203 36.2155 22.4392 36.3427Z" fill="#EC6B59"/>
<path d="M11.859 39.3258C12.0554 39.536 12.0443 39.8657 11.8341 40.0621C11.6239 40.2585 11.2942 40.2473 11.0978 40.0371C10.9014 39.8269 10.9126 39.4973 11.1228 39.3009C11.333 39.1045 11.6626 39.1156 11.859 39.3258Z" fill="#EC6B59"/>
</svg>
