<svg width="48" height="48" viewBox="0 0 48 48" fill="none" xmlns="http://www.w3.org/2000/svg">
<g clip-path="url(#clip0_598_673)">
<path d="M18.4133 9.16758C23.345 9.07395 27.4999 17.2635 27.6403 24.6585C27.7807 32.0535 23.875 36.989 18.9433 37.0827C14.0116 37.1763 9.92141 32.3926 9.78101 24.9976C9.64061 17.6025 13.7928 9.25531 18.4133 9.16758Z" fill="#EDE6CF"/>
<path fill-rule="evenodd" clip-rule="evenodd" d="M25.6941 13.6128C27.4509 16.7217 28.5668 20.7811 28.64 24.6395C28.7856 32.3085 24.6883 37.9738 18.9622 38.0825C13.2361 38.1912 8.92667 32.6855 8.78107 25.0166C8.70755 21.1444 9.75297 17.042 11.4277 13.8749C12.266 12.2896 13.2828 10.8989 14.4356 9.88667C15.5872 8.87543 16.931 8.19554 18.3942 8.16776C21.4382 8.10997 23.9759 10.5723 25.6941 13.6128ZM27.6402 24.6585C27.4998 17.2635 23.3449 9.07395 18.4132 9.16758C13.7926 9.25531 9.64049 17.6025 9.78089 24.9976C9.92129 32.3926 14.0115 37.1763 18.9432 37.0827C23.8749 36.989 27.7806 32.0535 27.6402 24.6585Z" fill="#968960"/>
<path fill-rule="evenodd" clip-rule="evenodd" d="M21.4381 10.1545C23.3267 13.0738 24.5647 17.1944 24.6386 21.0864C24.7737 28.2004 20.9891 32.9488 16.2112 33.0395C14.2207 33.0773 12.3718 32.3008 10.8823 30.8675C12.4414 34.8162 15.4855 37.1483 18.9433 37.0826C23.875 36.989 27.7807 32.0535 27.6403 24.6584C27.5299 18.8443 24.938 12.5391 21.4381 10.1545Z" fill="#DBD2B2"/>
<path d="M16.5008 13.7437C18.5298 14.1588 16.1332 16.9328 17.0623 19.8749C18.5623 24.6249 15.9393 26.8222 13.9102 26.4071C11.8812 25.992 10.8162 22.8207 11.5316 19.3238C12.2469 15.8269 14.4717 13.3286 16.5008 13.7437Z" fill="#FEF8E3"/>
<path fill-rule="evenodd" clip-rule="evenodd" d="M14.005 19.7964C13.9376 20.5699 13.9374 21.2693 13.9374 21.4999C13.9374 21.9141 13.6016 22.2499 13.1874 22.2499C12.7732 22.2499 12.4374 21.9141 12.4374 21.4999L12.4374 21.4984C12.4374 21.2587 12.4374 20.5063 12.5107 19.6661C12.5811 18.8586 12.7281 17.8386 13.0813 17.1381C13.2677 16.7682 13.7187 16.6196 14.0886 16.806C14.4585 16.9925 14.6072 17.4435 14.4207 17.8133C14.2103 18.2308 14.0755 18.9886 14.005 19.7964Z" fill="white"/>
<path d="M25.3084 20.1587C25.7049 20.4751 25.8043 21.0097 25.5305 21.3528C25.2567 21.696 24.7133 21.7177 24.3168 21.4013C23.9203 21.0849 23.8208 20.5502 24.0946 20.2071C24.3685 19.8639 24.9118 19.8423 25.3084 20.1587Z" fill="#CFC59E"/>
<path d="M24.87 18.1042C25.0957 18.2843 25.1523 18.5885 24.9965 18.7838C24.8407 18.9791 24.5314 18.9914 24.3058 18.8114C24.0801 18.6313 24.0235 18.3271 24.1793 18.1318C24.3352 17.9365 24.6444 17.9242 24.87 18.1042Z" fill="#CFC59E"/>
<path d="M23.2956 19.084C23.5212 19.264 23.5778 19.5683 23.422 19.7636C23.2662 19.9588 22.957 19.9712 22.7313 19.7911C22.5057 19.611 22.4491 19.3068 22.6049 19.1115C22.7607 18.9163 23.0699 18.9039 23.2956 19.084Z" fill="#CFC59E"/>
<path d="M22.4803 15.3735C22.592 15.4627 22.6201 15.6134 22.5429 15.7101C22.4657 15.8068 22.3126 15.8129 22.2009 15.7237C22.0891 15.6345 22.0611 15.4839 22.1382 15.3872C22.2154 15.2905 22.3685 15.2844 22.4803 15.3735Z" fill="#CFC59E"/>
<path d="M22.8277 12.9575C22.9394 13.0467 22.9675 13.1973 22.8903 13.294C22.8131 13.3907 22.66 13.3968 22.5483 13.3077C22.4365 13.2185 22.4085 13.0679 22.4857 12.9712C22.5628 12.8745 22.716 12.8683 22.8277 12.9575Z" fill="#CFC59E"/>
<path d="M25.8929 19.3171C26.0046 19.4063 26.0327 19.557 25.9555 19.6537C25.8783 19.7504 25.7252 19.7565 25.6135 19.6673C25.5017 19.5781 25.4737 19.4275 25.5508 19.3308C25.628 19.2341 25.7811 19.228 25.8929 19.3171Z" fill="#CFC59E"/>
<path d="M26.2215 21.3371C26.3332 21.4263 26.3613 21.577 26.2841 21.6737C26.2069 21.7704 26.0538 21.7765 25.9421 21.6873C25.8303 21.5982 25.8023 21.4475 25.8795 21.3508C25.9566 21.2541 26.1098 21.248 26.2215 21.3371Z" fill="#CFC59E"/>
<path d="M23.1409 21.2923C23.3097 21.427 23.3521 21.6546 23.2355 21.8007C23.1189 21.9468 22.8876 21.956 22.7188 21.8213C22.5499 21.6866 22.5076 21.459 22.6242 21.3129C22.7407 21.1668 22.9721 21.1576 23.1409 21.2923Z" fill="#CFC59E"/>
<path d="M26.6817 24.4302C26.8505 24.5649 26.8928 24.7925 26.7763 24.9386C26.6597 25.0847 26.4283 25.0939 26.2595 24.9592C26.0907 24.8245 26.0484 24.5969 26.1649 24.4508C26.2815 24.3047 26.5129 24.2955 26.6817 24.4302Z" fill="#CFC59E"/>
<path d="M24.991 23.9717C25.1598 24.1064 25.2022 24.334 25.0856 24.4801C24.969 24.6262 24.7377 24.6354 24.5688 24.5007C24.4 24.366 24.3577 24.1384 24.4743 23.9923C24.5908 23.8462 24.8222 23.837 24.991 23.9717Z" fill="#CFC59E"/>
<path d="M24.6813 22.51C24.907 22.6901 24.9636 22.9943 24.8078 23.1896C24.6519 23.3848 24.3427 23.3972 24.1171 23.2171C23.8914 23.0371 23.8348 22.7328 23.9906 22.5375C24.1464 22.3423 24.4557 22.3299 24.6813 22.51Z" fill="#CFC59E"/>
<path d="M24.5509 16.2588C24.7766 16.4388 24.8332 16.7431 24.6774 16.9384C24.5216 17.1336 24.2123 17.146 23.9867 16.9659C23.761 16.7859 23.7044 16.4816 23.8603 16.2863C24.0161 16.0911 24.3253 16.0787 24.5509 16.2588Z" fill="#CFC59E"/>
<path d="M23.13 16.7853C23.4234 17.0194 23.497 17.4149 23.2944 17.6688C23.0918 17.9227 22.6898 17.9387 22.3964 17.7046C22.103 17.4705 22.0295 17.075 22.232 16.8211C22.4346 16.5672 22.8366 16.5512 23.13 16.7853Z" fill="#CFC59E"/>
<path d="M23.6317 14.2555C23.9251 14.4896 23.9987 14.8851 23.7961 15.139C23.5935 15.3929 23.1915 15.4089 22.8981 15.1748C22.6048 14.9407 22.5312 14.5452 22.7337 14.2913C22.9363 14.0374 23.3383 14.0214 23.6317 14.2555Z" fill="#CFC59E"/>
<path d="M26.2828 22.5402C26.5762 22.7742 26.6498 23.1698 26.4472 23.4237C26.2446 23.6775 25.8426 23.6936 25.5492 23.4595C25.2559 23.2254 25.1823 22.8298 25.3849 22.576C25.5874 22.3221 25.9895 22.3061 26.2828 22.5402Z" fill="#CFC59E"/>
<path d="M26.4716 26.0795C26.7649 26.3135 26.8385 26.7091 26.6359 26.963C26.4334 27.2169 26.0313 27.2329 25.738 26.9988C25.4446 26.7647 25.371 26.3691 25.5736 26.1153C25.7762 25.8614 26.1782 25.8454 26.4716 26.0795Z" fill="#CFC59E"/>
<path d="M32.6875 42.0624C40.125 39.6249 43.6562 31.4999 42.8109 26.1104L17.5 35.0624C17.25 35.9874 17.5526 38.2389 18.2812 39.2811C20.75 42.8124 26.6086 44.0546 32.6875 42.0624Z" fill="white"/>
<path fill-rule="evenodd" clip-rule="evenodd" d="M43.3229 25.2515C43.5783 25.4037 43.7527 25.6617 43.7988 25.9555C44.2622 28.9105 43.5234 32.5159 41.7251 35.6868C39.9183 38.8726 36.9947 41.7032 32.9989 43.0127C26.7162 45.0718 20.2924 43.9033 17.4616 39.8542C16.9718 39.1535 16.6822 38.1581 16.5373 37.2931C16.394 36.4374 16.3532 35.4728 16.5346 34.8015C16.6203 34.4842 16.8566 34.2293 17.1665 34.1197L42.4774 25.1676C42.7577 25.0685 43.0676 25.0992 43.3229 25.2515ZM42.8108 26.1104L17.4999 35.0625C17.2499 35.9875 17.5525 38.239 18.2812 39.2812C20.7499 42.8125 26.6085 44.0547 32.6875 42.0625C39.6677 39.7748 43.2072 32.4775 42.9172 27.1335C42.8982 26.7834 42.8628 26.4418 42.8108 26.1104Z" fill="#968960"/>
<path fill-rule="evenodd" clip-rule="evenodd" d="M17.4136 35.9048L18.3481 34.7624L17.4999 35.0624C17.441 35.2805 17.4127 35.5724 17.4136 35.9048ZM42.8108 26.1104C43.6452 31.4297 40.2162 39.4137 32.9761 41.9643C36.5231 38.0028 37.5683 32.3839 36.5937 28.3092L42.8108 26.1104Z" fill="#F4F3DB"/>
<path fill-rule="evenodd" clip-rule="evenodd" d="M35.9491 40.4942C41.1409 37.1002 43.5212 30.6394 42.8108 26.1104L39.6834 27.2165C40.4989 31.2625 39.4006 36.6613 35.9491 40.4942ZM17.6581 37.7734L20.8428 33.8801L17.4999 35.0624C17.3415 35.6485 17.405 36.7672 17.6581 37.7734Z" fill="#DEDCB1"/>
<path d="M42.6122 25.5563C43.6411 27.9755 38.869 32.321 31.9534 35.2624C25.0378 38.2037 18.5975 38.6269 17.5686 36.2077C16.5397 33.7885 21.3118 29.443 28.2274 26.5017C35.143 23.5603 41.5833 23.1371 42.6122 25.5563Z" fill="#FDFCE4"/>
<path fill-rule="evenodd" clip-rule="evenodd" d="M40.9354 30.9529C38.9034 32.8033 35.8779 34.68 32.3449 36.1826C28.8119 37.6853 25.3615 38.5629 22.6192 38.7431C21.2529 38.8329 20.0051 38.7536 18.993 38.4528C17.9889 38.1544 17.069 37.5878 16.6485 36.5992C16.228 35.6105 16.4579 34.5549 16.9395 33.6245C17.4248 32.6868 18.2332 31.733 19.2456 30.8111C21.2776 28.9608 24.3031 27.0841 27.8361 25.5815C31.3691 24.0788 34.8194 23.2012 37.5618 23.021C38.9281 22.9312 40.1758 23.0104 41.188 23.3112C42.1921 23.6097 43.112 24.1762 43.5325 25.1649C43.953 26.1536 43.7231 27.2092 43.2415 28.1395C42.7562 29.0772 41.9478 30.031 40.9354 30.9529ZM31.9535 35.2624C38.8691 32.3211 43.6412 27.9755 42.6123 25.5563C41.5834 23.1371 35.143 23.5604 28.2274 26.5017C21.3119 29.443 16.5398 33.7886 17.5687 36.2078C18.5976 38.627 25.0379 38.2037 31.9535 35.2624Z" fill="#968960"/>
<path d="M34.2163 28.6466C35.0098 30.3943 32.1831 33.3865 27.9027 35.3298C23.6224 37.2732 19.5092 37.4317 18.7158 35.684C17.9223 33.9363 20.749 30.9442 25.0293 29.0008C29.3097 27.0575 33.4228 26.8989 34.2163 28.6466Z" fill="white"/>
<path fill-rule="evenodd" clip-rule="evenodd" d="M35.8617 24.5369C39.0448 24.0492 41.1439 24.7242 41.871 25.2089C42.1008 25.3621 42.1628 25.6725 42.0097 25.9023C41.8565 26.132 41.5461 26.1941 41.3163 26.0409C40.8558 25.734 39.03 25.0631 36.0131 25.5254C33.3408 25.9349 32.0239 26.4018 31.181 26.7006C31.0614 26.7431 30.9513 26.7821 30.8482 26.8171C30.5867 26.9059 30.3028 26.7659 30.214 26.5045C30.1251 26.243 30.2651 25.959 30.5266 25.8702C30.6276 25.8359 30.7365 25.7973 30.8556 25.7551C31.7124 25.4514 33.0977 24.9604 35.8617 24.5369Z" fill="#E6E4BC"/>
<path d="M30.6129 34.1707C30.5606 33.8871 30.1536 33.7245 29.7038 33.8075C29.254 33.8905 28.9318 34.1876 28.9841 34.4712C29.0364 34.7548 29.4435 34.9173 29.8932 34.8344C30.343 34.7514 30.6652 34.4543 30.6129 34.1707Z" fill="#E9E8CB"/>
<path d="M33.6261 32.6502C33.5738 32.3666 33.1667 32.204 32.717 32.287C32.2672 32.37 31.945 32.6671 31.9973 32.9507C32.0496 33.2342 32.4567 33.3968 32.9064 33.3139C33.3562 33.2309 33.6784 32.9337 33.6261 32.6502Z" fill="#E9E8CB"/>
<path d="M26.3048 33.4139C26.2525 33.1303 25.8455 32.9677 25.3957 33.0507C24.9459 33.1337 24.6237 33.4308 24.676 33.7144C24.7283 33.9979 25.1354 34.1605 25.5851 34.0775C26.0349 33.9945 26.3571 33.6974 26.3048 33.4139Z" fill="#E9E8CB"/>
<path d="M23.1813 35.9705C23.1289 35.6869 22.7219 35.5244 22.2721 35.6073C21.8224 35.6903 21.5002 35.9875 21.5525 36.271C21.6048 36.5546 22.0118 36.7172 22.4616 36.6342C22.9114 36.5512 23.2336 36.2541 23.1813 35.9705Z" fill="#E9E8CB"/>
<path d="M28.1656 35.0754C28.1294 34.8793 27.8479 34.7668 27.5368 34.8242C27.2257 34.8816 27.0028 35.0871 27.039 35.2833C27.0752 35.4794 27.3567 35.5919 27.6678 35.5345C27.9789 35.4771 28.2018 35.2716 28.1656 35.0754Z" fill="#E9E8CB"/>
<path d="M24.1029 34.3816C24.0667 34.1854 23.7851 34.073 23.474 34.1304C23.1629 34.1878 22.94 34.3933 22.9762 34.5894C23.0124 34.7856 23.294 34.898 23.6051 34.8406C23.9162 34.7832 24.1391 34.5777 24.1029 34.3816Z" fill="#E9E8CB"/>
<path d="M19.8932 36.0471C19.857 35.851 19.5754 35.7385 19.2643 35.7959C18.9532 35.8533 18.7303 36.0588 18.7665 36.255C18.8027 36.4511 19.0842 36.5636 19.3954 36.5062C19.7065 36.4488 19.9294 36.2432 19.8932 36.0471Z" fill="#E9E8CB"/>
<path d="M28.2435 33.5844C28.2073 33.3883 27.9258 33.2758 27.6147 33.3332C27.3035 33.3906 27.0807 33.5962 27.1168 33.7923C27.153 33.9885 27.4346 34.1009 27.7457 34.0435C28.0568 33.9861 28.2797 33.7806 28.2435 33.5844Z" fill="#E9E8CB"/>
<path d="M31.316 32.5815C31.2798 32.3854 30.9983 32.2729 30.6872 32.3303C30.376 32.3877 30.1532 32.5932 30.1894 32.7894C30.2255 32.9855 30.5071 33.098 30.8182 33.0406C31.1293 32.9832 31.3522 32.7777 31.316 32.5815Z" fill="#E9E8CB"/>
<path d="M26.2662 35.0183C26.23 34.8221 25.9485 34.7097 25.6374 34.7671C25.3262 34.8245 25.1034 35.03 25.1396 35.2262C25.1757 35.4223 25.4573 35.5348 25.7684 35.4774C26.0795 35.42 26.3024 35.2144 26.2662 35.0183Z" fill="#E9E8CB"/>
<path d="M24.5841 35.6537C24.5588 35.5164 24.3617 35.4377 24.1439 35.4779C23.9261 35.5181 23.7701 35.6619 23.7954 35.7992C23.8208 35.9365 24.0179 36.0153 24.2357 35.9751C24.4535 35.9349 24.6095 35.791 24.5841 35.6537Z" fill="#E9E8CB"/>
<path d="M21.2436 35.362C21.2182 35.2247 21.0211 35.1459 20.8033 35.1861C20.5856 35.2263 20.4295 35.3702 20.4549 35.5075C20.4802 35.6448 20.6773 35.7235 20.8951 35.6833C21.1129 35.6432 21.2689 35.4993 21.2436 35.362Z" fill="#E9E8CB"/>
<path d="M29.3244 32.5558C29.299 32.4185 29.1019 32.3398 28.8842 32.38C28.6664 32.4202 28.5103 32.564 28.5357 32.7013C28.561 32.8386 28.7581 32.9174 28.9759 32.8772C29.1937 32.837 29.3497 32.6931 29.3244 32.5558Z" fill="#E9E8CB"/>
<path d="M34.5202 31.4557C34.4948 31.3184 34.2977 31.2397 34.08 31.2799C33.8622 31.3201 33.7061 31.4639 33.7315 31.6012C33.7568 31.7385 33.9539 31.8173 34.1717 31.7771C34.3895 31.7369 34.5455 31.593 34.5202 31.4557Z" fill="#E9E8CB"/>
<path d="M32.0852 31.6274C32.0667 31.5272 31.9228 31.4697 31.7637 31.499C31.6047 31.5284 31.4907 31.6334 31.5092 31.7337C31.5277 31.834 31.6717 31.8915 31.8307 31.8621C31.9898 31.8328 32.1037 31.7277 32.0852 31.6274Z" fill="#E9E8CB"/>
<path d="M32.3407 29.566C32.7032 30.4185 31.0599 31.9335 28.6702 32.9499C26.2805 33.9662 24.0493 34.0991 23.6868 33.2467C23.3242 32.3942 24.9675 30.8792 27.3572 29.8628C29.7469 28.8464 31.9781 28.7135 32.3407 29.566Z" fill="#FFB72B"/>
<path fill-rule="evenodd" clip-rule="evenodd" d="M32.2152 31.9317C31.4467 32.6402 30.3331 33.3292 29.0614 33.8701C27.7898 34.411 26.521 34.7352 25.4776 34.7973C24.9605 34.8281 24.4417 34.7982 23.9881 34.6586C23.5403 34.5209 23.0171 34.2276 22.7664 33.6381C22.5157 33.0486 22.6673 32.4682 22.8786 32.0501C23.0928 31.6265 23.4311 31.2321 23.8119 30.881C24.5804 30.1725 25.694 29.4835 26.9657 28.9426C28.2374 28.4017 29.5061 28.0775 30.5495 28.0154C31.0666 27.9846 31.5854 28.0145 32.039 28.1541C32.4868 28.2918 33.01 28.5852 33.2607 29.1746C33.5114 29.7641 33.3598 30.3445 33.1485 30.7626C32.9344 31.1862 32.5961 31.5806 32.2152 31.9317ZM28.67 32.9499C31.0598 31.9335 32.7031 30.4185 32.3405 29.566C31.9779 28.7136 29.7468 28.8464 27.3571 29.8628C24.9674 30.8792 23.324 32.3942 23.6866 33.2467C24.0492 34.0991 26.2803 33.9663 28.67 32.9499Z" fill="#D89A24"/>
<path fill-rule="evenodd" clip-rule="evenodd" d="M31.7912 29.9597C31.7684 30.2349 31.5268 30.4395 31.2516 30.4167C30.5211 30.3562 29.594 30.6032 29.2224 30.739C28.9631 30.8338 28.676 30.7004 28.5811 30.4411C28.4863 30.1817 28.6197 29.8946 28.8791 29.7998C29.3055 29.6439 30.3925 29.3421 31.3342 29.4202C31.6094 29.443 31.814 29.6845 31.7912 29.9597Z" fill="#FFE58A"/>
</g>
<defs>
<clipPath id="clip0_598_673">
<rect width="48" height="48" fill="white"/>
</clipPath>
</defs>
</svg>
