<svg width="48" height="48" viewBox="0 0 48 48" fill="none" xmlns="http://www.w3.org/2000/svg">
<path d="M15.2625 15.5169C10.5896 15.1184 6.07445 18.9151 6.37636 23.5953C6.8611 32.1583 14.0507 35.1924 18.2919 35.1924C22.331 35.1924 29.3997 32.3199 30.2075 23.5953C30.5094 18.9151 25.9943 15.1184 21.3213 15.5169C20.0889 15.622 18.7228 16.3646 18.2919 16.4412C17.861 16.3646 16.495 15.622 15.2625 15.5169Z" fill="#00162B" fill-opacity="0.2"/>
<path fill-rule="evenodd" clip-rule="evenodd" d="M31.0129 23.6585L31.0118 23.6697C30.1543 32.9312 22.6141 36.0002 18.2919 36.0002C16.0059 36.0002 12.9728 35.1903 10.4343 33.2463C7.86996 31.2825 5.82714 28.1713 5.57 23.644C5.23334 18.3918 10.2509 14.2788 15.3312 14.712C16.0644 14.7745 16.8009 15.0208 17.3642 15.2344C17.5557 15.307 17.7438 15.3825 17.9044 15.447C17.9784 15.4767 18.0466 15.5041 18.1066 15.5278C18.1784 15.5561 18.2397 15.5797 18.2919 15.5988C18.3441 15.5797 18.4054 15.5561 18.4772 15.5278C18.5372 15.5041 18.6054 15.4767 18.6794 15.447C18.84 15.3825 19.0281 15.307 19.2196 15.2344C19.7829 15.0208 20.5194 14.7745 21.2526 14.712C26.3339 14.2787 31.3526 18.3934 31.0136 23.6473L31.0129 23.6585ZM18.2919 16.4412C18.1488 16.4158 17.9026 16.3169 17.5924 16.1923C16.9684 15.9417 16.0857 15.5871 15.2625 15.5169C10.5896 15.1184 6.07445 18.9151 6.37636 23.5953C6.8611 32.1583 14.0507 35.1924 18.2919 35.1924C22.331 35.1924 29.3997 32.3199 30.2075 23.5953C30.5094 18.9151 25.9943 15.1184 21.3213 15.5169C20.4981 15.5871 19.6154 15.9417 18.9915 16.1923C18.6812 16.3169 18.435 16.4158 18.2919 16.4412Z" fill="#00162B" fill-opacity="0.2"/>
<path d="M17.7934 14.0318C17.282 10.2659 14.2527 10.8717 12.4351 8.85213C12.9469 10.0996 16.0905 13.5313 17.7934 14.0318Z" fill="#73B40D"/>
<path fill-rule="evenodd" clip-rule="evenodd" d="M18.3366 14.6637C18.5509 14.4796 18.6572 14.1995 18.6192 13.9196C18.4755 12.8613 18.1453 12.0508 17.6589 11.4125C17.1762 10.7791 16.5815 10.3708 16.0031 10.0554C15.7163 9.89901 15.423 9.76008 15.1488 9.63124C15.1278 9.6214 15.107 9.61162 15.0863 9.60189C14.8291 9.48117 14.5888 9.36834 14.3531 9.24519C13.8495 8.98216 13.4159 8.6961 13.0545 8.2946C12.7834 7.99334 12.3348 7.93083 11.9917 8.14649C11.6485 8.36215 11.5103 8.79342 11.6641 9.16839C11.8376 9.5912 12.1901 10.1141 12.5914 10.6293C13.0067 11.1626 13.5228 11.7485 14.0746 12.3075C14.6257 12.8656 15.2241 13.4088 15.8059 13.8504C16.3711 14.2795 16.9845 14.6625 17.5585 14.8312C17.8295 14.9109 18.1224 14.8478 18.3366 14.6637ZM17.5686 13.027C17.6662 13.3229 17.7424 13.6555 17.7935 14.0317C17.5148 13.9498 17.1975 13.7894 16.8595 13.5729C15.8949 12.9551 14.7615 11.8805 13.874 10.8703C13.1722 10.0714 12.6241 9.31279 12.4351 8.85206C13.006 9.48639 13.6964 9.86172 14.3908 10.1948C14.5037 10.249 14.6167 10.302 14.7293 10.3549C15.909 10.9087 17.0458 11.4423 17.5686 13.027Z" fill="#436C02"/>
<path d="M18.0909 15.2434C18.6023 11.4775 21.7251 9.65984 23.7447 10.0638C20.7153 10.4677 21.5231 14.3049 18.0909 15.2434Z" fill="#73B40D"/>
<path fill-rule="evenodd" clip-rule="evenodd" d="M17.5418 15.8702C17.3314 15.6859 17.2276 15.4084 17.2652 15.1312C17.8292 10.9778 21.3337 8.7317 23.9082 9.24661C24.3077 9.32652 24.5908 9.68358 24.5776 10.0908C24.5644 10.498 24.2587 10.8359 23.8549 10.8898C22.8121 11.0288 22.433 11.6752 21.803 12.8476L21.7954 12.8617C21.1899 13.9883 20.3888 15.479 18.3107 16.0472C18.041 16.1209 17.7522 16.0545 17.5418 15.8702ZM18.2823 14.3012C18.2002 14.6003 18.1356 14.9144 18.0909 15.2434C18.4327 15.1499 18.7324 15.0277 18.9981 14.883C20.0798 14.2939 20.5967 13.3319 21.0872 12.419C21.3326 11.9624 21.5713 11.5181 21.8709 11.1389C22.3023 10.5927 22.8598 10.1818 23.7447 10.0638C23.0312 9.92106 22.1801 10.0556 21.355 10.4554C20.0486 11.0884 18.8077 12.3863 18.2823 14.3012Z" fill="#436C02"/>
<path fill-rule="evenodd" clip-rule="evenodd" d="M18.0899 8.42261C18.5502 8.42261 18.9233 8.7957 18.9233 9.25594V15.3147C18.9233 15.7749 18.5502 16.148 18.0899 16.148C17.6297 16.148 17.2566 15.7749 17.2566 15.3147V9.25594C17.2566 8.7957 17.6297 8.42261 18.0899 8.42261Z" fill="#457003"/>
<path d="M14.4547 14.7089C9.78174 14.3104 5.26662 18.1071 5.56854 22.7873C6.05327 31.3503 13.2429 34.3844 17.4841 34.3844C21.5232 34.3844 28.5918 31.5119 29.3996 22.7873C29.7016 18.1071 25.1864 14.3104 20.5135 14.7089C19.281 14.814 17.915 15.5566 17.4841 15.6333C17.0532 15.5566 15.6871 14.814 14.4547 14.7089Z" fill="#FF3A1A"/>
<path fill-rule="evenodd" clip-rule="evenodd" d="M30.2306 22.8525L30.2295 22.8641C29.3704 32.1425 21.8153 35.2177 17.4842 35.2177C15.1929 35.2177 12.1543 34.4062 9.61106 32.4585C7.04116 30.4905 4.99441 27.3726 4.7368 22.8376C4.39904 17.5672 9.43249 13.4443 14.5256 13.8786C15.2625 13.9414 16.0018 14.1888 16.5655 14.4025C16.7573 14.4752 16.9458 14.551 17.1065 14.6155C17.1804 14.6452 17.2485 14.6725 17.3082 14.6961C17.376 14.7228 17.4342 14.7452 17.4842 14.7636C17.5341 14.7452 17.5923 14.7228 17.6601 14.6961C17.7199 14.6725 17.7879 14.6452 17.8618 14.6155C18.0225 14.551 18.2111 14.4752 18.4028 14.4025C18.9665 14.1888 19.7058 13.9414 20.4427 13.8786C25.5369 13.4442 30.5715 17.569 30.2313 22.8409L30.2306 22.8525ZM17.4842 15.6332C17.3411 15.6078 17.0948 15.5089 16.7846 15.3843C16.1607 15.1337 15.2779 14.7791 14.4548 14.7089C9.78182 14.3104 5.2667 18.107 5.56862 22.7872C6.05335 31.3503 13.243 34.3843 17.4842 34.3843C21.5233 34.3843 28.5919 31.5119 29.3997 22.7872C29.7017 18.1071 25.1865 14.3104 20.5135 14.7089C19.6904 14.7791 18.8076 15.1337 18.1837 15.3843C17.8735 15.5089 17.6273 15.6078 17.4842 15.6332Z" fill="#A20505"/>
<path fill-rule="evenodd" clip-rule="evenodd" d="M7.48145 17.5025C9.17963 15.6173 11.7916 14.4818 14.4548 14.7089C15.278 14.7791 16.1607 15.1337 16.7847 15.3843C17.0949 15.5089 17.3411 15.6078 17.4842 15.6333C17.6273 15.6078 17.8735 15.5089 18.1837 15.3843C18.8077 15.1337 19.6904 14.7791 20.5136 14.7089C23.3319 14.4686 26.0929 15.7542 27.7743 17.8394C25.5823 16.7166 22.9453 16.1172 20.5136 16.3246C19.6904 16.3948 18.8077 16.7493 18.1838 16.9999C17.8735 17.1245 17.6273 17.2234 17.4842 17.2489C17.3411 17.2234 17.0949 17.1245 16.7847 16.9999C16.1608 16.7493 15.278 16.3948 14.4548 16.3246C11.941 16.1102 9.50364 16.5768 7.48145 17.5025Z" fill="#E83214"/>
<path fill-rule="evenodd" clip-rule="evenodd" d="M9.43604 31.2334C11.607 32.5953 14.0183 33.1727 15.8685 33.1727C19.9076 33.1727 26.9762 30.3002 27.784 21.5756C27.928 19.3442 26.9769 17.3136 25.4358 15.8428C27.885 17.2664 29.589 19.8532 29.3997 22.7874C28.5919 31.512 21.5233 34.3845 17.4842 34.3845C15.1575 34.3845 11.9436 33.4714 9.43604 31.2334Z" fill="#E83214"/>
<path d="M18.0898 13.798C20.9173 11.2757 21.7251 14.1032 24.3506 14.5071C23.0241 14.7495 19.4302 14.9615 18.0898 13.798Z" fill="#8ED918"/>
<path fill-rule="evenodd" clip-rule="evenodd" d="M17.2566 13.8035C17.255 13.564 17.3565 13.3354 17.5352 13.176C18.3065 12.488 19.0287 12.0834 19.7585 11.9652C20.5077 11.8439 21.1384 12.0445 21.6689 12.3099C21.9282 12.4396 22.1765 12.5915 22.4038 12.7338C22.4523 12.7643 22.4999 12.7942 22.5467 12.8237C22.7278 12.9377 22.8983 13.045 23.0791 13.1495C23.523 13.4058 23.9637 13.6043 24.4773 13.6834C24.8795 13.7452 25.1782 14.0885 25.1839 14.4953C25.1896 14.9021 24.9007 15.2536 24.5004 15.3268C23.7745 15.4594 22.4801 15.5773 21.1835 15.5119C20.533 15.4791 19.8575 15.3991 19.2402 15.2409C18.6337 15.0854 18.017 14.8381 17.5437 14.4272C17.3628 14.2702 17.2582 14.043 17.2566 13.8035ZM18.7673 13.2674C18.5544 13.409 18.3294 13.5842 18.0899 13.7979C18.2961 13.9769 18.5556 14.1233 18.852 14.2421C19.8353 14.6361 21.2243 14.7258 22.4182 14.69C23.2039 14.6664 23.9052 14.5884 24.3506 14.507C23.6767 14.4033 23.1226 14.14 22.6233 13.8484C22.4414 13.7422 22.2668 13.6323 22.0964 13.5249C21.0662 12.8761 20.1873 12.3227 18.7673 13.2674Z" fill="#436C02"/>
<path d="M17.484 14.103C15.8684 12.0833 14.0507 13.2951 10.6174 13.497C12.0311 14.3049 15.9104 14.924 17.484 14.103Z" fill="#8ED918"/>
<path fill-rule="evenodd" clip-rule="evenodd" d="M18.2995 14.2747C18.3509 14.0309 18.2905 13.7769 18.1348 13.5824C17.6533 12.9804 17.1184 12.5749 16.502 12.3464C15.8968 12.1221 15.2789 12.0934 14.6744 12.1356C14.1657 12.1711 13.613 12.2623 13.0524 12.3548C12.961 12.3699 12.8694 12.3851 12.7777 12.4C12.1065 12.5093 11.3831 12.6172 10.5686 12.6651C10.2004 12.6868 9.8903 12.9478 9.80615 13.3069C9.72201 13.6659 9.88386 14.0376 10.2041 14.2206C11.0539 14.7062 12.507 15.0804 13.8964 15.2388C14.606 15.3197 15.3363 15.3488 16.0074 15.2993C16.6646 15.2508 17.3315 15.1225 17.8695 14.8417C18.0904 14.7265 18.2482 14.5185 18.2995 14.2747ZM16.8406 13.4698C17.0606 13.6324 17.274 13.8404 17.4841 14.1029C17.2443 14.228 16.951 14.3197 16.6211 14.3823C15.4369 14.6072 13.7807 14.4585 12.4326 14.1407C11.691 13.9659 11.0427 13.74 10.6175 13.497C11.2944 13.4572 11.9084 13.3781 12.4705 13.2923C12.7216 13.254 12.9624 13.2143 13.1937 13.1762C14.7297 12.923 15.8511 12.7382 16.8406 13.4698Z" fill="#436C02"/>
<path d="M14.6387 17.1888C15.4688 18.424 14.6397 20.4348 12.7869 21.68C10.934 22.9252 8.75899 22.9333 7.92886 21.698C7.09873 20.4628 7.92783 18.452 9.78069 17.2068C11.6336 15.9616 13.8086 15.9535 14.6387 17.1888Z" fill="#FE7B7B"/>
<path fill-rule="evenodd" clip-rule="evenodd" d="M11.1981 18.1697C11.4683 18.5423 11.3852 19.0634 11.0126 19.3335C10.7399 19.5313 10.5348 19.7623 10.3857 20.0281C10.1606 20.4295 9.65274 20.5725 9.2513 20.3474C8.84985 20.1223 8.70689 19.6144 8.93197 19.213C9.20457 18.7268 9.57582 18.3167 10.0343 17.9843C10.4069 17.7141 10.9279 17.7971 11.1981 18.1697Z" fill="white"/>
<path d="M24.8011 26.1226C24.5344 26.4846 24.0248 26.5619 23.6628 26.2952C23.3008 26.0285 23.2236 25.5189 23.4903 25.1569C23.757 24.7949 24.2666 24.7177 24.6286 24.9843C24.9905 25.251 25.0678 25.7607 24.8011 26.1226Z" fill="#C5270E"/>
<path d="M26.0933 28.8072C25.8267 29.1692 25.317 29.2464 24.955 28.9798C24.5931 28.7131 24.5158 28.2034 24.7825 27.8415C25.0492 27.4795 25.5588 27.4022 25.9208 27.6689C26.2828 27.9356 26.36 28.4452 26.0933 28.8072Z" fill="#C5270E"/>
<path d="M27.0634 26.0533C26.8633 26.3248 26.4811 26.3827 26.2096 26.1827C25.9381 25.9827 25.8802 25.6005 26.0802 25.329C26.2802 25.0575 26.6625 24.9995 26.9339 25.1996C27.2054 25.3996 27.2634 25.7818 27.0634 26.0533Z" fill="#C5270E"/>
<path d="M24.0399 30.9168C23.7732 31.2788 23.2636 31.3561 22.9016 31.0894C22.5396 30.8227 22.4623 30.3131 22.729 29.9511C22.9957 29.5891 23.5054 29.5118 23.8673 29.7785C24.2293 30.0452 24.3066 30.5549 24.0399 30.9168Z" fill="#C5270E"/>
<path d="M23.2581 28.2721C22.9915 28.634 22.4818 28.7113 22.1198 28.4446C21.7579 28.1779 21.6806 27.6683 21.9473 27.3063C22.214 26.9443 22.7236 26.8671 23.0856 27.1338C23.4476 27.4004 23.5248 27.9101 23.2581 28.2721Z" fill="#C5270E"/>
<path d="M21.0057 32.1287C20.739 32.4907 20.2294 32.568 19.8674 32.3013C19.5054 32.0346 19.4282 31.525 19.6949 31.163C19.9615 30.801 20.4712 30.7238 20.8332 30.9904C21.1951 31.2571 21.2724 31.7668 21.0057 32.1287Z" fill="#C5270E"/>
<path d="M20.6883 29.5648C20.4216 29.9268 19.912 30.004 19.55 29.7373C19.188 29.4706 19.1108 28.961 19.3775 28.599C19.6442 28.237 20.1538 28.1598 20.5158 28.4265C20.8778 28.6932 20.955 29.2028 20.6883 29.5648Z" fill="#C5270E"/>
<path d="M17.8248 32.5633C17.6248 32.8348 17.2426 32.8927 16.9711 32.6927C16.6996 32.4927 16.6417 32.1105 16.8417 31.839C17.0417 31.5675 17.4239 31.5096 17.6954 31.7096C17.9669 31.9096 18.0248 32.2918 17.8248 32.5633Z" fill="#C5270E"/>
<path d="M31.622 28.4054C26.6827 33.7235 21.9673 43.1264 17.0723 38.4725C12.1773 33.8186 21.3462 28.6498 26.2855 23.3317C31.2248 18.0137 35.1005 16.2816 36.5741 17.6827C38.0478 19.0837 36.5613 23.0873 31.622 28.4054Z" fill="#00162B" fill-opacity="0.2"/>
<path fill-rule="evenodd" clip-rule="evenodd" d="M20.934 40.479C19.3964 40.8739 17.8808 40.4705 16.466 39.1253C15.0508 37.7798 14.5661 36.2795 14.8849 34.7108C15.1835 33.2419 16.1636 31.8438 17.3381 30.5461C18.5267 29.2329 20.0227 27.909 21.4915 26.6117L21.5438 26.5655C23.0124 25.2685 24.4554 23.994 25.6403 22.7183C28.1462 20.0201 30.4294 18.1784 32.324 17.1911C33.2696 16.6984 34.1656 16.3935 34.9742 16.333C35.795 16.2716 36.5835 16.4623 37.1805 17.0299C37.778 17.5979 38.0138 18.382 38.002 19.2142C37.9903 20.0332 37.7423 20.9548 37.3126 21.9376C36.4516 23.9068 34.7724 26.3216 32.2672 29.0189C31.1374 30.2353 30.015 31.6765 28.8699 33.1468C28.7962 33.2414 28.7224 33.3362 28.6485 33.4311C27.4406 34.9809 26.2036 36.5517 24.9563 37.8122C23.723 39.0586 22.3801 40.1076 20.934 40.479ZM28.1816 32.5832C29.3196 31.1219 30.4646 29.6515 31.622 28.4054C36.5613 23.0873 38.0478 19.0837 36.5741 17.6827C35.1005 16.2816 31.2248 18.0137 26.2855 23.3317C25.0704 24.64 23.5992 25.9393 22.1445 27.2241C17.686 31.1618 13.3816 34.9635 17.0723 38.4725C20.8203 42.0359 24.463 37.3582 28.1816 32.5832Z" fill="#00162B" fill-opacity="0.2"/>
<path d="M37.2893 33.5636C31.5466 37.9791 26.3069 46.7029 21.3928 40.1605C16.4787 33.6181 26.1893 30.8467 31.932 26.4312C37.6747 22.0157 40.7095 22.201 42.1889 24.1706C43.6683 26.1401 43.032 29.1481 37.2893 33.5636Z" fill="#00162B" fill-opacity="0.2"/>
<path fill-rule="evenodd" clip-rule="evenodd" d="M25.1194 43.4063C23.4976 43.364 22.0225 42.4794 20.6879 40.7025C19.3532 38.9257 18.9059 37.2508 19.3 35.6586C19.6798 34.1238 20.7962 32.8718 22.1108 31.8006C23.4351 30.7214 25.0917 29.7238 26.7205 28.7483C26.7601 28.7245 26.7997 28.7008 26.8393 28.6771C28.4522 27.7112 30.0427 26.7587 31.3963 25.7179C34.3099 23.4777 36.646 22.3144 38.5242 22.0211C39.4774 21.8723 40.3344 21.9443 41.086 22.2352C41.8406 22.5273 42.4366 23.0198 42.8938 23.6285C43.3511 24.2373 43.6605 24.9501 43.7365 25.7639C43.8122 26.5745 43.6513 27.4293 43.2543 28.3186C42.4721 30.0709 40.7386 32.0366 37.825 34.2769C36.4715 35.3176 35.1384 36.613 33.7867 37.9266L33.6871 38.0233C32.3219 39.3498 30.9283 40.6975 29.546 41.6995C28.1739 42.6941 26.6826 43.447 25.1194 43.4063ZM33.1906 37.2637C34.5289 35.9632 35.8942 34.6363 37.2893 33.5636C43.032 29.1481 43.6683 26.1401 42.1889 24.1706C40.7095 22.201 37.6747 22.0157 31.932 26.4312C30.537 27.5038 28.9077 28.4794 27.3109 29.4357C22.3344 32.4157 17.6725 35.2074 21.3928 40.1605C25.1131 45.1135 29.0201 41.3167 33.1906 37.2637Z" fill="#00162B" fill-opacity="0.2"/>
<path d="M30.7366 27.5094C25.7974 32.8275 21.0819 42.2305 16.187 37.5765C11.292 32.9226 20.4609 27.7538 25.4002 22.4358C30.3394 17.1177 34.2152 15.3857 35.6888 16.7867C37.1624 18.1878 35.6759 22.1914 30.7366 27.5094Z" fill="#4CAA1F"/>
<path fill-rule="evenodd" clip-rule="evenodd" d="M20.0488 39.5832C18.5112 39.9782 16.9955 39.5747 15.5807 38.2295C14.1655 36.884 13.6808 35.3837 13.9997 33.815C14.2982 32.3461 15.2783 30.948 16.4528 29.6503C17.6414 28.3371 19.1375 27.0132 20.6063 25.7159L20.6586 25.6697C22.1271 24.3727 23.5702 23.0982 24.755 21.8225C27.261 19.1243 29.5441 17.2826 31.4388 16.2953C32.3843 15.8026 33.2803 15.4977 34.0889 15.4372C34.9098 15.3758 35.6982 15.5665 36.2952 16.1341C36.8927 16.7021 37.1285 17.4862 37.1167 18.3184C37.1051 19.1374 36.857 20.059 36.4274 21.0418C35.5664 23.011 33.8871 25.4258 31.382 28.1231C30.2521 29.3395 29.1298 30.7807 27.9847 32.251C27.911 32.3456 27.8371 32.4404 27.7632 32.5353C26.5554 34.0851 25.3183 35.6559 24.071 36.9164C22.8378 38.1628 21.4948 39.2118 20.0488 39.5832ZM27.2963 31.6874C28.4343 30.2261 29.5794 28.7557 30.7367 27.5096C35.676 22.1916 37.1625 18.1879 35.6889 16.7869C34.2152 15.3858 30.3395 17.1179 25.4002 22.4359C24.1851 23.7442 22.714 25.0435 21.2592 26.3283C16.8008 30.266 12.4963 34.0677 16.187 37.5767C19.935 41.1401 23.5778 36.4624 27.2963 31.6874Z" fill="#2B710A"/>
<path fill-rule="evenodd" clip-rule="evenodd" d="M26.5573 28.0039C27.581 26.6656 28.6111 25.3189 29.6631 24.1863C32.6674 20.9516 34.218 18.2059 34.4735 16.3235C34.974 16.3404 35.3831 16.4962 35.6888 16.7869C37.1624 18.1879 35.6759 22.1916 30.7366 27.5096C29.5792 28.7557 28.4342 30.2261 27.2962 31.6874C23.5777 36.4624 19.9349 41.1401 16.1869 37.5767C14.4221 35.8987 14.4854 34.1539 15.5196 32.3592C15.706 32.6049 15.9276 32.851 16.1869 33.0975C19.9349 36.661 23.212 32.377 26.5573 28.0039Z" fill="#419C15"/>
<path d="M30.5495 18.87C31.1719 19.8953 27.5375 24.6929 23.6875 27.8283C21.3098 29.7646 17.0468 33.2033 16.8872 31.7259C16.3872 31.1391 21.3249 26.8472 23.4662 25.1409C28.1146 21.4365 29.6224 18.1037 30.5495 18.87Z" fill="#5FCF2A"/>
<path fill-rule="evenodd" clip-rule="evenodd" d="M21.5656 27.9595C21.7385 28.1344 21.7385 28.418 21.5656 28.5929C20.8964 29.2701 20.3386 29.7079 19.6591 30.2415C19.4162 30.4322 19.1577 30.6351 18.873 30.8656C18.682 31.0201 18.4034 30.9888 18.2507 30.7956C18.098 30.6024 18.1289 30.3206 18.3198 30.166C18.6285 29.9162 18.8995 29.7034 19.1479 29.5084C19.8106 28.988 20.3123 28.5941 20.9396 27.9595C21.1124 27.7846 21.3928 27.7846 21.5656 27.9595Z" fill="#A0EA29"/>
<path d="M36.572 32.7285C30.8293 37.144 25.5896 45.8677 20.6755 39.3253C15.7615 32.783 25.472 30.0115 31.2147 25.596C36.9574 21.1805 39.9922 21.3658 41.4716 23.3354C42.951 25.305 42.3147 28.313 36.572 32.7285Z" fill="#58C923"/>
<path fill-rule="evenodd" clip-rule="evenodd" d="M24.402 42.5712C22.7802 42.5289 21.3051 41.6444 19.9705 39.8675C18.6359 38.0906 18.1886 36.4158 18.5826 34.8235C18.9625 33.2887 20.0788 32.0367 21.3934 30.9655C22.7178 29.8864 24.3744 28.8888 26.0031 27.9132C26.0428 27.8895 26.0824 27.8658 26.1219 27.8421C27.7348 26.8762 29.3254 25.9236 30.6789 24.8829C33.5926 22.6426 35.9287 21.4793 37.8068 21.1861C38.76 21.0372 39.6171 21.1093 40.3687 21.4002C41.1233 21.6922 41.7193 22.1847 42.1765 22.7935C42.6337 23.4022 42.9431 24.1151 43.0192 24.9289C43.0949 25.7395 42.934 26.5942 42.537 27.4836C41.7547 29.2359 40.0213 31.2016 37.1077 33.4418C35.7541 34.4826 34.4211 35.7779 33.0694 37.0915L32.9698 37.1883C31.6046 38.5148 30.211 39.8625 28.8286 40.8645C27.4565 41.859 25.9653 42.612 24.402 42.5712ZM32.4733 36.4286C33.8115 35.1281 35.1769 33.8012 36.572 32.7286C42.3146 28.3131 42.9509 25.3051 41.4715 23.3355C39.9922 21.3659 36.9574 21.1806 31.2147 25.5961C29.8196 26.6688 28.1904 27.6444 26.5936 28.6006C21.6171 31.5807 16.9552 34.3724 20.6755 39.3254C24.3958 44.2785 28.3027 40.4816 32.4733 36.4286Z" fill="#2B710A"/>
<path fill-rule="evenodd" clip-rule="evenodd" d="M31.5878 34.6369C32.9261 33.3364 34.2914 32.0095 35.6865 30.9369C40.1284 27.5216 41.5152 24.9483 41.231 23.0464C41.3154 23.1378 41.3955 23.2343 41.4715 23.3355C42.9509 25.3051 42.3146 28.3131 36.5719 32.7286C35.1769 33.8012 33.8115 35.1281 32.4732 36.4286C28.3027 40.4816 24.3957 44.2785 20.6754 39.3254C20.092 38.5486 19.7147 37.825 19.5125 37.1455C19.5992 37.2735 19.6917 37.4028 19.79 37.5337C23.5103 42.4868 27.4173 38.6899 31.5878 34.6369Z" fill="#4CAA1F"/>
<path d="M35.2394 25.9069C35.8618 26.9322 27.6717 32.7552 27.6717 32.7552C27.6717 32.7552 20.9288 36.7915 20.4287 36.2048C19.9286 35.618 23.0044 32.5093 25.4581 31.3085C31.9191 28.1465 34.3123 25.1406 35.2394 25.9069Z" fill="#79E645"/>
<path fill-rule="evenodd" clip-rule="evenodd" d="M28.2739 30.7396C28.4199 30.9381 28.3791 31.2187 28.183 31.3663C27.6312 31.7817 26.6504 32.3489 25.6959 32.9009C25.6237 32.9427 25.5517 32.9844 25.48 33.0259C24.4273 33.6353 23.4606 34.2045 23.0257 34.5739C22.8385 34.733 22.5592 34.7084 22.402 34.5189C22.2448 34.3295 22.2691 34.0469 22.4564 33.8879C22.9678 33.4534 24.0237 32.8368 25.0402 32.2483C25.1033 32.2118 25.1662 32.1754 25.2289 32.1391C26.2112 31.5708 27.148 31.0288 27.6545 30.6476C27.8507 30.4999 28.128 30.5411 28.2739 30.7396Z" fill="white"/>
<path d="M28.0162 28.9294C28.0162 29.2489 27.7602 29.5079 27.4444 29.5079C27.1286 29.5079 26.8726 29.2489 26.8726 28.9294C26.8726 28.6099 27.1286 28.3508 27.4444 28.3508C27.7602 28.3508 28.0162 28.6099 28.0162 28.9294Z" fill="#47A21D"/>
<path d="M31.8282 27.3867C31.8282 27.7062 31.5722 27.9652 31.2564 27.9652C30.9406 27.9652 30.6846 27.7062 30.6846 27.3867C30.6846 27.0671 30.9406 26.8081 31.2564 26.8081C31.5722 26.8081 31.8282 27.0671 31.8282 27.3867Z" fill="#47A21D"/>
<path d="M34.1156 25.0722C34.1156 25.3917 33.8596 25.6508 33.5438 25.6508C33.2279 25.6508 32.9719 25.3917 32.9719 25.0722C32.9719 24.7527 33.2279 24.4937 33.5438 24.4937C33.8596 24.4937 34.1156 24.7527 34.1156 25.0722Z" fill="#47A21D"/>
<path d="M24.5851 32.0151C24.5851 32.3346 24.3291 32.5936 24.0132 32.5936C23.6974 32.5936 23.4414 32.3346 23.4414 32.0151C23.4414 31.6956 23.6974 31.4365 24.0132 31.4365C24.3291 31.4365 24.5851 31.6956 24.5851 32.0151Z" fill="#47A21D"/>
<path d="M29.9221 27.5793C29.9221 27.7923 29.7514 27.965 29.5409 27.965C29.3303 27.965 29.1597 27.7923 29.1597 27.5793C29.1597 27.3663 29.3303 27.1936 29.5409 27.1936C29.7514 27.1936 29.9221 27.3663 29.9221 27.5793Z" fill="#47A21D"/>
<path d="M29.1597 29.508C29.1597 29.721 28.989 29.8937 28.7784 29.8937C28.5679 29.8937 28.3972 29.721 28.3972 29.508C28.3972 29.295 28.5679 29.1223 28.7784 29.1223C28.989 29.1223 29.1597 29.295 29.1597 29.508Z" fill="#47A21D"/>
<path d="M32.5908 25.6508C32.5908 25.8639 32.4201 26.0366 32.2096 26.0366C31.999 26.0366 31.8284 25.8639 31.8284 25.6508C31.8284 25.4378 31.999 25.2651 32.2096 25.2651C32.4201 25.2651 32.5908 25.4378 32.5908 25.6508Z" fill="#47A21D"/>
<path d="M35.6406 24.1081C35.6406 24.3211 35.4699 24.4938 35.2594 24.4938C35.0489 24.4938 34.8782 24.3211 34.8782 24.1081C34.8782 23.8951 35.0489 23.7224 35.2594 23.7224C35.4699 23.7224 35.6406 23.8951 35.6406 24.1081Z" fill="#47A21D"/>
<path d="M22.6789 32.5935C22.6789 32.8065 22.5083 32.9792 22.2977 32.9792C22.0872 32.9792 21.9165 32.8065 21.9165 32.5935C21.9165 32.3805 22.0872 32.2078 22.2977 32.2078C22.5083 32.2078 22.6789 32.3805 22.6789 32.5935Z" fill="#47A21D"/>
<path d="M25.3476 30.665C25.3476 30.878 25.177 31.0507 24.9664 31.0507C24.7559 31.0507 24.5852 30.878 24.5852 30.665C24.5852 30.452 24.7559 30.2793 24.9664 30.2793C25.177 30.2793 25.3476 30.452 25.3476 30.665Z" fill="#47A21D"/>
<path d="M27.2536 30.2795C27.2536 30.7055 26.9123 31.0509 26.4912 31.0509C26.0701 31.0509 25.7288 30.7055 25.7288 30.2795C25.7288 29.8534 26.0701 29.5081 26.4912 29.5081C26.9123 29.5081 27.2536 29.8534 27.2536 30.2795Z" fill="#47A21D"/>
<path d="M30.3281 35.4426C30.3281 35.8137 30.0308 36.1145 29.6641 36.1145C29.2973 36.1145 29 35.8137 29 35.4426C29 35.0716 29.2973 34.7708 29.6641 34.7708C30.0308 34.7708 30.3281 35.0716 30.3281 35.4426Z" fill="#79E745"/>
<path d="M27.6719 39.9219C27.6719 40.2929 27.3746 40.5938 27.0078 40.5938C26.6411 40.5938 26.3438 40.2929 26.3438 39.9219C26.3438 39.5508 26.6411 39.25 27.0078 39.25C27.3746 39.25 27.6719 39.5508 27.6719 39.9219Z" fill="#79E745"/>
<path d="M34.7551 33.2031C34.7551 33.5742 34.4578 33.875 34.0911 33.875C33.7243 33.875 33.427 33.5742 33.427 33.2031C33.427 32.8321 33.7243 32.5312 34.0911 32.5312C34.4578 32.5312 34.7551 32.8321 34.7551 33.2031Z" fill="#79E745"/>
<path d="M39.625 29.1719C39.625 29.5429 39.3277 29.8438 38.9609 29.8438C38.5942 29.8438 38.2969 29.5429 38.2969 29.1719C38.2969 28.8008 38.5942 28.5 38.9609 28.5C39.3277 28.5 39.625 28.8008 39.625 29.1719Z" fill="#79E745"/>
<path d="M31.6562 36.1147C31.6562 36.362 31.458 36.5626 31.2135 36.5626C30.969 36.5626 30.7708 36.362 30.7708 36.1147C30.7708 35.8673 30.969 35.6667 31.2135 35.6667C31.458 35.6667 31.6562 35.8673 31.6562 36.1147Z" fill="#79E745"/>
<path d="M36.0832 32.0834C36.0832 32.3308 35.885 32.5313 35.6405 32.5313C35.396 32.5313 35.1978 32.3308 35.1978 32.0834C35.1978 31.836 35.396 31.6355 35.6405 31.6355C35.885 31.6355 36.0832 31.836 36.0832 32.0834Z" fill="#79E745"/>
<path d="M33.4271 34.3228C33.4271 34.8176 33.0307 35.2187 32.5417 35.2187C32.0527 35.2187 31.6562 34.8176 31.6562 34.3228C31.6562 33.8281 32.0527 33.427 32.5417 33.427C33.0307 33.427 33.4271 33.8281 33.4271 34.3228Z" fill="#79E745"/>
<path d="M37.4115 30.7396C37.4115 31.2343 37.015 31.6354 36.526 31.6354C36.037 31.6354 35.6406 31.2343 35.6406 30.7396C35.6406 30.2448 36.037 29.8438 36.526 29.8438C37.015 29.8438 37.4115 30.2448 37.4115 30.7396Z" fill="#79E745"/>
<path d="M29.4427 37.9063C29.4427 38.4011 29.0463 38.8022 28.5573 38.8022C28.0683 38.8022 27.6719 38.4011 27.6719 37.9063C27.6719 37.4116 28.0683 37.0105 28.5573 37.0105C29.0463 37.0105 29.4427 37.4116 29.4427 37.9063Z" fill="#79E745"/>
</svg>
