<svg width="48" height="48" viewBox="0 0 48 48" fill="none" xmlns="http://www.w3.org/2000/svg">
<path d="M26.5397 15.8053C17.0083 18.4189 10.0049 23.3532 5.67181 30.304C1.33871 37.2548 5.50418 41.7857 12.4602 41.199C19.4161 40.6124 31.0653 36.6734 38.0213 31.4774C44.9772 26.2814 44.642 22.5938 43.4687 19.912C42.2954 17.2302 36.9318 12.9558 26.5397 15.8053Z" fill="#FAB13D"/>
<path fill-rule="evenodd" clip-rule="evenodd" d="M4.82327 29.775C9.31239 22.5739 16.5468 17.5086 26.2753 14.841C36.9934 11.9021 42.955 16.243 44.3849 19.5112C45.0312 20.9885 45.4862 22.8482 44.7417 25.0697C44.0116 27.248 42.1784 29.6204 38.6198 32.2786C35.0388 34.9536 30.2919 37.2777 25.5854 39.0055C20.8801 40.7329 16.1383 41.8924 12.5443 42.1955C8.88161 42.5044 5.67303 41.4888 4.01729 39.1571C2.32201 36.7696 2.54301 33.4328 4.82327 29.775ZM5.67187 30.304C10.005 23.3532 17.0083 18.4189 26.5398 15.8054C36.9318 12.9559 42.2954 17.2302 43.4687 19.912C44.642 22.5939 44.9773 26.2814 38.0213 31.4775C31.0654 36.6735 19.4162 40.6124 12.4602 41.1991C5.50424 41.7857 1.33877 37.2548 5.67187 30.304Z" fill="#B7690D"/>
<path d="M13.1499 23.7957C9.23441 26.1919 6.7464 29.2973 5.71006 32.9578C4.67371 36.6184 7.117 38.1024 10.1449 36.943C13.1729 35.7835 13.8718 32.2341 16.3049 29.018C18.738 25.8019 21.3699 24.5825 21.3699 22.819C21.3699 21.4582 17.4189 21.1832 13.1499 23.7957Z" fill="#FCC66F"/>
<path fill-rule="evenodd" clip-rule="evenodd" d="M11.6718 27.3528C12.081 27.7236 12.1121 28.356 11.7412 28.7653C10.232 30.4306 9.58443 31.8634 9.08507 32.9682C9.02418 33.103 8.96549 33.2328 8.90771 33.3576C8.67568 33.8588 8.0813 34.077 7.58012 33.845C7.07894 33.6129 6.86075 33.0186 7.09277 32.5174C7.14656 32.4012 7.20274 32.2766 7.26247 32.144C7.76911 31.02 8.53124 29.329 10.2593 27.4222C10.6301 27.013 11.2625 26.9819 11.6718 27.3528Z" fill="#FFDFAD"/>
<path fill-rule="evenodd" clip-rule="evenodd" d="M8.89111 41.0096C16.5683 39.4673 26.6351 35.6163 33.0868 30.797C40.8552 24.9941 40.4808 20.8758 39.1704 17.8807C38.8341 17.1119 38.1894 16.226 37.2205 15.3875C40.7688 16.3364 42.7997 18.383 43.4686 19.912C44.6419 22.5938 44.9772 26.2814 38.0212 31.4774C31.0653 36.6734 19.4161 40.6123 12.4601 41.199C11.1607 41.3086 9.95859 41.2396 8.89111 41.0096Z" fill="#EDA024"/>
<path d="M19.1647 31.8126C17.2874 28.1251 11.7338 26.1976 9.19165 25.6947C10.1303 24.1527 12.0411 22.8732 12.8792 22.4263C16.9689 24.974 18.7736 29.7454 19.1647 31.8126Z" fill="#D08814"/>
<path d="M27.6068 28.4889C25.4144 23.4995 20.359 19.6176 17.8169 19.1148C19.4422 17.754 22.6108 17.0292 23.4489 16.5823C28.136 19.1148 27.2157 26.4217 27.6068 28.4889Z" fill="#A56112"/>
<path d="M35.847 22.7434C33.8058 17.6406 31.3203 16.5697 29.1314 15.1826C30.2905 14.6923 33.2787 14.8063 34.2216 14.6923C36.1872 17.4137 36.1872 19.6061 35.847 22.7434Z" fill="#9C5807"/>
<path fill-rule="evenodd" clip-rule="evenodd" d="M12.4899 22.4679C12.5481 22.198 12.8141 22.0264 13.084 22.0846C14.1924 22.3236 15.5993 23.2253 16.89 24.7308C18.1922 26.2496 19.4084 28.4182 20.1164 31.2596C20.1831 31.5275 20.02 31.7989 19.7521 31.8656C19.4841 31.9324 19.2128 31.7693 19.146 31.5013C18.4743 28.8052 17.3281 26.7781 16.1309 25.3817C14.9222 23.972 13.6926 23.2388 12.8732 23.0621C12.6033 23.0039 12.4316 22.7379 12.4899 22.4679Z" fill="#FFDFAC"/>
<path fill-rule="evenodd" clip-rule="evenodd" d="M23.7177 16.4872C23.8746 16.26 24.1861 16.2029 24.4133 16.3598C25.3221 16.9873 26.3617 18.4133 27.1718 20.3951C27.9901 22.3969 28.5981 25.022 28.5981 28.1109C28.5981 28.3871 28.3742 28.6109 28.0981 28.6109C27.8219 28.6109 27.5981 28.3871 27.5981 28.1109C27.5981 25.152 27.0154 22.6554 26.2461 20.7734C25.4687 18.8714 24.5238 17.6514 23.8451 17.1827C23.6179 17.0258 23.5608 16.7144 23.7177 16.4872Z" fill="#FFDFAC"/>
<path fill-rule="evenodd" clip-rule="evenodd" d="M34.2133 14.6206C34.3885 14.4073 34.7036 14.3764 34.917 14.5516C35.8268 15.299 36.4706 16.569 36.815 17.9958C37.1622 19.4344 37.2213 21.0952 36.9044 22.6897C36.8505 22.9606 36.5873 23.1365 36.3165 23.0827C36.0456 23.0288 35.8697 22.7656 35.9236 22.4948C36.2114 21.0465 36.1571 19.5322 35.8429 18.2304C35.5258 16.9168 34.96 15.8811 34.2823 15.3244C34.0689 15.1491 34.038 14.834 34.2133 14.6206Z" fill="#FFDFAC"/>
<path d="M35.7209 29.268C35.5925 29.7921 35.1747 30.1402 34.7879 30.0454C34.401 29.9506 34.1915 29.4488 34.3199 28.9247C34.4484 28.4005 34.8661 28.0524 35.253 28.1472C35.6399 28.2421 35.8494 28.7438 35.7209 29.268Z" fill="#D48A15"/>
<path d="M32.2602 30.5845C32.1559 31.0103 31.8165 31.2931 31.5022 31.216C31.188 31.139 31.0178 30.7314 31.1221 30.3056C31.2265 29.8798 31.5658 29.5971 31.8801 29.6741C32.1944 29.7511 32.3645 30.1587 32.2602 30.5845Z" fill="#D48A15"/>
<path d="M34.736 31.8697C34.6317 32.2955 34.2923 32.5782 33.9781 32.5012C33.6638 32.4242 33.4936 32.0166 33.5979 31.5908C33.7023 31.165 34.0416 30.8823 34.3559 30.9593C34.6702 31.0363 34.8404 31.4439 34.736 31.8697Z" fill="#D48A15"/>
<path d="M33.853 27.1087C33.7486 27.5345 33.4093 27.8172 33.095 27.7402C32.7807 27.6632 32.6105 27.2556 32.7149 26.8298C32.8192 26.404 33.1586 26.1213 33.4729 26.1983C33.7871 26.2753 33.9573 26.6829 33.853 27.1087Z" fill="#D48A15"/>
<path d="M38.1579 28.1963C38.0536 28.6221 37.7142 28.9049 37.3999 28.8279C37.0857 28.7508 36.9155 28.3432 37.0198 27.9174C37.1242 27.4917 37.4635 27.2089 37.7778 27.2859C38.0921 27.3629 38.2622 27.7705 38.1579 28.1963Z" fill="#D48A15"/>
<path d="M36.9383 26.4537C36.8206 26.9338 36.4379 27.2527 36.0835 27.1658C35.7291 27.079 35.5372 26.6193 35.6549 26.1392C35.7725 25.659 36.1552 25.3402 36.5096 25.427C36.864 25.5139 37.0559 25.9735 36.9383 26.4537Z" fill="#D48A15"/>
<path d="M40.7938 26.7313C40.6761 27.2114 40.2934 27.5303 39.939 27.4434C39.5846 27.3566 39.3927 26.8969 39.5103 26.4168C39.628 25.9366 40.0107 25.6178 40.3651 25.7046C40.7195 25.7915 40.9114 26.2511 40.7938 26.7313Z" fill="#D48A15"/>
<path d="M39.8433 24.6781C39.7257 25.1582 39.343 25.4771 38.9886 25.3902C38.6342 25.3034 38.4422 24.8437 38.5599 24.3636C38.6776 23.8834 39.0603 23.5645 39.4147 23.6514C39.7691 23.7382 39.961 24.1979 39.8433 24.6781Z" fill="#D48A15"/>
<path d="M43.1695 24.3519C43.0518 24.832 42.6691 25.1509 42.3147 25.064C41.9603 24.9772 41.7684 24.5175 41.8861 24.0374C42.0037 23.5572 42.3864 23.2384 42.7408 23.3252C43.0952 23.4121 43.2871 23.8717 43.1695 24.3519Z" fill="#D48A15"/>
<path d="M39.7173 28.8317C39.6403 29.1459 39.3899 29.3546 39.1579 29.2977C38.926 29.2409 38.8004 28.9401 38.8774 28.6259C38.9544 28.3116 39.2049 28.103 39.4368 28.1598C39.6687 28.2166 39.7943 28.5174 39.7173 28.8317Z" fill="#D48A15"/>
<path d="M37.1092 30.7973C37.0322 31.1115 36.7817 31.3201 36.5498 31.2633C36.3179 31.2065 36.1923 30.9057 36.2693 30.5914C36.3463 30.2772 36.5967 30.0685 36.8286 30.1254C37.0606 30.1822 37.1862 30.483 37.1092 30.7973Z" fill="#D48A15"/>
<path d="M29.9463 34.6337C29.8693 34.9479 29.6189 35.1566 29.387 35.0997C29.155 35.0429 29.0294 34.7421 29.1064 34.4279C29.1834 34.1136 29.4339 33.905 29.6658 33.9618C29.8977 34.0186 30.0233 34.3194 29.9463 34.6337Z" fill="#D48A15"/>
<path d="M32.6653 32.7435C32.5883 33.0578 32.3379 33.2664 32.1059 33.2096C31.874 33.1528 31.7484 32.852 31.8254 32.5377C31.9024 32.2235 32.1529 32.0148 32.3848 32.0717C32.6167 32.1285 32.7423 32.4293 32.6653 32.7435Z" fill="#D48A15"/>
<path d="M30.6553 32.3603C30.5927 32.6158 30.389 32.7855 30.2004 32.7393C30.0118 32.6931 29.9097 32.4484 29.9723 32.1929C30.0349 31.9374 30.2386 31.7677 30.4272 31.8139C30.6158 31.8601 30.7179 32.1047 30.6553 32.3603Z" fill="#D48A15"/>
<path d="M31.5467 28.4486C31.4697 28.7629 31.2192 28.9715 30.9873 28.9147C30.7554 28.8578 30.6298 28.557 30.7068 28.2428C30.7838 27.9286 31.0342 27.7199 31.2661 27.7767C31.4981 27.8336 31.6237 28.1344 31.5467 28.4486Z" fill="#D48A15"/>
<path d="M35.4405 25.1842C35.3635 25.4984 35.113 25.7071 34.8811 25.6503C34.6492 25.5934 34.5236 25.2926 34.6006 24.9784C34.6776 24.6642 34.928 24.4555 35.1599 24.5123C35.3919 24.5692 35.5175 24.87 35.4405 25.1842Z" fill="#D48A15"/>
<path d="M38.0088 23.1046C37.9318 23.4189 37.6814 23.6275 37.4495 23.5707C37.2175 23.5139 37.0919 23.213 37.1689 22.8988C37.2459 22.5846 37.4964 22.3759 37.7283 22.4327C37.9602 22.4896 38.0858 22.7904 38.0088 23.1046Z" fill="#D48A15"/>
<path d="M40.8675 22.599C40.7905 22.9132 40.54 23.1219 40.3081 23.0651C40.0762 23.0082 39.9506 22.7074 40.0276 22.3932C40.1046 22.079 40.355 21.8703 40.5869 21.9271C40.8189 21.984 40.9445 22.2848 40.8675 22.599Z" fill="#D48A15"/>
<path d="M42.6673 22.3932C42.5903 22.7074 42.3398 22.9161 42.1079 22.8593C41.876 22.8024 41.7504 22.5016 41.8274 22.1874C41.9044 21.8731 42.1548 21.6645 42.3868 21.7213C42.6187 21.7782 42.7443 22.079 42.6673 22.3932Z" fill="#D48A15"/>
</svg>
