<svg width="240" height="80" viewBox="0 0 240 80" fill="none" xmlns="http://www.w3.org/2000/svg">
<path d="M110.78 32.18C110.084 30.716 109.076 29.588 107.756 28.796C106.436 27.98 104.9 27.572 103.148 27.572C101.396 27.572 99.812 27.98 98.396 28.796C97.004 29.588 95.9 30.74 95.084 32.252C94.292 33.74 93.896 35.468 93.896 37.436C93.896 39.404 94.292 41.132 95.084 42.62C95.9 44.108 97.004 45.26 98.396 46.076C99.812 46.868 101.396 47.264 103.148 47.264C105.596 47.264 107.612 46.532 109.196 45.068C110.78 43.604 111.704 41.624 111.968 39.128H101.96V36.464H115.46V38.984C115.268 41.048 114.62 42.944 113.516 44.672C112.412 46.376 110.96 47.732 109.16 48.74C107.36 49.724 105.356 50.216 103.148 50.216C100.82 50.216 98.696 49.676 96.776 48.596C94.856 47.492 93.332 45.968 92.204 44.024C91.1 42.08 90.548 39.884 90.548 37.436C90.548 34.988 91.1 32.792 92.204 30.848C93.332 28.88 94.856 27.356 96.776 26.276C98.696 25.172 100.82 24.62 103.148 24.62C105.812 24.62 108.164 25.28 110.204 26.6C112.268 27.92 113.768 29.78 114.704 32.18H110.78ZM124.148 23.36V50H120.872V23.36H124.148ZM148.307 30.272V50H145.031V47.084C144.407 48.092 143.531 48.884 142.403 49.46C141.299 50.012 140.075 50.288 138.731 50.288C137.195 50.288 135.815 49.976 134.591 49.352C133.367 48.704 132.395 47.744 131.675 46.472C130.979 45.2 130.631 43.652 130.631 41.828V30.272H133.871V41.396C133.871 43.34 134.363 44.84 135.347 45.896C136.331 46.928 137.675 47.444 139.379 47.444C141.131 47.444 142.511 46.904 143.519 45.824C144.527 44.744 145.031 43.172 145.031 41.108V30.272H148.307ZM155.962 50.216C155.338 50.216 154.81 50 154.378 49.568C153.946 49.136 153.73 48.608 153.73 47.984C153.73 47.36 153.946 46.832 154.378 46.4C154.81 45.968 155.338 45.752 155.962 45.752C156.562 45.752 157.066 45.968 157.474 46.4C157.906 46.832 158.122 47.36 158.122 47.984C158.122 48.608 157.906 49.136 157.474 49.568C157.066 50 156.562 50.216 155.962 50.216ZM178.389 44.42H167.445L165.429 50H161.973L171.045 25.052H174.825L183.861 50H180.405L178.389 44.42ZM177.453 41.756L172.917 29.084L168.381 41.756H177.453ZM192.171 24.908V50H188.895V24.908H192.171Z" fill="#2CACBF"/>
<circle cx="65.5285" cy="29.3971" r="9.39714" fill="#33C3D9"/>
<circle cx="48.3333" cy="36.6475" r="15.3333" fill="#2CACBF"/>
<circle cx="69.0331" cy="41.9266" r="9.96667" fill="#2CACBF"/>
<rect x="48.5088" y="36.5598" width="20.6343" height="15.3771" fill="#2CACBF"/>
<path d="M99.799 67V59.7273H100.896V63.2003H100.985L104.036 59.7273H105.417L102.484 63.0014L105.428 67H104.107L101.756 63.7507L100.896 64.7379V67H99.799ZM107.416 63.7614V67H106.354V61.5455H107.374V62.4332H107.441C107.567 62.1444 107.763 61.9124 108.031 61.7372C108.3 61.562 108.64 61.4744 109.05 61.4744C109.421 61.4744 109.747 61.5526 110.026 61.7088C110.306 61.8627 110.522 62.0923 110.676 62.3977C110.83 62.7031 110.907 63.0807 110.907 63.5305V67H109.845V63.6584C109.845 63.263 109.742 62.9541 109.536 62.7315C109.33 62.5066 109.047 62.3942 108.688 62.3942C108.441 62.3942 108.222 62.4474 108.031 62.554C107.841 62.6605 107.691 62.8168 107.58 63.0227C107.471 63.2263 107.416 63.4725 107.416 63.7614ZM114.629 67.1101C114.117 67.1101 113.671 66.9929 113.29 66.7585C112.909 66.5241 112.613 66.1963 112.402 65.7749C112.191 65.3535 112.086 64.861 112.086 64.2976C112.086 63.7318 112.191 63.237 112.402 62.8132C112.613 62.3894 112.909 62.0604 113.29 61.826C113.671 61.5916 114.117 61.4744 114.629 61.4744C115.14 61.4744 115.586 61.5916 115.967 61.826C116.348 62.0604 116.644 62.3894 116.855 62.8132C117.066 63.237 117.171 63.7318 117.171 64.2976C117.171 64.861 117.066 65.3535 116.855 65.7749C116.644 66.1963 116.348 66.5241 115.967 66.7585C115.586 66.9929 115.14 67.1101 114.629 67.1101ZM114.632 66.2188C114.964 66.2188 115.238 66.1312 115.456 65.956C115.674 65.7808 115.835 65.5476 115.939 65.2564C116.045 64.9652 116.099 64.6444 116.099 64.294C116.099 63.946 116.045 63.6264 115.939 63.3352C115.835 63.0417 115.674 62.8061 115.456 62.6286C115.238 62.451 114.964 62.3622 114.632 62.3622C114.298 62.3622 114.021 62.451 113.801 62.6286C113.583 62.8061 113.421 63.0417 113.315 63.3352C113.21 63.6264 113.158 63.946 113.158 64.294C113.158 64.6444 113.21 64.9652 113.315 65.2564C113.421 65.5476 113.583 65.7808 113.801 65.956C114.021 66.1312 114.298 66.2188 114.632 66.2188ZM119.373 67L117.768 61.5455H118.865L119.934 65.5511H119.987L121.06 61.5455H122.157L123.222 65.5334H123.276L124.337 61.5455H125.435L123.833 67H122.75L121.642 63.0618H121.56L120.452 67H119.373ZM128.613 59.7273H129.859L131.759 63.0334H131.837L133.737 59.7273H134.984L132.345 64.1449V67H131.251V64.1449L128.613 59.7273ZM137.334 67.1101C136.822 67.1101 136.376 66.9929 135.995 66.7585C135.614 66.5241 135.318 66.1963 135.107 65.7749C134.896 65.3535 134.791 64.861 134.791 64.2976C134.791 63.7318 134.896 63.237 135.107 62.8132C135.318 62.3894 135.614 62.0604 135.995 61.826C136.376 61.5916 136.822 61.4744 137.334 61.4744C137.845 61.4744 138.291 61.5916 138.672 61.826C139.054 62.0604 139.349 62.3894 139.56 62.8132C139.771 63.237 139.876 63.7318 139.876 64.2976C139.876 64.861 139.771 65.3535 139.56 65.7749C139.349 66.1963 139.054 66.5241 138.672 66.7585C138.291 66.9929 137.845 67.1101 137.334 67.1101ZM137.337 66.2188C137.669 66.2188 137.943 66.1312 138.161 65.956C138.379 65.7808 138.54 65.5476 138.644 65.2564C138.751 64.9652 138.804 64.6444 138.804 64.294C138.804 63.946 138.751 63.6264 138.644 63.3352C138.54 63.0417 138.379 62.8061 138.161 62.6286C137.943 62.451 137.669 62.3622 137.337 62.3622C137.003 62.3622 136.726 62.451 136.506 62.6286C136.288 62.8061 136.126 63.0417 136.02 63.3352C135.916 63.6264 135.863 63.946 135.863 64.294C135.863 64.6444 135.916 64.9652 136.02 65.2564C136.126 65.5476 136.288 65.7808 136.506 65.956C136.726 66.1312 137.003 66.2188 137.337 66.2188ZM144.517 64.7379V61.5455H145.582V67H144.538V66.0554H144.481C144.356 66.3466 144.154 66.5893 143.877 66.7834C143.603 66.9751 143.261 67.071 142.851 67.071C142.501 67.071 142.191 66.9941 141.921 66.8402C141.653 66.6839 141.443 66.4531 141.289 66.1477C141.137 65.8423 141.061 65.4647 141.061 65.0149V61.5455H142.123V64.8871C142.123 65.2588 142.226 65.5547 142.432 65.7749C142.638 65.995 142.906 66.1051 143.235 66.1051C143.434 66.1051 143.631 66.0554 143.828 65.956C144.027 65.8565 144.191 65.7062 144.321 65.505C144.454 65.3037 144.519 65.0481 144.517 64.7379ZM147.009 67V61.5455H148.035V62.4119H148.092C148.191 62.1184 148.366 61.8875 148.617 61.7195C148.871 61.549 149.157 61.4638 149.477 61.4638C149.543 61.4638 149.621 61.4661 149.711 61.4709C149.803 61.4756 149.876 61.4815 149.928 61.4886V62.5043C149.885 62.4924 149.809 62.4794 149.7 62.4652C149.592 62.4486 149.483 62.4403 149.374 62.4403C149.123 62.4403 148.899 62.4936 148.703 62.6001C148.508 62.7043 148.355 62.8499 148.241 63.0369C148.127 63.2216 148.07 63.4323 148.07 63.669V67H147.009ZM158.5 62.0249C158.432 61.8094 158.339 61.6165 158.223 61.446C158.11 61.2732 157.973 61.1264 157.815 61.0057C157.656 60.8826 157.475 60.7891 157.271 60.7251C157.07 60.6612 156.849 60.6293 156.607 60.6293C156.198 60.6293 155.829 60.7346 155.499 60.9453C155.17 61.156 154.91 61.465 154.718 61.8722C154.529 62.277 154.434 62.773 154.434 63.3601C154.434 63.9496 154.53 64.4479 154.722 64.8551C154.914 65.2623 155.176 65.5713 155.51 65.782C155.844 65.9927 156.224 66.098 156.65 66.098C157.045 66.098 157.39 66.0175 157.683 65.8565C157.979 65.6955 158.208 65.4683 158.369 65.1747C158.532 64.8788 158.614 64.5308 158.614 64.1307L158.898 64.1839H156.817V63.2784H159.676V64.1058C159.676 64.7166 159.545 65.2469 159.285 65.6967C159.027 66.1442 158.669 66.4898 158.213 66.7337C157.758 66.9775 157.237 67.0994 156.65 67.0994C155.992 67.0994 155.414 66.9479 154.917 66.6449C154.422 66.3419 154.036 65.9122 153.759 65.3558C153.482 64.7971 153.344 64.1342 153.344 63.3672C153.344 62.7872 153.424 62.2663 153.585 61.8047C153.746 61.343 153.972 60.9512 154.264 60.6293C154.557 60.3049 154.902 60.0575 155.297 59.8871C155.695 59.7143 156.129 59.6278 156.6 59.6278C156.993 59.6278 157.359 59.6858 157.698 59.8018C158.039 59.9179 158.342 60.0824 158.607 60.2955C158.874 60.5085 159.096 60.7618 159.271 61.0554C159.446 61.3466 159.564 61.6697 159.626 62.0249H158.5ZM162.045 59.7273V67H160.983V59.7273H162.045ZM166.929 64.7379V61.5455H167.994V67H166.95V66.0554H166.893C166.768 66.3466 166.567 66.5893 166.29 66.7834C166.015 66.9751 165.673 67.071 165.263 67.071C164.913 67.071 164.603 66.9941 164.333 66.8402C164.065 66.6839 163.855 66.4531 163.701 66.1477C163.549 65.8423 163.474 65.4647 163.474 65.0149V61.5455H164.535V64.8871C164.535 65.2588 164.638 65.5547 164.844 65.7749C165.05 65.995 165.318 66.1051 165.647 66.1051C165.846 66.1051 166.043 66.0554 166.24 65.956C166.439 65.8565 166.603 65.7062 166.733 65.505C166.866 65.3037 166.931 65.0481 166.929 64.7379ZM171.718 67.1101C171.19 67.1101 170.736 66.9905 170.355 66.7514C169.976 66.5099 169.685 66.1773 169.481 65.7536C169.278 65.3298 169.176 64.8445 169.176 64.2976C169.176 63.7436 169.28 63.2547 169.488 62.831C169.697 62.4048 169.99 62.0722 170.369 61.8331C170.748 61.594 171.194 61.4744 171.708 61.4744C172.122 61.4744 172.491 61.5514 172.816 61.7053C173.14 61.8568 173.402 62.0698 173.6 62.3445C173.802 62.6191 173.921 62.9399 173.959 63.3068H172.926C172.869 63.0511 172.739 62.831 172.535 62.6463C172.334 62.4616 172.064 62.3693 171.725 62.3693C171.43 62.3693 171.17 62.4474 170.948 62.6037C170.728 62.7576 170.556 62.9777 170.433 63.2642C170.31 63.5483 170.248 63.8845 170.248 64.2727C170.248 64.6705 170.309 65.0137 170.429 65.3026C170.55 65.5914 170.721 65.8151 170.941 65.9737C171.163 66.1323 171.425 66.2116 171.725 66.2116C171.927 66.2116 172.109 66.175 172.272 66.1016C172.438 66.0258 172.577 65.9181 172.688 65.7784C172.801 65.6387 172.881 65.4706 172.926 65.2741H173.959C173.921 65.6269 173.806 65.9418 173.615 66.2188C173.423 66.4957 173.166 66.7135 172.844 66.8722C172.525 67.0308 172.149 67.1101 171.718 67.1101ZM177.392 67.1101C176.881 67.1101 176.435 66.9929 176.053 66.7585C175.672 66.5241 175.376 66.1963 175.166 65.7749C174.955 65.3535 174.85 64.861 174.85 64.2976C174.85 63.7318 174.955 63.237 175.166 62.8132C175.376 62.3894 175.672 62.0604 176.053 61.826C176.435 61.5916 176.881 61.4744 177.392 61.4744C177.904 61.4744 178.35 61.5916 178.731 61.826C179.112 62.0604 179.408 62.3894 179.619 62.8132C179.829 63.237 179.935 63.7318 179.935 64.2976C179.935 64.861 179.829 65.3535 179.619 65.7749C179.408 66.1963 179.112 66.5241 178.731 66.7585C178.35 66.9929 177.904 67.1101 177.392 67.1101ZM177.396 66.2188C177.727 66.2188 178.002 66.1312 178.22 65.956C178.437 65.7808 178.598 65.5476 178.703 65.2564C178.809 64.9652 178.862 64.6444 178.862 64.294C178.862 63.946 178.809 63.6264 178.703 63.3352C178.598 63.0417 178.437 62.8061 178.22 62.6286C178.002 62.451 177.727 62.3622 177.396 62.3622C177.062 62.3622 176.785 62.451 176.565 62.6286C176.347 62.8061 176.185 63.0417 176.078 63.3352C175.974 63.6264 175.922 63.946 175.922 64.294C175.922 64.6444 175.974 64.9652 176.078 65.2564C176.185 65.5476 176.347 65.7808 176.565 65.956C176.785 66.1312 177.062 66.2188 177.396 66.2188ZM185.207 62.8771L184.245 63.0476C184.205 62.9245 184.141 62.8073 184.053 62.696C183.968 62.5848 183.852 62.4936 183.705 62.4226C183.558 62.3516 183.375 62.3161 183.155 62.3161C182.854 62.3161 182.603 62.3835 182.402 62.5185C182.201 62.651 182.1 62.8227 182.1 63.0334C182.1 63.2157 182.168 63.3625 182.303 63.4737C182.438 63.585 182.655 63.6761 182.956 63.7472L183.822 63.946C184.324 64.062 184.698 64.2408 184.945 64.4822C185.191 64.7237 185.314 65.0374 185.314 65.4233C185.314 65.75 185.219 66.0412 185.03 66.2969C184.843 66.5502 184.581 66.7491 184.245 66.8935C183.911 67.0379 183.524 67.1101 183.084 67.1101C182.473 67.1101 181.975 66.9799 181.589 66.7195C181.203 66.4567 180.966 66.0838 180.879 65.6009L181.905 65.4446C181.969 65.7121 182.1 65.9145 182.299 66.0518C182.498 66.1868 182.757 66.2543 183.077 66.2543C183.425 66.2543 183.703 66.1821 183.911 66.0376C184.12 65.8909 184.224 65.7121 184.224 65.5014C184.224 65.331 184.16 65.1877 184.032 65.0717C183.906 64.9557 183.714 64.8681 183.453 64.8089L182.53 64.6065C182.021 64.4905 181.644 64.3059 181.401 64.0526C181.159 63.7992 181.038 63.4785 181.038 63.0902C181.038 62.7682 181.128 62.4865 181.308 62.245C181.488 62.0036 181.737 61.8153 182.054 61.6804C182.371 61.5431 182.735 61.4744 183.144 61.4744C183.734 61.4744 184.198 61.6023 184.536 61.858C184.875 62.1113 185.098 62.451 185.207 62.8771ZM188.832 67.1101C188.295 67.1101 187.832 66.9953 187.444 66.7656C187.058 66.5336 186.76 66.2081 186.549 65.7891C186.34 65.3677 186.236 64.8741 186.236 64.3082C186.236 63.7495 186.34 63.2571 186.549 62.831C186.76 62.4048 187.053 62.0722 187.43 61.8331C187.808 61.594 188.251 61.4744 188.758 61.4744C189.065 61.4744 189.364 61.5253 189.653 61.6271C189.941 61.7289 190.201 61.8887 190.43 62.1065C190.66 62.3243 190.841 62.6072 190.974 62.9553C191.106 63.3009 191.172 63.7211 191.172 64.2159V64.5923H186.836V63.7969H190.132C190.132 63.5175 190.075 63.2701 189.961 63.0547C189.848 62.8369 189.688 62.6652 189.482 62.5398C189.278 62.4143 189.039 62.3516 188.765 62.3516C188.466 62.3516 188.206 62.425 187.983 62.5717C187.763 62.7161 187.593 62.9055 187.472 63.1399C187.354 63.3719 187.295 63.6241 187.295 63.8963V64.5178C187.295 64.8823 187.358 65.1925 187.486 65.4482C187.617 65.7038 187.798 65.8991 188.03 66.0341C188.262 66.1667 188.533 66.233 188.843 66.233C189.044 66.233 189.228 66.2045 189.393 66.1477C189.559 66.0885 189.702 66.0009 189.823 65.8849C189.944 65.7689 190.036 65.6257 190.1 65.4553L191.105 65.6364C191.024 65.9323 190.88 66.1915 190.672 66.4141C190.466 66.6342 190.206 66.8059 189.894 66.929C189.584 67.0497 189.23 67.1101 188.832 67.1101ZM193.05 67.0675C192.856 67.0675 192.689 66.9988 192.549 66.8615C192.41 66.7218 192.34 66.5537 192.34 66.3572C192.34 66.1631 192.41 65.9974 192.549 65.8601C192.689 65.7204 192.856 65.6506 193.05 65.6506C193.244 65.6506 193.411 65.7204 193.551 65.8601C193.69 65.9974 193.76 66.1631 193.76 66.3572C193.76 66.4875 193.727 66.607 193.661 66.7159C193.597 66.8224 193.512 66.9077 193.405 66.9716C193.299 67.0355 193.18 67.0675 193.05 67.0675Z" fill="#2CACBF"/>
</svg>
