<svg width="40" height="40" viewBox="0 0 40 40" fill="none" xmlns="http://www.w3.org/2000/svg">
<path fill-rule="evenodd" clip-rule="evenodd" d="M21.1334 3.91488C20.9005 3.48379 20.5647 3.12563 20.1598 2.87656C19.7549 2.62749 19.2954 2.49634 18.8275 2.49634C18.3597 2.49634 17.9002 2.62749 17.4953 2.87656C17.0904 3.12563 16.7546 3.48379 16.5217 3.91488L0.387534 33.0824C-0.68776 35.0274 0.601651 37.4999 2.69342 37.4999H34.9593C37.0511 37.4999 38.3428 35.0249 37.2652 33.0824L21.1334 3.91488ZM18.8228 12.4999C18.5254 12.5001 18.2314 12.5664 17.9596 12.6947C17.6878 12.823 17.4443 13.0103 17.2448 13.2447C17.0453 13.479 16.8942 13.7551 16.8013 14.0553C16.7083 14.3555 16.6756 14.673 16.7052 14.9874L17.5287 23.7549C17.5564 24.0993 17.7047 24.4202 17.9443 24.654C18.184 24.8878 18.4975 25.0175 18.8228 25.0175C19.1482 25.0175 19.4617 24.8878 19.7013 24.654C19.941 24.4202 20.0893 24.0993 20.1169 23.7549L20.9405 14.9874C20.97 14.673 20.9373 14.3555 20.8444 14.0553C20.7514 13.7551 20.6003 13.479 20.4008 13.2447C20.2013 13.0103 19.9579 12.823 19.6861 12.6947C19.4143 12.5664 19.1202 12.5001 18.8228 12.4999ZM18.8275 27.4999C18.2035 27.4999 17.605 27.7633 17.1638 28.2321C16.7225 28.701 16.4746 29.3368 16.4746 29.9999C16.4746 30.6629 16.7225 31.2988 17.1638 31.7676C17.605 32.2365 18.2035 32.4999 18.8275 32.4999C19.4516 32.4999 20.0501 32.2365 20.4913 31.7676C20.9326 31.2988 21.1805 30.6629 21.1805 29.9999C21.1805 29.3368 20.9326 28.701 20.4913 28.2321C20.0501 27.7633 19.4516 27.4999 18.8275 27.4999Z" fill="#FBC246"/>
</svg>
