<svg width="16" height="16" viewBox="0 0 16 16" fill="none" xmlns="http://www.w3.org/2000/svg">
<path d="M12.8032 11.2592C12.6864 11.1424 12.6704 10.9408 12.76 10.8016C13.464 9.7184 13.8768 8.4288 13.8768 7.0432C13.8768 3.216 10.7632 0.104004 6.9392 0.104004C3.112 0.104004 0 3.216 0 7.0432C0 10.8688 3.112 13.9808 6.9392 13.9808C8.4288 13.9808 9.808 13.5024 10.9408 12.6992C11.0736 12.6032 11.2736 12.616 11.3904 12.7312L13.8704 15.2112C13.8864 15.2272 13.904 15.2432 13.9216 15.256C13.9504 15.28 14.0704 15.392 14.1856 15.5088L14.48 15.8016C14.5968 15.9168 14.7856 15.9168 14.9008 15.8016L15.912 14.7904C16.0288 14.6736 16.0288 14.4848 15.9136 14.368L12.8032 11.2592ZM11.136 10.2752C10.9072 10.5728 10.6496 10.8448 10.3648 11.0864C9.44 11.872 8.2448 12.3488 6.9392 12.3488C4.0128 12.3488 1.632 9.968 1.632 7.0432C1.632 4.1184 4.0128 1.736 6.9392 1.736C9.864 1.736 12.2448 4.1168 12.2448 7.0432C12.2448 8.2592 11.8272 9.3792 11.136 10.2752Z" fill="#44494E"/>
</svg>
