<svg width="40" height="40" viewBox="0 0 40 40" fill="none" xmlns="http://www.w3.org/2000/svg">
<path fill-rule="evenodd" clip-rule="evenodd" d="M15.8333 7.08341C15.8333 4.78223 17.6988 2.91675 20 2.91675C22.3012 2.91675 24.1666 4.78223 24.1666 7.08341C24.1666 9.3846 22.3012 11.2501 20 11.2501C17.6988 11.2501 15.8333 9.3846 15.8333 7.08341ZM37.0211 12.828C37.3002 13.9442 36.6216 15.0754 35.5054 15.3545C32.1972 16.1818 28.8997 16.8035 24.5358 17.1365C24.6012 20.6822 26.3979 24.4932 28.5119 27.7101C29.6497 29.4416 30.8167 30.9072 31.7003 31.9401C32.1409 32.4552 32.5081 32.8593 32.7619 33.1313C32.8887 33.2672 32.987 33.3699 33.0517 33.4368C33.084 33.4702 33.108 33.4947 33.1229 33.5098L33.1383 33.5255L33.1398 33.5269C33.14 33.5271 33.1402 33.5273 33.1404 33.5275C33.7357 34.1234 33.9137 35.0191 33.5914 35.7973C33.2689 36.5758 32.5093 37.0834 31.6666 37.0834H28.3333C27.1827 37.0834 26.25 36.1507 26.25 35.0001C26.25 34.2152 26.684 33.5317 27.3252 33.1765C26.6057 32.2639 25.8133 31.1907 25.0298 29.9984C23.9996 28.4308 22.9379 26.5874 22.0883 24.5827C21.5663 24.5818 21.0758 24.5796 20.6136 24.5774C18.7884 24.5689 17.4054 24.5625 16.2759 24.6544C14.7875 24.7754 14.272 25.043 14.0257 25.2729C13.7797 25.5025 13.4246 26.0504 13.1967 27.7061C12.9718 29.3392 12.9166 31.6463 12.9166 35.0001C12.9166 35.5526 12.6971 36.0826 12.3064 36.4733C11.9157 36.864 11.3857 37.0834 10.8332 37.0834L7.49916 37.0832C6.34857 37.0831 5.4159 36.1503 5.41598 34.9997C5.41606 33.8491 6.34886 32.9164 7.49946 32.9165L8.75893 32.9166C8.78225 30.5779 8.8584 28.6668 9.06893 27.1377C9.3358 25.1995 9.86615 23.4557 11.1827 22.2269C12.499 20.9983 14.2233 20.6409 15.9382 20.5014C16.2373 20.4771 16.5523 20.4587 16.8824 20.4448C16.7977 19.6865 16.735 18.8878 16.6891 18.2052C16.6703 17.9258 16.6539 17.658 16.6397 17.4105C13.3285 17.415 9.48164 17.3105 4.89628 17.0814C3.74712 17.024 2.86209 16.0458 2.91951 14.8967C2.97693 13.7475 3.95506 12.8625 5.10422 12.9199C21.6565 13.747 28.0993 12.9117 34.4945 11.3123C35.6107 11.0332 36.7419 11.7118 37.0211 12.828Z" fill="#33C3D9"/>
</svg>
