<svg width="40" height="40" viewBox="0 0 40 40" fill="none" xmlns="http://www.w3.org/2000/svg">
<path fill-rule="evenodd" clip-rule="evenodd" d="M37.1729 1.31226C38.2891 1.59143 38.9676 2.72262 38.6885 3.83883L37.0211 10.5055C36.7419 11.6217 35.6107 12.3003 34.4945 12.0211C33.3783 11.7419 32.6998 10.6107 32.9789 9.49452L33.2027 8.59984C32.8632 8.5713 32.478 8.53966 32.0552 8.50607C31.8883 11.5368 30.9783 14.9878 29.2923 17.8329C28.0081 20 26.1682 21.9659 23.7498 22.9953L23.7498 26.9781C24.51 26.4352 25.2992 25.9399 26.0687 25.5219C26.8895 25.076 27.7336 24.6929 28.5354 24.4365C29.2877 24.196 30.2174 23.9956 31.1187 24.1317C31.5976 24.2041 32.1562 24.3851 32.6563 24.7909C33.1777 25.214 33.5042 25.7757 33.6549 26.3759C33.9248 27.4511 33.6193 28.5715 33.2356 29.5054C32.6955 30.8201 31.6861 32.4922 30.1335 34.5868C31.2219 34.6556 32.0833 35.5602 32.0833 36.6659C32.0833 37.8165 31.1506 38.7492 30 38.7492H25.8327C25.0243 38.7492 24.2889 38.2816 23.946 37.5495C23.6032 36.8174 23.7148 35.9531 24.2323 35.3321C26.7975 32.2542 28.2635 30.1169 29.0052 28.714C28.7102 28.8446 28.3923 29.0014 28.0577 29.1832C26.7245 29.9074 25.3107 30.9275 24.2583 31.9462C23.1886 32.9817 21.6992 33.7486 19.9998 33.7486C18.3004 33.7486 16.8111 32.9817 15.7414 31.9462C14.689 30.9275 13.2751 29.9074 11.9419 29.1832C11.6072 29.0013 11.2891 28.8445 10.994 28.7139C11.7355 30.1167 13.2014 32.254 15.7665 35.3322C16.284 35.9532 16.3955 36.8175 16.0527 37.5495C15.7098 38.2816 14.9744 38.7492 14.166 38.7492H10C8.84941 38.7492 7.91667 37.8165 7.91667 36.6659C7.91667 35.5605 8.77758 34.6562 9.86549 34.5868C8.31304 32.4922 7.30368 30.82 6.7637 29.5053C6.3801 28.5714 6.07461 27.4509 6.34464 26.3757C6.49535 25.7756 6.82191 25.2139 7.34335 24.7909C7.84345 24.3851 8.40199 24.2041 8.8809 24.1317C9.78219 23.9956 10.7118 24.196 11.4642 24.4366C12.266 24.6929 13.1101 25.076 13.9309 25.5219C14.7004 25.9399 15.4896 26.4352 16.2498 26.9781L16.2498 22.9951C13.8316 21.9656 11.9919 19.9998 10.7078 17.8329C9.02179 14.9878 8.11173 11.5368 7.94483 8.50607C7.52206 8.53965 7.13691 8.57129 6.79741 8.59983L7.02113 9.49472C7.30019 10.611 6.62153 11.7421 5.50529 12.0211C4.38905 12.3002 3.25793 11.6215 2.97887 10.5053L1.31221 3.83862C1.03315 2.72238 1.71182 1.59127 2.82806 1.31221C3.94429 1.03315 5.07541 1.71182 5.35447 2.82806L5.77383 4.50548C5.9316 4.49176 6.10658 4.47671 6.29722 4.46056C7.22754 4.38177 8.53239 4.27678 10.0326 4.17176C13.0214 3.96252 16.8296 3.75 20 3.75C23.1704 3.75 26.9786 3.96252 29.9674 4.17176C31.4676 4.27678 32.7725 4.38177 33.7028 4.46056C33.8936 4.47672 34.0688 4.49179 34.2267 4.50553L34.6463 2.82785C34.9255 1.71164 36.0567 1.03309 37.1729 1.31226ZM12.1016 8.21052C12.2244 10.6459 12.966 13.4706 14.2923 15.7087C15.7446 18.1594 17.671 19.5833 20.0001 19.5833C22.3291 19.5833 24.2555 18.1594 25.7077 15.7088C27.0341 13.4706 27.7756 10.6459 27.8984 8.21052C25.3199 8.04993 22.4412 7.91667 20 7.91667C17.5588 7.91667 14.6801 8.04993 12.1016 8.21052ZM15.8334 13.75C15.8335 11.4489 17.699 9.58339 20.0001 9.58334C22.3013 9.58329 24.1668 11.4488 24.1668 13.75C24.1667 16.0512 22.3013 17.9166 20.0001 17.9167C17.6989 17.9167 15.8334 16.0512 15.8334 13.75Z" fill="#33C3D9"/>
</svg>
