<svg width="40" height="40" viewBox="0 0 40 40" fill="none" xmlns="http://www.w3.org/2000/svg">
<path fill-rule="evenodd" clip-rule="evenodd" d="M17.9166 6.66667C17.9167 4.36551 19.7822 2.50005 22.0833 2.5C24.3845 2.49995 26.25 4.36545 26.25 6.66666C26.2499 8.96782 24.3845 10.8333 22.0833 10.8333C19.7821 10.8334 17.9166 8.96788 17.9166 6.66667ZM15.7751 16.9407C12.9857 18.2392 10.3534 20.4558 9.39156 22.5398C8.9094 23.5845 7.67164 24.0405 6.62695 23.5584C5.58225 23.0762 5.12623 21.8385 5.60839 20.7938C7.14655 17.461 10.7642 14.6774 14.0165 13.1633C15.6692 12.3939 17.4358 11.8514 19.0231 11.7916C20.5453 11.7343 22.5656 12.1391 23.53 14.068C23.5987 14.2054 23.6583 14.3452 23.7098 14.4864C23.7914 14.5999 24.0189 14.8635 24.5849 15.2133C25.3079 15.6602 26.3074 16.0732 27.4197 16.3745C28.5269 16.6744 29.6484 16.8372 30.5848 16.8425C31.6052 16.8483 32.0792 16.6657 32.1777 16.6C33.135 15.9617 34.4285 16.2204 35.0667 17.1778C35.705 18.1351 35.4463 19.4286 34.4889 20.0669C33.3375 20.8345 31.8322 21.0164 30.561 21.0091C29.2057 21.0014 27.723 20.7734 26.3303 20.3962C25.3655 20.1349 24.3965 19.7891 23.5084 19.3633C23.4892 19.4314 23.4697 19.4996 23.4496 19.5678C23.2163 20.3635 22.9144 21.206 22.5582 22.0746C25.089 24.3612 27.3869 28.0072 27.8371 33.7501H29.1666C30.3172 33.7501 31.25 34.6828 31.25 35.8334C31.25 36.984 30.3172 37.9167 29.1666 37.9167H25.8333C24.6827 37.9167 23.75 36.984 23.75 35.8334C23.75 30.9271 22.285 27.9357 20.6513 26.0668C19.1591 28.8346 17.2752 31.7132 15.3241 34.1009C15.8824 34.4746 16.25 35.1111 16.25 35.8334C16.25 36.984 15.3172 37.9167 14.1666 37.9167H10.8333C9.96619 37.9167 9.18974 37.3797 8.88388 36.5683C8.57802 35.7569 8.80672 34.8409 9.45807 34.2685C11.9471 32.0811 14.9316 27.9458 17.0985 23.8751C17.2059 23.6732 17.3109 23.4724 17.4132 23.2729C16.8636 22.768 16.2781 22.0879 15.9493 21.1446C15.5489 19.9962 15.6343 18.776 16.0313 17.4971C16.1109 17.2407 16.2048 16.9762 16.313 16.7029C16.1369 16.7765 15.9575 16.8557 15.7751 16.9407Z" fill="#33C3D9"/>
</svg>
